<?xml version="1.0" encoding="UTF-8"?>
<svg width="198px" height="1062px" viewBox="0 0 198 1062" version="1.1" xmlns="http://www.w3.org/2000/svg" xmlns:xlink="http://www.w3.org/1999/xlink">
    <!-- Generator: Sketch 46.2 (44496) - http://www.bohemiancoding.com/sketch -->
    <title>Artboard 2</title>
    <desc>Created with Sketch.</desc>
    <defs></defs>
    <g id="Page-3" stroke="none" stroke-width="1" fill="none" fill-rule="evenodd">
        <g id="Artboard-2">
            <path d="M-430.878906,567 L-460,490.574219 L-438.193359,490.574219 L-423.427734,534.119141 C-421.787101,539.633491 -420.761721,544.851538 -420.351562,549.773438 L-419.941406,549.773438 C-419.713541,545.398416 -418.68816,540.180369 -416.865234,534.119141 L-402.167969,490.574219 L-380.361328,490.574219 L-409.482422,567 L-430.878906,567 Z M-320.888672,567 L-324.921875,556.609375 L-325.46875,556.609375 C-328.977882,561.02997 -332.5895,564.094718 -336.303711,565.803711 C-340.017922,567.512704 -344.859996,568.367188 -350.830078,568.367188 C-358.167354,568.367188 -363.943664,566.270854 -368.15918,562.078125 C-372.374696,557.885396 -374.482422,551.915403 -374.482422,544.167969 C-374.482422,536.055949 -371.645536,530.074564 -365.97168,526.223633 C-360.297823,522.372702 -351.741594,520.24219 -340.302734,519.832031 L-327.041016,519.421875 L-327.041016,516.072266 C-327.041016,508.324831 -331.00582,504.451172 -338.935547,504.451172 C-345.042348,504.451172 -352.220011,506.296857 -360.46875,509.988281 L-367.373047,495.90625 C-358.57743,491.303362 -348.824923,489.001953 -338.115234,489.001953 C-327.861277,489.001953 -320.000027,491.235004 -314.53125,495.701172 C-309.062473,500.16734 -306.328125,506.957637 -306.328125,516.072266 L-306.328125,567 L-320.888672,567 Z M-327.041016,531.589844 L-335.107422,531.863281 C-341.16865,532.045574 -345.680324,533.139313 -348.642578,535.144531 C-351.604833,537.14975 -353.085938,540.203104 -353.085938,544.304688 C-353.085938,550.183623 -349.713575,553.123047 -342.96875,553.123047 C-338.137997,553.123047 -334.275731,551.733087 -331.381836,548.953125 C-328.487941,546.173163 -327.041016,542.481794 -327.041016,537.878906 L-327.041016,531.589844 Z M-231.542969,544.304688 C-231.542969,552.143268 -234.265923,558.113261 -239.711914,562.214844 C-245.157905,566.316427 -253.303982,568.367188 -264.150391,568.367188 C-269.710314,568.367188 -274.44985,567.991215 -278.369141,567.239258 C-282.288431,566.487301 -285.957014,565.382169 -289.375,563.923828 L-289.375,546.697266 C-285.501283,548.520191 -281.13772,550.046869 -276.28418,551.277344 C-271.43064,552.507819 -267.158222,553.123047 -263.466797,553.123047 C-255.901655,553.123047 -252.119141,550.935569 -252.119141,546.560547 C-252.119141,544.919914 -252.620438,543.586919 -253.623047,542.561523 C-254.625656,541.536128 -256.35741,540.37403 -258.818359,539.075195 C-261.279309,537.776361 -264.560526,536.261076 -268.662109,534.529297 C-274.541045,532.068347 -278.859036,529.789724 -281.616211,527.693359 C-284.373386,525.596995 -286.378574,523.193047 -287.631836,520.481445 C-288.885097,517.769843 -289.511719,514.43166 -289.511719,510.466797 C-289.511719,503.676398 -286.879909,498.424172 -281.616211,494.709961 C-276.352513,490.99575 -268.890022,489.138672 -259.228516,489.138672 C-250.02274,489.138672 -241.067752,491.14386 -232.363281,495.154297 L-238.652344,510.193359 C-242.480488,508.552726 -246.057926,507.208339 -249.384766,506.160156 C-252.711605,505.111974 -256.106754,504.587891 -259.570312,504.587891 C-265.722687,504.587891 -268.798828,506.251285 -268.798828,509.578125 C-268.798828,511.446624 -267.807627,513.064446 -265.825195,514.431641 C-263.842764,515.798835 -259.501987,517.826809 -252.802734,520.515625 C-246.832652,522.931002 -242.457696,525.186838 -239.677734,527.283203 C-236.897773,529.379568 -234.847012,531.794908 -233.525391,534.529297 C-232.203769,537.263686 -231.542969,540.522117 -231.542969,544.304688 Z M-216.162109,470.818359 C-216.162109,464.027961 -212.379595,460.632812 -204.814453,460.632812 C-197.249311,460.632812 -193.466797,464.027961 -193.466797,470.818359 C-193.466797,474.054053 -194.412425,476.571931 -196.303711,478.37207 C-198.194996,480.17221 -201.031882,481.072266 -204.814453,481.072266 C-212.379595,481.072266 -216.162109,477.654331 -216.162109,470.818359 Z M-194.423828,567 L-215.273438,567 L-215.273438,490.574219 L-194.423828,490.574219 L-194.423828,567 Z M-151.699219,567 L-172.548828,567 L-172.548828,460.632812 L-151.699219,460.632812 L-151.699219,567 Z M-130.712891,470.818359 C-130.712891,464.027961 -126.930376,460.632812 -119.365234,460.632812 C-111.800092,460.632812 -108.017578,464.027961 -108.017578,470.818359 C-108.017578,474.054053 -108.963207,476.571931 -110.854492,478.37207 C-112.745778,480.17221 -115.582663,481.072266 -119.365234,481.072266 C-126.930376,481.072266 -130.712891,477.654331 -130.712891,470.818359 Z M-108.974609,567 L-129.824219,567 L-129.824219,490.574219 L-108.974609,490.574219 L-108.974609,567 Z M-87.9882812,470.818359 C-87.9882812,464.027961 -84.205767,460.632812 -76.640625,460.632812 C-69.075483,460.632812 -65.2929688,464.027961 -65.2929688,470.818359 C-65.2929688,474.054053 -66.2385973,476.571931 -68.1298828,478.37207 C-70.0211683,480.17221 -72.858054,481.072266 -76.640625,481.072266 C-84.205767,481.072266 -87.9882812,477.654331 -87.9882812,470.818359 Z M-66.25,567 L-87.0996094,567 L-87.0996094,490.574219 L-66.25,490.574219 L-66.25,567 Z M58.5058594,490.574219 L58.5058594,501.169922 L46.5429688,504.246094 C48.7304797,507.66408 49.8242188,511.492166 49.8242188,515.730469 C49.8242188,523.933635 46.9645468,530.325172 41.2451172,534.905273 C35.5256875,539.485374 27.5846862,541.775391 17.421875,541.775391 L13.6621094,541.570312 L10.5859375,541.228516 C8.44399971,542.869149 7.37304688,544.692047 7.37304688,546.697266 C7.37304688,549.705093 11.2011336,551.208984 18.8574219,551.208984 L31.8457031,551.208984 C40.2311617,551.208984 46.6226994,553.009097 51.0205078,556.609375 C55.4183163,560.209653 57.6171875,565.496059 57.6171875,572.46875 C57.6171875,581.401086 53.8916388,588.3281 46.4404297,593.25 C38.9892206,598.1719 28.2910854,600.632812 14.3457031,600.632812 C3.6815873,600.632812 -4.46449009,598.775735 -10.0927734,595.061523 C-15.7210568,591.347312 -18.5351562,586.140658 -18.5351562,579.441406 C-18.5351562,574.838519 -17.0996237,570.987646 -14.2285156,567.888672 C-11.3574075,564.789698 -7.14195488,562.579434 -1.58203125,561.257812 C-3.72396904,560.34635 -5.59243994,558.853852 -7.1875,556.780273 C-8.78256006,554.706695 -9.58007812,552.507824 -9.58007812,550.183594 C-9.58007812,547.266912 -8.7369876,544.840179 -7.05078125,542.90332 C-5.3645749,540.966462 -2.92644824,539.063811 0.263671875,537.195312 C-3.74676484,535.463533 -6.92544399,532.683613 -9.27246094,528.855469 C-11.6194779,525.027325 -12.7929688,520.515651 -12.7929688,515.320312 C-12.7929688,506.980427 -10.0814073,500.531924 -4.65820312,495.974609 C0.765001074,491.417295 8.51231943,489.138672 18.5839844,489.138672 C20.7259222,489.138672 23.2665869,489.332355 26.2060547,489.719727 C29.1455225,490.107098 31.0253865,490.391926 31.8457031,490.574219 L58.5058594,490.574219 Z M-0.48828125,577.800781 C-0.48828125,580.671889 0.890285693,582.927726 3.64746094,584.568359 C6.40463618,586.208993 10.2669022,587.029297 15.234375,587.029297 C22.7083707,587.029297 28.5644319,586.003917 32.8027344,583.953125 C37.0410368,581.902333 39.1601562,579.099627 39.1601562,575.544922 C39.1601562,572.673814 37.9069136,570.691412 35.4003906,569.597656 C32.8938677,568.503901 29.0202085,567.957031 23.7792969,567.957031 L12.9785156,567.957031 C9.15037148,567.957031 5.9489061,568.857087 3.37402344,570.657227 C0.799140771,572.457366 -0.48828125,574.838527 -0.48828125,577.800781 Z M7.09960938,515.59375 C7.09960938,519.740906 8.04523794,523.022123 9.93652344,525.4375 C11.8278089,527.852877 14.7102671,529.060547 18.5839844,529.060547 C22.5032748,529.060547 25.3743398,527.852877 27.1972656,525.4375 C29.0201914,523.022123 29.9316406,519.740906 29.9316406,515.59375 C29.9316406,506.387975 26.1491264,501.785156 18.5839844,501.785156 C10.9276961,501.785156 7.09960938,506.387975 7.09960938,515.59375 Z M87.6953125,528.650391 C87.6953125,536.215533 88.9371621,541.934876 91.4208984,545.808594 C93.9046348,549.682311 97.9491907,551.619141 103.554688,551.619141 C109.114611,551.619141 113.113595,549.693704 115.551758,545.842773 C117.989921,541.991843 119.208984,536.261106 119.208984,528.650391 C119.208984,521.085249 117.978528,515.411477 115.517578,511.628906 C113.056628,507.846335 109.023466,505.955078 103.417969,505.955078 C97.8580451,505.955078 93.8476686,507.834942 91.3867188,511.594727 C88.9257689,515.354511 87.6953125,521.039675 87.6953125,528.650391 Z M140.537109,528.650391 C140.537109,541.091859 137.255892,550.821579 130.693359,557.839844 C124.130827,564.858108 114.993548,568.367188 103.28125,568.367188 C95.9439737,568.367188 89.4726843,566.760758 83.8671875,563.547852 C78.2616907,560.334945 73.9550932,555.720733 70.9472656,549.705078 C67.9394381,543.689423 66.4355469,536.671264 66.4355469,528.650391 C66.4355469,516.163349 69.6939778,506.456415 76.2109375,499.529297 C82.7278972,492.602179 91.8879618,489.138672 103.691406,489.138672 C111.028683,489.138672 117.499972,490.733708 123.105469,493.923828 C128.710966,497.113948 133.017563,501.693981 136.025391,507.664062 C139.033218,513.634144 140.537109,520.629517 140.537109,528.650391 Z M200.419922,489.138672 C203.245457,489.138672 205.592439,489.343748 207.460938,489.753906 L205.888672,509.304688 C204.202466,508.848956 202.151705,508.621094 199.736328,508.621094 C193.082649,508.621094 187.898782,510.330061 184.18457,513.748047 C180.470359,517.166033 178.613281,521.951141 178.613281,528.103516 L178.613281,567 L157.763672,567 L157.763672,490.574219 L173.554688,490.574219 L176.630859,503.425781 L177.65625,503.425781 C180.026054,499.141906 183.227519,495.689792 187.260742,493.069336 C191.293965,490.44888 195.680315,489.138672 200.419922,489.138672 Z M220.449219,470.818359 C220.449219,464.027961 224.231733,460.632812 231.796875,460.632812 C239.362017,460.632812 243.144531,464.027961 243.144531,470.818359 C243.144531,474.054053 242.198903,476.571931 240.307617,478.37207 C238.416332,480.17221 235.579446,481.072266 231.796875,481.072266 C224.231733,481.072266 220.449219,477.654331 220.449219,470.818359 Z M242.1875,567 L221.337891,567 L221.337891,490.574219 L242.1875,490.574219 L242.1875,567 Z M318.203125,567 L315.400391,557.224609 L314.306641,557.224609 C312.073557,560.779315 308.906271,563.525055 304.804688,565.461914 C300.703104,567.398773 296.031927,568.367188 290.791016,568.367188 C281.813106,568.367188 275.045596,565.96324 270.488281,561.155273 C265.930967,556.347307 263.652344,549.431686 263.652344,540.408203 L263.652344,490.574219 L284.501953,490.574219 L284.501953,535.212891 C284.501953,540.727241 285.481761,544.862942 287.441406,547.620117 C289.401051,550.377292 292.522765,551.755859 296.806641,551.755859 C302.640003,551.755859 306.855456,549.807637 309.453125,545.911133 C312.050794,542.014629 313.349609,535.554733 313.349609,526.53125 L313.349609,490.574219 L334.199219,490.574219 L334.199219,567 L318.203125,567 Z M426.621094,567 L405.771484,567 L405.771484,522.361328 C405.771484,516.846978 404.791676,512.711277 402.832031,509.954102 C400.872386,507.196926 397.750672,505.818359 393.466797,505.818359 C387.633434,505.818359 383.417982,507.766582 380.820312,511.663086 C378.222643,515.55959 376.923828,522.019486 376.923828,531.042969 L376.923828,567 L356.074219,567 L356.074219,490.574219 L372.001953,490.574219 L374.804688,500.349609 L375.966797,500.349609 C378.291027,496.658185 381.492493,493.866871 385.571289,491.975586 C389.650085,490.0843 394.287083,489.138672 399.482422,489.138672 C408.369185,489.138672 415.113909,491.542619 419.716797,496.350586 C424.319684,501.158553 426.621094,508.09696 426.621094,517.166016 L426.621094,567 Z M464.697266,528.650391 C464.697266,536.215533 465.939115,541.934876 468.422852,545.808594 C470.906588,549.682311 474.951144,551.619141 480.556641,551.619141 C486.116564,551.619141 490.115548,549.693704 492.553711,545.842773 C494.991874,541.991843 496.210938,536.261106 496.210938,528.650391 C496.210938,521.085249 494.980481,515.411477 492.519531,511.628906 C490.058581,507.846335 486.025419,505.955078 480.419922,505.955078 C474.859998,505.955078 470.849622,507.834942 468.388672,511.594727 C465.927722,515.354511 464.697266,521.039675 464.697266,528.650391 Z M517.539062,528.650391 C517.539062,541.091859 514.257845,550.821579 507.695312,557.839844 C501.13278,564.858108 491.995501,568.367188 480.283203,568.367188 C472.945927,568.367188 466.474637,566.760758 460.869141,563.547852 C455.263644,560.334945 450.957046,555.720733 447.949219,549.705078 C444.941391,543.689423 443.4375,536.671264 443.4375,528.650391 C443.4375,516.163349 446.695931,506.456415 453.212891,499.529297 C459.72985,492.602179 468.889915,489.138672 480.693359,489.138672 C488.030636,489.138672 494.501925,490.733708 500.107422,493.923828 C505.712919,497.113948 510.019516,501.693981 513.027344,507.664062 C516.035171,513.634144 517.539062,520.629517 517.539062,528.650391 Z M550.146484,567 L521.025391,490.574219 L542.832031,490.574219 L557.597656,534.119141 C559.238289,539.633491 560.26367,544.851538 560.673828,549.773438 L561.083984,549.773438 C561.31185,545.398416 562.33723,540.180369 564.160156,534.119141 L578.857422,490.574219 L600.664062,490.574219 L571.542969,567 L550.146484,567 Z" id="vasilii-goriunov-copy" fill="#2D2D2D" transform="translate(70.332031, 530.632812) rotate(90.000000) translate(-70.332031, -530.632812) "></path>
            <path d="M165.664062,259.339844 C166.223961,259.339844 166.783851,259.251954 167.34375,259.076172 L167.34375,260.804688 C167.089842,260.915365 166.762697,261.008138 166.362305,261.083008 C165.961912,261.157878 165.546877,261.195312 165.117188,261.195312 C162.942697,261.195312 161.855469,260.049491 161.855469,257.757812 L161.855469,251.9375 L160.380859,251.9375 L160.380859,250.921875 L161.962891,250.082031 L162.744141,247.796875 L164.160156,247.796875 L164.160156,250.199219 L167.236328,250.199219 L167.236328,251.9375 L164.160156,251.9375 L164.160156,257.71875 C164.160156,258.272138 164.298501,258.680663 164.575195,258.944336 C164.851889,259.208009 165.214842,259.339844 165.664062,259.339844 Z M179.082031,255.580078 C179.082031,257.34441 178.629562,258.721349 177.724609,259.710938 C176.819657,260.700526 175.559904,261.195312 173.945312,261.195312 C172.936193,261.195312 172.044275,260.96745 171.269531,260.511719 C170.494788,260.055987 169.899091,259.401697 169.482422,258.548828 C169.065753,257.695959 168.857422,256.706386 168.857422,255.580078 C168.857422,253.828767 169.306636,252.461593 170.205078,251.478516 C171.10352,250.495438 172.369783,250.003906 174.003906,250.003906 C175.566414,250.003906 176.803381,250.506831 177.714844,251.512695 C178.626307,252.51856 179.082031,253.87434 179.082031,255.580078 Z M171.220703,255.580078 C171.220703,258.07358 172.141918,259.320312 173.984375,259.320312 C175.807301,259.320312 176.71875,258.07358 176.71875,255.580078 C176.71875,253.112618 175.80079,251.878906 173.964844,251.878906 C173.001297,251.878906 172.303062,252.197913 171.870117,252.835938 C171.437172,253.473962 171.220703,254.388666 171.220703,255.580078 Z M190.820312,261 L188.515625,261 L188.515625,254.339844 C188.515625,253.513017 188.359377,252.896161 188.046875,252.489258 C187.734373,252.082355 187.246097,251.878906 186.582031,251.878906 C185.69661,251.878906 185.047203,252.166989 184.633789,252.743164 C184.220376,253.319339 184.013672,254.277988 184.013672,255.619141 L184.013672,261 L181.71875,261 L181.71875,250.199219 L183.515625,250.199219 L183.837891,251.615234 L183.955078,251.615234 C184.254559,251.100909 184.689125,250.703777 185.258789,250.423828 C185.828453,250.143879 186.455075,250.003906 187.138672,250.003906 C188.798836,250.003906 189.899086,250.570307 190.439453,251.703125 L190.595703,251.703125 C190.914715,251.169268 191.363929,250.752606 191.943359,250.453125 C192.522789,250.153644 193.186845,250.003906 193.935547,250.003906 C195.224616,250.003906 196.163734,250.329424 196.75293,250.980469 C197.342125,251.631514 197.636719,252.624342 197.636719,253.958984 L197.636719,261 L195.341797,261 L195.341797,254.339844 C195.341797,253.513017 195.183921,252.896161 194.868164,252.489258 C194.552407,252.082355 194.062503,251.878906 193.398438,251.878906 C192.506506,251.878906 191.853843,252.157224 191.44043,252.713867 C191.027016,253.270511 190.820312,254.124994 190.820312,255.277344 L190.820312,261 Z" id="tom-copy" fill="#FF0073"></path>
        </g>
    </g>
</svg>