<?xml version="1.0" encoding="UTF-8"?>
<svg width="1515px" height="502px" viewBox="0 0 1515 502" version="1.1" xmlns="http://www.w3.org/2000/svg" xmlns:xlink="http://www.w3.org/1999/xlink">
    <!-- Generator: Sketch 46.2 (44496) - http://www.bohemiancoding.com/sketch -->
    <title>Artboard</title>
    <desc>Created with Sketch.</desc>
    <defs></defs>
    <g id="Page-3" stroke="none" stroke-width="1" fill="none" fill-rule="evenodd">
        <g id="Artboard">
            <path d="M41.6015625,453 L0,343.820312 L31.1523438,343.820312 L52.2460938,406.027344 C54.5898555,413.904987 56.0546846,421.35934 56.640625,428.390625 L57.2265625,428.390625 C57.552085,422.140594 59.0169141,414.686241 61.6210938,406.027344 L82.6171875,343.820312 L113.769531,343.820312 L72.1679688,453 L41.6015625,453 Z M198.730469,453 L192.96875,438.15625 L192.1875,438.15625 C187.174454,444.471386 182.015,448.849597 176.708984,451.291016 C171.402968,453.732434 164.48572,454.953125 155.957031,454.953125 C145.475208,454.953125 137.223337,451.958363 131.201172,445.96875 C125.179006,439.979137 122.167969,431.450576 122.167969,420.382812 C122.167969,408.794213 126.220663,400.249376 134.326172,394.748047 C142.431681,389.246717 154.654866,386.203128 170.996094,385.617188 L189.941406,385.03125 L189.941406,380.246094 C189.941406,369.17833 184.2774,363.644531 172.949219,363.644531 C164.225217,363.644531 153.971413,366.281224 142.1875,371.554688 L132.324219,351.4375 C144.889386,344.861946 158.821538,341.574219 174.121094,341.574219 C188.769604,341.574219 199.999961,344.764291 207.8125,351.144531 C215.625039,357.524771 219.53125,367.225195 219.53125,380.246094 L219.53125,453 L198.730469,453 Z M189.941406,402.414062 L178.417969,402.804688 C169.759071,403.065105 163.313823,404.62759 159.082031,407.492188 C154.850239,410.356785 152.734375,414.718721 152.734375,420.578125 C152.734375,428.976604 157.552035,433.175781 167.1875,433.175781 C174.088576,433.175781 179.606099,431.190124 183.740234,427.21875 C187.87437,423.247376 189.941406,417.973991 189.941406,411.398438 L189.941406,402.414062 Z M326.367188,420.578125 C326.367188,431.776098 322.477252,440.304658 314.697266,446.164062 C306.917279,452.023467 295.280025,454.953125 279.785156,454.953125 C271.842408,454.953125 265.071643,454.416021 259.472656,453.341797 C253.87367,452.267573 248.632837,450.688812 243.75,448.605469 L243.75,423.996094 C249.283882,426.600273 255.517543,428.781241 262.451172,430.539062 C269.3848,432.296884 275.488255,433.175781 280.761719,433.175781 C291.569064,433.175781 296.972656,430.050813 296.972656,423.800781 C296.972656,421.45702 296.256518,419.552742 294.824219,418.087891 C293.39192,416.62304 290.917986,414.9629 287.402344,413.107422 C283.886701,411.251944 279.199248,409.087252 273.339844,406.613281 C264.941364,403.097639 258.772806,399.842463 254.833984,396.847656 C250.895163,393.85285 248.030608,390.418639 246.240234,386.544922 C244.449861,382.671205 243.554688,377.902372 243.554688,372.238281 C243.554688,362.537712 247.314416,355.034532 254.833984,349.728516 C262.353553,344.4225 273.014254,341.769531 286.816406,341.769531 C299.967514,341.769531 312.760354,344.634086 325.195312,350.363281 L316.210938,371.847656 C310.74216,369.503895 305.631534,367.583341 300.878906,366.085938 C296.126278,364.588534 291.276066,363.839844 286.328125,363.839844 C277.539019,363.839844 273.144531,366.216122 273.144531,370.96875 C273.144531,373.638034 274.560533,375.949209 277.392578,377.902344 C280.224624,379.855479 286.425733,382.752585 295.996094,386.59375 C304.524782,390.044288 310.77472,393.266912 314.746094,396.261719 C318.717468,399.256525 321.647126,402.707012 323.535156,406.613281 C325.423187,410.519551 326.367188,415.174452 326.367188,420.578125 Z M348.339844,315.597656 C348.339844,305.897087 353.743436,301.046875 364.550781,301.046875 C375.358127,301.046875 380.761719,305.897087 380.761719,315.597656 C380.761719,320.220075 379.410821,323.817044 376.708984,326.388672 C374.007148,328.960299 369.954454,330.246094 364.550781,330.246094 C353.743436,330.246094 348.339844,325.36333 348.339844,315.597656 Z M379.394531,453 L349.609375,453 L349.609375,343.820312 L379.394531,343.820312 L379.394531,453 Z M440.429688,453 L410.644531,453 L410.644531,301.046875 L440.429688,301.046875 L440.429688,453 Z M470.410156,315.597656 C470.410156,305.897087 475.813748,301.046875 486.621094,301.046875 C497.428439,301.046875 502.832031,305.897087 502.832031,315.597656 C502.832031,320.220075 501.481133,323.817044 498.779297,326.388672 C496.07746,328.960299 492.024767,330.246094 486.621094,330.246094 C475.813748,330.246094 470.410156,325.36333 470.410156,315.597656 Z M501.464844,453 L471.679688,453 L471.679688,343.820312 L501.464844,343.820312 L501.464844,453 Z M531.445312,315.597656 C531.445312,305.897087 536.848904,301.046875 547.65625,301.046875 C558.463596,301.046875 563.867188,305.897087 563.867188,315.597656 C563.867188,320.220075 562.51629,323.817044 559.814453,326.388672 C557.112617,328.960299 553.059923,330.246094 547.65625,330.246094 C536.848904,330.246094 531.445312,325.36333 531.445312,315.597656 Z M562.5,453 L532.714844,453 L532.714844,343.820312 L562.5,343.820312 L562.5,453 Z M740.722656,343.820312 L740.722656,358.957031 L723.632812,363.351562 C726.757828,368.234399 728.320312,373.703095 728.320312,379.757812 C728.320312,391.476621 724.235067,400.607389 716.064453,407.150391 C707.893839,413.693392 696.549552,416.964844 682.03125,416.964844 L676.660156,416.671875 L672.265625,416.183594 C669.205714,418.527355 667.675781,421.131496 667.675781,423.996094 C667.675781,428.29299 673.144477,430.441406 684.082031,430.441406 L702.636719,430.441406 C714.615945,430.441406 723.746713,433.012995 730.029297,438.15625 C736.31188,443.299505 739.453125,450.851513 739.453125,460.8125 C739.453125,473.57298 734.130913,483.468715 723.486328,490.5 C712.841744,497.531285 697.558693,501.046875 677.636719,501.046875 C662.402268,501.046875 650.765014,498.393907 642.724609,493.087891 C634.684205,487.781875 630.664062,480.343798 630.664062,470.773438 C630.664062,464.197884 632.714823,458.696637 636.816406,454.269531 C640.917989,449.842426 646.940064,446.684905 654.882812,444.796875 C651.822901,443.494785 649.153657,441.362645 646.875,438.400391 C644.596343,435.438136 643.457031,432.296892 643.457031,428.976562 C643.457031,424.809875 644.661446,421.343113 647.070312,418.576172 C649.479179,415.809231 652.962217,413.091159 657.519531,410.421875 C651.790336,407.947904 647.249366,403.97659 643.896484,398.507812 C640.543603,393.039035 638.867188,386.593787 638.867188,379.171875 C638.867188,367.257753 642.740847,358.045605 650.488281,351.535156 C658.235716,345.024707 669.303313,341.769531 683.691406,341.769531 C686.751317,341.769531 690.380838,342.046221 694.580078,342.599609 C698.779318,343.152998 701.464838,343.559895 702.636719,343.820312 L740.722656,343.820312 Z M656.445312,468.429688 C656.445312,472.531271 658.414694,475.753895 662.353516,478.097656 C666.292337,480.441418 671.80986,481.613281 678.90625,481.613281 C689.583387,481.613281 697.949188,480.148452 704.003906,477.21875 C710.058624,474.289048 713.085938,470.285182 713.085938,465.207031 C713.085938,461.105448 711.295591,458.273445 707.714844,456.710938 C704.134097,455.14843 698.600298,454.367188 691.113281,454.367188 L675.683594,454.367188 C670.214816,454.367188 665.641294,455.652982 661.962891,458.224609 C658.284487,460.796237 656.445312,464.197896 656.445312,468.429688 Z M667.285156,379.5625 C667.285156,385.487009 668.636054,390.174462 671.337891,393.625 C674.039727,397.075538 678.157524,398.800781 683.691406,398.800781 C689.290393,398.800781 693.391914,397.075538 695.996094,393.625 C698.600273,390.174462 699.902344,385.487009 699.902344,379.5625 C699.902344,366.411393 694.498752,359.835938 683.691406,359.835938 C672.753852,359.835938 667.285156,366.411393 667.285156,379.5625 Z M782.421875,398.214844 C782.421875,409.022189 784.195946,417.192681 787.744141,422.726562 C791.292335,428.260444 797.070272,431.027344 805.078125,431.027344 C813.020873,431.027344 818.733707,428.27672 822.216797,422.775391 C825.699887,417.274061 827.441406,409.087294 827.441406,398.214844 C827.441406,387.407498 825.683611,379.30211 822.167969,373.898438 C818.652326,368.494765 812.890665,365.792969 804.882812,365.792969 C796.940064,365.792969 791.210955,368.478489 787.695312,373.849609 C784.17967,379.22073 782.421875,387.342394 782.421875,398.214844 Z M857.910156,398.214844 C857.910156,415.98837 853.222703,429.887971 843.847656,439.914062 C834.472609,449.940154 821.419354,454.953125 804.6875,454.953125 C794.205677,454.953125 784.960978,452.658226 776.953125,448.068359 C768.945272,443.478493 762.79299,436.886762 758.496094,428.292969 C754.199197,419.699176 752.050781,409.673234 752.050781,398.214844 C752.050781,380.376213 756.705683,366.509164 766.015625,356.613281 C775.325567,346.717398 788.411374,341.769531 805.273438,341.769531 C815.755261,341.769531 824.99996,344.048154 833.007812,348.605469 C841.015665,353.162783 847.167947,359.705687 851.464844,368.234375 C855.76174,376.763063 857.910156,386.756453 857.910156,398.214844 Z M943.457031,341.769531 C947.49351,341.769531 950.846341,342.062497 953.515625,342.648438 L951.269531,370.578125 C948.860665,369.92708 945.931007,369.601562 942.480469,369.601562 C932.975213,369.601562 925.569688,372.042944 920.263672,376.925781 C914.957656,381.808618 912.304688,388.644487 912.304688,397.433594 L912.304688,453 L882.519531,453 L882.519531,343.820312 L905.078125,343.820312 L909.472656,362.179688 L910.9375,362.179688 C914.322934,356.059865 918.896456,351.128274 924.658203,347.384766 C930.419951,343.641257 936.686164,341.769531 943.457031,341.769531 Z M972.070312,315.597656 C972.070312,305.897087 977.473904,301.046875 988.28125,301.046875 C999.088596,301.046875 1004.49219,305.897087 1004.49219,315.597656 C1004.49219,320.220075 1003.14129,323.817044 1000.43945,326.388672 C997.737617,328.960299 993.684923,330.246094 988.28125,330.246094 C977.473904,330.246094 972.070312,325.36333 972.070312,315.597656 Z M1003.125,453 L973.339844,453 L973.339844,343.820312 L1003.125,343.820312 L1003.125,453 Z M1111.71875,453 L1107.71484,439.035156 L1106.15234,439.035156 C1102.96222,444.113307 1098.43753,448.035793 1092.57812,450.802734 C1086.71872,453.569675 1080.04561,454.953125 1072.55859,454.953125 C1059.73301,454.953125 1050.06514,451.518915 1043.55469,444.650391 C1037.04424,437.781867 1033.78906,427.902408 1033.78906,415.011719 L1033.78906,343.820312 L1063.57422,343.820312 L1063.57422,407.589844 C1063.57422,415.467487 1064.97394,421.375631 1067.77344,425.314453 C1070.57293,429.253275 1075.03252,431.222656 1081.15234,431.222656 C1089.48572,431.222656 1095.50779,428.439481 1099.21875,422.873047 C1102.92971,417.306613 1104.78516,408.078189 1104.78516,395.1875 L1104.78516,343.820312 L1134.57031,343.820312 L1134.57031,453 L1111.71875,453 Z M1266.60156,453 L1236.81641,453 L1236.81641,389.230469 C1236.81641,381.352825 1235.41668,375.444681 1232.61719,371.505859 C1229.81769,367.567038 1225.3581,365.597656 1219.23828,365.597656 C1210.90491,365.597656 1204.88283,368.380832 1201.17188,373.947266 C1197.46092,379.5137 1195.60547,388.742123 1195.60547,401.632812 L1195.60547,453 L1165.82031,453 L1165.82031,343.820312 L1188.57422,343.820312 L1192.57812,357.785156 L1194.23828,357.785156 C1197.55861,352.511692 1202.13213,348.524102 1207.95898,345.822266 C1213.78584,343.120429 1220.41012,341.769531 1227.83203,341.769531 C1240.52741,341.769531 1250.16273,345.203742 1256.73828,352.072266 C1263.31383,358.94079 1266.60156,368.8528 1266.60156,381.808594 L1266.60156,453 Z M1320.99609,398.214844 C1320.99609,409.022189 1322.77016,417.192681 1326.31836,422.726562 C1329.86655,428.260444 1335.64449,431.027344 1343.65234,431.027344 C1351.59509,431.027344 1357.30793,428.27672 1360.79102,422.775391 C1364.27411,417.274061 1366.01562,409.087294 1366.01562,398.214844 C1366.01562,387.407498 1364.25783,379.30211 1360.74219,373.898438 C1357.22654,368.494765 1351.46488,365.792969 1343.45703,365.792969 C1335.51428,365.792969 1329.78517,368.478489 1326.26953,373.849609 C1322.75389,379.22073 1320.99609,387.342394 1320.99609,398.214844 Z M1396.48438,398.214844 C1396.48438,415.98837 1391.79692,429.887971 1382.42188,439.914062 C1373.04683,449.940154 1359.99357,454.953125 1343.26172,454.953125 C1332.7799,454.953125 1323.5352,452.658226 1315.52734,448.068359 C1307.51949,443.478493 1301.36721,436.886762 1297.07031,428.292969 C1292.77342,419.699176 1290.625,409.673234 1290.625,398.214844 C1290.625,380.376213 1295.2799,366.509164 1304.58984,356.613281 C1313.89979,346.717398 1326.98559,341.769531 1343.84766,341.769531 C1354.32948,341.769531 1363.57418,344.048154 1371.58203,348.605469 C1379.58988,353.162783 1385.74217,359.705687 1390.03906,368.234375 C1394.33596,376.763063 1396.48438,386.756453 1396.48438,398.214844 Z M1443.06641,453 L1401.46484,343.820312 L1432.61719,343.820312 L1453.71094,406.027344 C1456.0547,413.904987 1457.51953,421.35934 1458.10547,428.390625 L1458.69141,428.390625 C1459.01693,422.140594 1460.48176,414.686241 1463.08594,406.027344 L1484.08203,343.820312 L1515.23438,343.820312 L1473.63281,453 L1443.06641,453 Z" id="vasilii-goriunov" fill="#EBEBEB"></path>
            <path d="M338.496094,253.509766 C339.335942,253.509766 340.175777,253.377931 341.015625,253.114258 L341.015625,255.707031 C340.634764,255.873048 340.144046,256.012206 339.543457,256.124512 C338.942868,256.236817 338.320316,256.292969 337.675781,256.292969 C334.414046,256.292969 332.783203,254.574236 332.783203,251.136719 L332.783203,242.40625 L330.571289,242.40625 L330.571289,240.882812 L332.944336,239.623047 L334.116211,236.195312 L336.240234,236.195312 L336.240234,239.798828 L340.854492,239.798828 L340.854492,242.40625 L336.240234,242.40625 L336.240234,251.078125 C336.240234,251.908207 336.447752,252.520994 336.862793,252.916504 C337.277834,253.312014 337.822262,253.509766 338.496094,253.509766 Z M358.623047,247.870117 C358.623047,250.516615 357.944343,252.582024 356.586914,254.066406 C355.229485,255.550789 353.339856,256.292969 350.917969,256.292969 C349.404289,256.292969 348.066412,255.951175 346.904297,255.267578 C345.742182,254.583981 344.848636,253.602545 344.223633,252.323242 C343.59863,251.043939 343.286133,249.559579 343.286133,247.870117 C343.286133,245.243151 343.959954,243.19239 345.307617,241.717773 C346.65528,240.243157 348.554675,239.505859 351.005859,239.505859 C353.349621,239.505859 355.205071,240.260246 356.572266,241.769043 C357.93946,243.27784 358.623047,245.311511 358.623047,247.870117 Z M346.831055,247.870117 C346.831055,251.61037 348.212877,253.480469 350.976562,253.480469 C353.710951,253.480469 355.078125,251.61037 355.078125,247.870117 C355.078125,244.168927 353.701186,242.318359 350.947266,242.318359 C349.501946,242.318359 348.454593,242.79687 347.805176,243.753906 C347.155758,244.710942 346.831055,246.082999 346.831055,247.870117 Z M376.230469,256 L372.773438,256 L372.773438,246.009766 C372.773438,244.769525 372.539065,243.844241 372.070312,243.233887 C371.60156,242.623532 370.869146,242.318359 369.873047,242.318359 C368.544915,242.318359 367.570804,242.750484 366.950684,243.614746 C366.330563,244.479008 366.020508,245.916982 366.020508,247.928711 L366.020508,256 L362.578125,256 L362.578125,239.798828 L365.273438,239.798828 L365.756836,241.922852 L365.932617,241.922852 C366.381838,241.151363 367.033687,240.555666 367.888184,240.135742 C368.74268,239.715818 369.682612,239.505859 370.708008,239.505859 C373.198255,239.505859 374.848629,240.35546 375.65918,242.054688 L375.893555,242.054688 C376.372073,241.253902 377.045894,240.628908 377.915039,240.179688 C378.784184,239.730467 379.780268,239.505859 380.90332,239.505859 C382.836924,239.505859 384.245601,239.994136 385.129395,240.970703 C386.013188,241.947271 386.455078,243.436513 386.455078,245.438477 L386.455078,256 L383.012695,256 L383.012695,246.009766 C383.012695,244.769525 382.775881,243.844241 382.302246,243.233887 C381.828611,242.623532 381.093755,242.318359 380.097656,242.318359 C378.759759,242.318359 377.780765,242.735836 377.160645,243.570801 C376.540524,244.405766 376.230469,245.687491 376.230469,247.416016 L376.230469,256 Z" id="tom" fill="#FF0073" transform="translate(358.513184, 246.244141) rotate(-90.000000) translate(-358.513184, -246.244141) "></path>
            <path d="M369.714355,163.792969 C367.399891,163.792969 365.59571,163.080085 364.301758,161.654297 C363.007806,160.228508 362.36084,158.231458 362.36084,155.663086 C362.36084,153.124011 362.985834,151.09034 364.23584,149.562012 C365.485846,148.033684 367.1704,147.269531 369.289551,147.269531 C371.16456,147.269531 372.644038,147.923822 373.728027,149.232422 C374.812017,150.541022 375.354004,152.318348 375.354004,154.564453 L375.354004,155.736328 L363.884277,155.736328 C363.903809,157.923839 364.414057,159.593744 365.415039,160.746094 C366.416021,161.898443 367.849112,162.474609 369.714355,162.474609 C370.622563,162.474609 371.420895,162.411133 372.109375,162.28418 C372.797855,162.157226 373.669428,161.883791 374.724121,161.463867 L374.724121,162.782227 C373.825679,163.172854 372.995609,163.438964 372.233887,163.580566 C371.472164,163.722169 370.632329,163.792969 369.714355,163.792969 Z M369.289551,148.558594 C367.75634,148.558594 366.525884,149.06396 365.598145,150.074707 C364.670406,151.085454 364.128419,152.542959 363.972168,154.447266 L373.815918,154.447266 C373.815918,152.601553 373.415531,151.158697 372.614746,150.118652 C371.813961,149.078608 370.705573,148.558594 369.289551,148.558594 Z M383.059082,155.311523 L377.507324,147.577148 L379.177246,147.577148 L383.92334,154.286133 L388.625488,147.577148 L390.222168,147.577148 L384.758301,155.311523 L390.617676,163.5 L388.933105,163.5 L383.92334,156.395508 L378.884277,163.5 L377.287598,163.5 L383.059082,155.311523 Z M411.755371,159.354492 C411.755371,160.780281 411.213384,161.876461 410.129395,162.643066 C409.045405,163.409672 407.507334,163.792969 405.515137,163.792969 C403.38622,163.792969 401.696784,163.465824 400.446777,162.811523 L400.446777,161.244141 C402.048348,162.044926 403.737784,162.445312 405.515137,162.445312 C407.08741,162.445312 408.281246,162.184085 409.09668,161.661621 C409.912113,161.139158 410.319824,160.443364 410.319824,159.574219 C410.319824,158.773433 409.99512,158.099612 409.345703,157.552734 C408.696286,157.005857 407.629402,156.468753 406.14502,155.941406 C404.553215,155.365231 403.435062,154.869631 402.790527,154.45459 C402.145993,154.039549 401.660158,153.570803 401.333008,153.04834 C401.005858,152.525876 400.842285,151.888676 400.842285,151.136719 C400.842285,149.945307 401.342768,149.002933 402.34375,148.30957 C403.344732,147.616207 404.743643,147.269531 406.540527,147.269531 C408.259286,147.269531 409.890129,147.591794 411.433105,148.236328 L410.891113,149.554688 C409.328605,148.910153 407.878425,148.587891 406.540527,148.587891 C405.241693,148.587891 404.21143,148.802732 403.449707,149.232422 C402.687984,149.662112 402.307129,150.257809 402.307129,151.019531 C402.307129,151.849614 402.602536,152.513669 403.193359,153.011719 C403.784183,153.509768 404.938956,154.066403 406.657715,154.681641 C408.093269,155.199221 409.13818,155.665525 409.79248,156.080566 C410.446781,156.495608 410.937498,156.966794 411.264648,157.494141 C411.591799,158.021487 411.755371,158.641598 411.755371,159.354492 Z M422.668457,163.792969 C420.217273,163.792969 418.430181,162.875009 417.307129,161.039062 L417.20459,161.039062 L417.248535,162.269531 C417.287598,162.992191 417.307129,163.783199 417.307129,164.642578 L417.307129,170.707031 L415.856934,170.707031 L415.856934,147.577148 L417.087402,147.577148 L417.365723,149.847656 L417.453613,149.847656 C418.547369,148.128898 420.295398,147.269531 422.697754,147.269531 C424.846202,147.269531 426.484369,147.975091 427.612305,149.38623 C428.74024,150.79737 429.304199,152.850572 429.304199,155.545898 C429.304199,158.163099 428.710943,160.191887 427.524414,161.632324 C426.337885,163.072761 424.719249,163.792969 422.668457,163.792969 Z M422.63916,162.503906 C424.270028,162.503906 425.532222,161.898444 426.425781,160.6875 C427.31934,159.476556 427.766113,157.782237 427.766113,155.604492 C427.766113,150.926734 426.076677,148.587891 422.697754,148.587891 C420.842276,148.587891 419.479985,149.098139 418.61084,150.118652 C417.741695,151.139165 417.307129,152.801746 417.307129,155.106445 L417.307129,155.575195 C417.307129,158.065442 417.724605,159.842768 418.55957,160.907227 C419.394535,161.971685 420.754385,162.503906 422.63916,162.503906 Z M443.381348,163.5 L443.015137,160.980469 L442.897949,160.980469 C442.097164,162.005865 441.274418,162.730955 440.429688,163.155762 C439.584957,163.580569 438.586432,163.792969 437.434082,163.792969 C435.871574,163.792969 434.655766,163.392582 433.786621,162.591797 C432.917476,161.791012 432.48291,160.682624 432.48291,159.266602 C432.48291,157.713859 433.129876,156.507817 434.423828,155.648438 C435.71778,154.789058 437.59032,154.334961 440.041504,154.286133 L443.07373,154.198242 L443.07373,153.143555 C443.07373,151.629875 442.766116,150.487309 442.150879,149.71582 C441.535641,148.944332 440.54444,148.558594 439.177246,148.558594 C437.702629,148.558594 436.174324,148.968746 434.592285,149.789062 L434.050293,148.529297 C435.798349,147.70898 437.526847,147.298828 439.23584,147.298828 C440.983895,147.298828 442.290035,147.752925 443.154297,148.661133 C444.018559,149.56934 444.450684,150.985342 444.450684,152.90918 L444.450684,163.5 L443.381348,163.5 Z M437.521973,162.474609 C439.2212,162.474609 440.561519,161.988774 441.542969,161.01709 C442.524419,160.045405 443.015137,158.695321 443.015137,156.966797 L443.015137,155.399414 L440.231934,155.516602 C437.995594,155.624024 436.401372,155.973142 435.449219,156.563965 C434.497066,157.154788 434.020996,158.075189 434.020996,159.325195 C434.020996,160.321294 434.326169,161.095212 434.936523,161.646973 C435.546878,162.198733 436.408686,162.474609 437.521973,162.474609 Z M455.964355,163.792969 C453.688953,163.792969 451.906745,163.075202 450.617676,161.639648 C449.328607,160.204094 448.684082,158.202161 448.684082,155.633789 C448.684082,152.997057 449.353021,150.943855 450.690918,149.474121 C452.028815,148.004387 453.859852,147.269531 456.184082,147.269531 C457.561042,147.269531 458.879388,147.508787 460.13916,147.987305 L459.743652,149.276367 C458.366692,148.817381 457.170415,148.587891 456.154785,148.587891 C454.20165,148.587891 452.722173,149.190912 451.716309,150.396973 C450.710444,151.603033 450.20752,153.338856 450.20752,155.604492 C450.20752,157.75294 450.710444,159.435053 451.716309,160.650879 C452.722173,161.866705 454.128409,162.474609 455.935059,162.474609 C457.380378,162.474609 458.723138,162.215823 459.963379,161.698242 L459.963379,163.045898 C458.947749,163.543948 457.614754,163.792969 455.964355,163.792969 Z M470.290527,163.792969 C467.976063,163.792969 466.171881,163.080085 464.87793,161.654297 C463.583978,160.228508 462.937012,158.231458 462.937012,155.663086 C462.937012,153.124011 463.562005,151.09034 464.812012,149.562012 C466.062018,148.033684 467.746571,147.269531 469.865723,147.269531 C471.740732,147.269531 473.220209,147.923822 474.304199,149.232422 C475.388189,150.541022 475.930176,152.318348 475.930176,154.564453 L475.930176,155.736328 L464.460449,155.736328 C464.479981,157.923839 464.990229,159.593744 465.991211,160.746094 C466.992193,161.898443 468.425284,162.474609 470.290527,162.474609 C471.198735,162.474609 471.997067,162.411133 472.685547,162.28418 C473.374027,162.157226 474.2456,161.883791 475.300293,161.463867 L475.300293,162.782227 C474.401851,163.172854 473.571781,163.438964 472.810059,163.580566 C472.048336,163.722169 471.208501,163.792969 470.290527,163.792969 Z M469.865723,148.558594 C468.332512,148.558594 467.102055,149.06396 466.174316,150.074707 C465.246577,151.085454 464.704591,152.542959 464.54834,154.447266 L474.39209,154.447266 C474.39209,152.601553 473.991703,151.158697 473.190918,150.118652 C472.390133,149.078608 471.281745,148.558594 469.865723,148.558594 Z M494.54834,163.792969 C492.233875,163.792969 490.429694,163.080085 489.135742,161.654297 C487.84179,160.228508 487.194824,158.231458 487.194824,155.663086 C487.194824,153.124011 487.819818,151.09034 489.069824,149.562012 C490.31983,148.033684 492.004384,147.269531 494.123535,147.269531 C495.998545,147.269531 497.478022,147.923822 498.562012,149.232422 C499.646002,150.541022 500.187988,152.318348 500.187988,154.564453 L500.187988,155.736328 L488.718262,155.736328 C488.737793,157.923839 489.248042,159.593744 490.249023,160.746094 C491.250005,161.898443 492.683096,162.474609 494.54834,162.474609 C495.456548,162.474609 496.254879,162.411133 496.943359,162.28418 C497.631839,162.157226 498.503413,161.883791 499.558105,161.463867 L499.558105,162.782227 C498.659663,163.172854 497.829594,163.438964 497.067871,163.580566 C496.306149,163.722169 495.466313,163.792969 494.54834,163.792969 Z M494.123535,148.558594 C492.590324,148.558594 491.359868,149.06396 490.432129,150.074707 C489.50439,151.085454 488.962403,152.542959 488.806152,154.447266 L498.649902,154.447266 C498.649902,152.601553 498.249516,151.158697 497.44873,150.118652 C496.647945,149.078608 495.539558,148.558594 494.123535,148.558594 Z M515.686035,163.5 L515.686035,153.172852 C515.686035,151.571281 515.349124,150.406742 514.675293,149.679199 C514.001461,148.951657 512.95655,148.587891 511.540527,148.587891 C509.636221,148.587891 508.242192,149.068843 507.358398,150.030762 C506.474605,150.992681 506.032715,152.552724 506.032715,154.710938 L506.032715,163.5 L504.58252,163.5 L504.58252,147.577148 L505.812988,147.577148 L506.091309,149.759766 L506.179199,149.759766 C507.214361,148.099601 509.055163,147.269531 511.70166,147.269531 C515.314959,147.269531 517.121582,149.207988 517.121582,153.084961 L517.121582,163.5 L515.686035,163.5 Z M534.699707,147.577148 L534.699707,148.587891 L531.403809,148.792969 C532.282719,149.886724 532.722168,151.087884 532.722168,152.396484 C532.722168,153.929695 532.211919,155.172359 531.191406,156.124512 C530.170893,157.076665 528.801278,157.552734 527.08252,157.552734 C526.35986,157.552734 525.852052,157.523438 525.559082,157.464844 C524.982907,157.76758 524.543459,158.124021 524.240723,158.53418 C523.937987,158.944338 523.786621,159.378904 523.786621,159.837891 C523.786621,160.345706 523.97949,160.716796 524.365234,160.951172 C524.750978,161.185548 525.397945,161.302734 526.306152,161.302734 L529.089355,161.302734 C530.81788,161.302734 532.141109,161.651852 533.059082,162.350098 C533.977055,163.048343 534.436035,164.081048 534.436035,165.448242 C534.436035,167.127938 533.75489,168.424312 532.392578,169.337402 C531.030267,170.250493 529.089368,170.707031 526.569824,170.707031 C524.567861,170.707031 523.017584,170.321293 521.918945,169.549805 C520.820307,168.778316 520.270996,167.704108 520.270996,166.327148 C520.270996,165.233393 520.610348,164.325199 521.289062,163.602539 C521.967777,162.879879 522.888178,162.38672 524.050293,162.123047 C523.571775,161.917968 523.188478,161.627443 522.900391,161.251465 C522.612303,160.875486 522.468262,160.443362 522.468262,159.955078 C522.468262,158.89062 523.146966,157.953129 524.504395,157.142578 C523.576656,156.761717 522.854006,156.163578 522.336426,155.348145 C521.818845,154.532711 521.560059,153.597662 521.560059,152.542969 C521.560059,150.951164 522.065425,149.674321 523.076172,148.712402 C524.086919,147.750483 525.451652,147.269531 527.17041,147.269531 C528.215337,147.269531 529.025876,147.372069 529.602051,147.577148 L534.699707,147.577148 Z M521.809082,166.195312 C521.809082,168.382823 523.435042,169.476562 526.687012,169.476562 C530.86672,169.476562 532.956543,168.143568 532.956543,165.477539 C532.956543,164.520503 532.629398,163.827151 531.975098,163.397461 C531.320798,162.967771 530.261238,162.75293 528.796387,162.75293 L526.188965,162.75293 C523.269028,162.75293 521.809082,163.900379 521.809082,166.195312 Z M523.024902,152.542969 C523.024902,153.773444 523.398434,154.728024 524.145508,155.406738 C524.892582,156.085453 525.891107,156.424805 527.141113,156.424805 C528.469245,156.424805 529.487301,156.087894 530.195312,155.414062 C530.903324,154.740231 531.257324,153.763678 531.257324,152.484375 C531.257324,151.126946 530.893558,150.10889 530.166016,149.430176 C529.438473,148.751461 528.420417,148.412109 527.111816,148.412109 C525.842279,148.412109 524.843754,148.775875 524.116211,149.503418 C523.388668,150.230961 523.024902,151.244134 523.024902,152.542969 Z M539.416504,163.5 L537.966309,163.5 L537.966309,147.577148 L539.416504,147.577148 L539.416504,163.5 Z M537.76123,143.15332 C537.76123,142.215816 538.068845,141.74707 538.684082,141.74707 C538.986818,141.74707 539.223632,141.869139 539.394531,142.113281 C539.565431,142.357423 539.650879,142.704099 539.650879,143.15332 C539.650879,143.592776 539.565431,143.939452 539.394531,144.193359 C539.223632,144.447267 538.986818,144.574219 538.684082,144.574219 C538.068845,144.574219 537.76123,144.100591 537.76123,143.15332 Z M555.852051,163.5 L555.852051,153.172852 C555.852051,151.571281 555.51514,150.406742 554.841309,149.679199 C554.167477,148.951657 553.122566,148.587891 551.706543,148.587891 C549.802237,148.587891 548.408208,149.068843 547.524414,150.030762 C546.640621,150.992681 546.19873,152.552724 546.19873,154.710938 L546.19873,163.5 L544.748535,163.5 L544.748535,147.577148 L545.979004,147.577148 L546.257324,149.759766 L546.345215,149.759766 C547.380376,148.099601 549.221178,147.269531 551.867676,147.269531 C555.480975,147.269531 557.287598,149.207988 557.287598,153.084961 L557.287598,163.5 L555.852051,163.5 Z M568.874512,163.792969 C566.560047,163.792969 564.755866,163.080085 563.461914,161.654297 C562.167962,160.228508 561.520996,158.231458 561.520996,155.663086 C561.520996,153.124011 562.14599,151.09034 563.395996,149.562012 C564.646002,148.033684 566.330556,147.269531 568.449707,147.269531 C570.324716,147.269531 571.804194,147.923822 572.888184,149.232422 C573.972173,150.541022 574.51416,152.318348 574.51416,154.564453 L574.51416,155.736328 L563.044434,155.736328 C563.063965,157.923839 563.574214,159.593744 564.575195,160.746094 C565.576177,161.898443 567.009268,162.474609 568.874512,162.474609 C569.782719,162.474609 570.581051,162.411133 571.269531,162.28418 C571.958011,162.157226 572.829585,161.883791 573.884277,161.463867 L573.884277,162.782227 C572.985835,163.172854 572.155766,163.438964 571.394043,163.580566 C570.63232,163.722169 569.792485,163.792969 568.874512,163.792969 Z M568.449707,148.558594 C566.916496,148.558594 565.68604,149.06396 564.758301,150.074707 C563.830562,151.085454 563.288575,152.542959 563.132324,154.447266 L572.976074,154.447266 C572.976074,152.601553 572.575688,151.158697 571.774902,150.118652 C570.974117,149.078608 569.86573,148.558594 568.449707,148.558594 Z M585.339355,163.792969 C583.024891,163.792969 581.22071,163.080085 579.926758,161.654297 C578.632806,160.228508 577.98584,158.231458 577.98584,155.663086 C577.98584,153.124011 578.610834,151.09034 579.86084,149.562012 C581.110846,148.033684 582.7954,147.269531 584.914551,147.269531 C586.78956,147.269531 588.269038,147.923822 589.353027,149.232422 C590.437017,150.541022 590.979004,152.318348 590.979004,154.564453 L590.979004,155.736328 L579.509277,155.736328 C579.528809,157.923839 580.039057,159.593744 581.040039,160.746094 C582.041021,161.898443 583.474112,162.474609 585.339355,162.474609 C586.247563,162.474609 587.045895,162.411133 587.734375,162.28418 C588.422855,162.157226 589.294428,161.883791 590.349121,161.463867 L590.349121,162.782227 C589.450679,163.172854 588.620609,163.438964 587.858887,163.580566 C587.097164,163.722169 586.257329,163.792969 585.339355,163.792969 Z M584.914551,148.558594 C583.38134,148.558594 582.150884,149.06396 581.223145,150.074707 C580.295406,151.085454 579.753419,152.542959 579.597168,154.447266 L589.440918,154.447266 C589.440918,152.601553 589.040531,151.158697 588.239746,150.118652 C587.438961,149.078608 586.330573,148.558594 584.914551,148.558594 Z M601.643066,147.269531 C602.316898,147.269531 603.039547,147.33789 603.811035,147.474609 L603.532715,148.866211 C602.868649,148.700194 602.180179,148.617188 601.467285,148.617188 C600.109856,148.617188 598.996586,149.193354 598.127441,150.345703 C597.258296,151.498053 596.82373,152.953116 596.82373,154.710938 L596.82373,163.5 L595.373535,163.5 L595.373535,147.577148 L596.604004,147.577148 L596.750488,150.448242 L596.853027,150.448242 C597.507327,149.276361 598.205563,148.453616 598.947754,147.97998 C599.689945,147.506345 600.588374,147.269531 601.643066,147.269531 Z" id="ex-space-engineer" fill="#ACACAC" transform="translate(483.085938, 156.227051) rotate(-90.000000) translate(-483.085938, -156.227051) "></path>
            <path d="M422.541016,148.5 L422.541016,138.114258 C422.541016,136.805658 422.243167,135.829105 421.647461,135.18457 C421.051755,134.540036 420.119147,134.217773 418.849609,134.217773 C417.169913,134.217773 415.939457,134.67187 415.158203,135.580078 C414.376949,136.488286 413.986328,137.987294 413.986328,140.077148 L413.986328,148.5 L411.554688,148.5 L411.554688,132.445312 L413.532227,132.445312 L413.927734,134.642578 L414.044922,134.642578 C414.542971,133.851559 415.241206,133.238772 416.139648,132.804199 C417.03809,132.369627 418.039057,132.152344 419.142578,132.152344 C421.076182,132.152344 422.531245,132.618648 423.507812,133.55127 C424.48438,134.483891 424.972656,135.975576 424.972656,138.026367 L424.972656,148.5 L422.541016,148.5 Z M443.825195,140.458008 C443.825195,143.075208 443.166022,145.118645 441.847656,146.588379 C440.52929,148.058113 438.708019,148.792969 436.383789,148.792969 C434.948235,148.792969 433.673834,148.456058 432.560547,147.782227 C431.44726,147.108395 430.587894,146.141608 429.982422,144.881836 C429.37695,143.622064 429.074219,142.147469 429.074219,140.458008 C429.074219,137.840807 429.728509,135.802253 431.037109,134.342285 C432.34571,132.882317 434.162098,132.152344 436.486328,132.152344 C438.732433,132.152344 440.517083,132.899407 441.840332,134.393555 C443.163581,135.887703 443.825195,137.909167 443.825195,140.458008 Z M431.59375,140.458008 C431.59375,142.508799 432.003902,144.071284 432.824219,145.145508 C433.644535,146.219732 434.850578,146.756836 436.442383,146.756836 C438.034188,146.756836 439.242672,146.222173 440.067871,145.152832 C440.893071,144.083491 441.305664,142.518565 441.305664,140.458008 C441.305664,138.416982 440.893071,136.866705 440.067871,135.807129 C439.242672,134.747553 438.024422,134.217773 436.413086,134.217773 C434.821281,134.217773 433.620121,134.740229 432.80957,135.785156 C431.999019,136.830083 431.59375,138.387685 431.59375,140.458008 Z M460.597656,148.5 L457.65332,139.081055 C457.467773,138.50488 457.121096,137.196299 456.613281,135.155273 L456.496094,135.155273 C456.105467,136.864266 455.763673,138.182613 455.470703,139.110352 L452.438477,148.5 L449.625977,148.5 L445.246094,132.445312 L447.794922,132.445312 C448.830083,136.478536 449.61865,139.549794 450.160645,141.65918 C450.702639,143.768565 451.012695,145.189449 451.09082,145.921875 L451.208008,145.921875 C451.31543,145.365232 451.488768,144.645024 451.728027,143.76123 C451.967286,142.877437 452.174804,142.17676 452.350586,141.65918 L455.294922,132.445312 L457.931641,132.445312 L460.802734,141.65918 C461.349612,143.338876 461.720702,144.749994 461.916016,145.892578 L462.033203,145.892578 C462.072266,145.541014 462.177245,144.999027 462.348145,144.266602 C462.519044,143.534176 463.5371,139.593786 465.402344,132.445312 L467.921875,132.445312 L463.483398,148.5 L460.597656,148.5 Z M491.725586,148.5 L488.78125,139.081055 C488.595702,138.50488 488.249026,137.196299 487.741211,135.155273 L487.624023,135.155273 C487.233396,136.864266 486.891603,138.182613 486.598633,139.110352 L483.566406,148.5 L480.753906,148.5 L476.374023,132.445312 L478.922852,132.445312 C479.958013,136.478536 480.746579,139.549794 481.288574,141.65918 C481.830569,143.768565 482.140625,145.189449 482.21875,145.921875 L482.335938,145.921875 C482.44336,145.365232 482.616698,144.645024 482.855957,143.76123 C483.095216,142.877437 483.302733,142.17676 483.478516,141.65918 L486.422852,132.445312 L489.05957,132.445312 L491.930664,141.65918 C492.477542,143.338876 492.848632,144.749994 493.043945,145.892578 L493.161133,145.892578 C493.200196,145.541014 493.305175,144.999027 493.476074,144.266602 C493.646974,143.534176 494.66503,139.593786 496.530273,132.445312 L499.049805,132.445312 L494.611328,148.5 L491.725586,148.5 Z M508.732422,148.792969 C506.359363,148.792969 504.486823,148.07032 503.114746,146.625 C501.742669,145.17968 501.056641,143.172864 501.056641,140.604492 C501.056641,138.016589 501.693841,135.960945 502.968262,134.4375 C504.242682,132.914055 505.954091,132.152344 508.102539,132.152344 C510.114268,132.152344 511.706049,132.813958 512.87793,134.137207 C514.049811,135.460456 514.635742,137.206044 514.635742,139.374023 L514.635742,140.912109 L503.576172,140.912109 C503.625,142.796884 504.10107,144.227534 505.004395,145.204102 C505.907719,146.180669 507.179679,146.668945 508.820312,146.668945 C510.548837,146.668945 512.257804,146.307621 513.947266,145.584961 L513.947266,147.75293 C513.087886,148.124025 512.274906,148.390136 511.508301,148.55127 C510.741695,148.712403 509.816412,148.792969 508.732422,148.792969 Z M508.073242,134.188477 C506.784173,134.188477 505.756351,134.608394 504.989746,135.448242 C504.223141,136.28809 503.771485,137.450188 503.634766,138.93457 L512.02832,138.93457 C512.02832,137.40136 511.686527,136.227055 511.00293,135.411621 C510.319333,134.596187 509.34278,134.188477 508.073242,134.188477 Z M526.251953,132.181641 C528.361339,132.181641 529.999506,132.901848 531.166504,134.342285 C532.333502,135.782722 532.916992,137.821276 532.916992,140.458008 C532.916992,143.09474 532.328619,145.143059 531.151855,146.603027 C529.975092,148.062996 528.341807,148.792969 526.251953,148.792969 C525.207026,148.792969 524.252446,148.6001 523.388184,148.214355 C522.523921,147.828611 521.798831,147.235356 521.212891,146.43457 L521.037109,146.43457 L520.524414,148.5 L518.78125,148.5 L518.78125,125.707031 L521.212891,125.707031 L521.212891,131.244141 C521.212891,132.484381 521.173829,133.597651 521.095703,134.583984 L521.212891,134.583984 C522.345709,132.982414 524.025379,132.181641 526.251953,132.181641 Z M525.900391,134.217773 C524.240226,134.217773 523.043949,134.693843 522.311523,135.645996 C521.579098,136.598149 521.212891,138.202137 521.212891,140.458008 C521.212891,142.713878 521.588863,144.327632 522.34082,145.299316 C523.092777,146.271001 524.29882,146.756836 525.958984,146.756836 C527.453132,146.756836 528.566403,146.212408 529.298828,145.123535 C530.031254,144.034663 530.397461,142.469737 530.397461,140.428711 C530.397461,138.338857 530.031254,136.781255 529.298828,135.755859 C528.566403,134.730464 527.433601,134.217773 525.900391,134.217773 Z M555.885742,146.34668 L555.753906,146.34668 C554.630854,147.977547 552.951183,148.792969 550.714844,148.792969 C548.615224,148.792969 546.981939,148.075202 545.814941,146.639648 C544.647943,145.204094 544.064453,143.163099 544.064453,140.516602 C544.064453,137.870104 544.650385,135.81446 545.822266,134.349609 C546.994146,132.884758 548.62499,132.152344 550.714844,132.152344 C552.892589,132.152344 554.562494,132.943351 555.724609,134.525391 L555.915039,134.525391 L555.8125,133.368164 L555.753906,132.240234 L555.753906,125.707031 L558.185547,125.707031 L558.185547,148.5 L556.208008,148.5 L555.885742,146.34668 Z M551.022461,146.756836 C552.682625,146.756836 553.886227,146.30518 554.633301,145.401855 C555.380375,144.498531 555.753906,143.041026 555.753906,141.029297 L555.753906,140.516602 C555.753906,138.2412 555.375492,136.617681 554.618652,135.645996 C553.861813,134.674312 552.653329,134.188477 550.993164,134.188477 C549.567376,134.188477 548.476078,134.74267 547.719238,135.851074 C546.962399,136.959478 546.583984,138.524404 546.583984,140.545898 C546.583984,142.59669 546.959957,144.144526 547.711914,145.189453 C548.463871,146.23438 549.567376,146.756836 551.022461,146.756836 Z M570.124023,148.792969 C567.750965,148.792969 565.878425,148.07032 564.506348,146.625 C563.13427,145.17968 562.448242,143.172864 562.448242,140.604492 C562.448242,138.016589 563.085443,135.960945 564.359863,134.4375 C565.634284,132.914055 567.345692,132.152344 569.494141,132.152344 C571.505869,132.152344 573.09765,132.813958 574.269531,134.137207 C575.441412,135.460456 576.027344,137.206044 576.027344,139.374023 L576.027344,140.912109 L564.967773,140.912109 C565.016602,142.796884 565.492671,144.227534 566.395996,145.204102 C567.299321,146.180669 568.571281,146.668945 570.211914,146.668945 C571.940438,146.668945 573.649406,146.307621 575.338867,145.584961 L575.338867,147.75293 C574.479488,148.124025 573.666508,148.390136 572.899902,148.55127 C572.133297,148.712403 571.208013,148.792969 570.124023,148.792969 Z M569.464844,134.188477 C568.175775,134.188477 567.147953,134.608394 566.381348,135.448242 C565.614742,136.28809 565.163087,137.450188 565.026367,138.93457 L573.419922,138.93457 C573.419922,137.40136 573.078128,136.227055 572.394531,135.411621 C571.710934,134.596187 570.734381,134.188477 569.464844,134.188477 Z M583.087891,148.5 L576.994141,132.445312 L579.601562,132.445312 L583.058594,141.966797 C583.839848,144.193371 584.298827,145.638669 584.435547,146.302734 L584.552734,146.302734 C584.660157,145.785154 584.999509,144.713387 585.570801,143.087402 C586.142093,141.461418 587.423818,137.91409 589.416016,132.445312 L592.023438,132.445312 L585.929688,148.5 L583.087891,148.5 Z M601.383789,148.792969 C599.01073,148.792969 597.13819,148.07032 595.766113,146.625 C594.394036,145.17968 593.708008,143.172864 593.708008,140.604492 C593.708008,138.016589 594.345208,135.960945 595.619629,134.4375 C596.894049,132.914055 598.605458,132.152344 600.753906,132.152344 C602.765635,132.152344 604.357416,132.813958 605.529297,134.137207 C606.701178,135.460456 607.287109,137.206044 607.287109,139.374023 L607.287109,140.912109 L596.227539,140.912109 C596.276367,142.796884 596.752437,144.227534 597.655762,145.204102 C598.559087,146.180669 599.831046,146.668945 601.47168,146.668945 C603.200204,146.668945 604.909171,146.307621 606.598633,145.584961 L606.598633,147.75293 C605.739254,148.124025 604.926273,148.390136 604.159668,148.55127 C603.393063,148.712403 602.467779,148.792969 601.383789,148.792969 Z M600.724609,134.188477 C599.43554,134.188477 598.407719,134.608394 597.641113,135.448242 C596.874508,136.28809 596.422852,137.450188 596.286133,138.93457 L604.679688,138.93457 C604.679688,137.40136 604.337894,136.227055 603.654297,135.411621 C602.9707,134.596187 601.994147,134.188477 600.724609,134.188477 Z M613.864258,148.5 L611.432617,148.5 L611.432617,125.707031 L613.864258,125.707031 L613.864258,148.5 Z M632.87793,140.458008 C632.87793,143.075208 632.218757,145.118645 630.900391,146.588379 C629.582025,148.058113 627.760754,148.792969 625.436523,148.792969 C624.000969,148.792969 622.726568,148.456058 621.613281,147.782227 C620.499994,147.108395 619.640628,146.141608 619.035156,144.881836 C618.429684,143.622064 618.126953,142.147469 618.126953,140.458008 C618.126953,137.840807 618.781243,135.802253 620.089844,134.342285 C621.398444,132.882317 623.214832,132.152344 625.539062,132.152344 C627.785167,132.152344 629.569818,132.899407 630.893066,134.393555 C632.216315,135.887703 632.87793,137.909167 632.87793,140.458008 Z M620.646484,140.458008 C620.646484,142.508799 621.056637,144.071284 621.876953,145.145508 C622.69727,146.219732 623.903312,146.756836 625.495117,146.756836 C627.086922,146.756836 628.295406,146.222173 629.120605,145.152832 C629.945805,144.083491 630.358398,142.518565 630.358398,140.458008 C630.358398,138.416982 629.945805,136.866705 629.120605,135.807129 C628.295406,134.747553 627.077156,134.217773 625.46582,134.217773 C623.874015,134.217773 622.672856,134.740229 621.862305,135.785156 C621.051754,136.830083 620.646484,138.387685 620.646484,140.458008 Z M644.611328,148.792969 C643.566401,148.792969 642.611821,148.6001 641.747559,148.214355 C640.883296,147.828611 640.158206,147.235356 639.572266,146.43457 L639.396484,146.43457 C639.513672,147.372075 639.572266,148.260738 639.572266,149.100586 L639.572266,155.707031 L637.140625,155.707031 L637.140625,132.445312 L639.118164,132.445312 L639.455078,134.642578 L639.572266,134.642578 C640.197269,133.763667 640.924801,133.128908 641.754883,132.738281 C642.584965,132.347654 643.537104,132.152344 644.611328,132.152344 C646.740245,132.152344 648.383295,132.879876 649.540527,134.334961 C650.69776,135.790046 651.276367,137.831042 651.276367,140.458008 C651.276367,143.09474 650.687994,145.143059 649.51123,146.603027 C648.334467,148.062996 646.701182,148.792969 644.611328,148.792969 Z M644.259766,134.217773 C642.619132,134.217773 641.432621,134.67187 640.700195,135.580078 C639.96777,136.488286 639.591797,137.933584 639.572266,139.916016 L639.572266,140.458008 C639.572266,142.713878 639.948238,144.327632 640.700195,145.299316 C641.452152,146.271001 642.658195,146.756836 644.318359,146.756836 C645.705085,146.756836 646.7915,146.195318 647.577637,145.072266 C648.363773,143.949213 648.756836,142.401377 648.756836,140.428711 C648.756836,138.426748 648.363773,136.891119 647.577637,135.821777 C646.7915,134.752436 645.685554,134.217773 644.259766,134.217773 Z M662.306641,148.792969 C659.933582,148.792969 658.061042,148.07032 656.688965,146.625 C655.316888,145.17968 654.630859,143.172864 654.630859,140.604492 C654.630859,138.016589 655.26806,135.960945 656.54248,134.4375 C657.816901,132.914055 659.52831,132.152344 661.676758,132.152344 C663.688487,132.152344 665.280268,132.813958 666.452148,134.137207 C667.624029,135.460456 668.209961,137.206044 668.209961,139.374023 L668.209961,140.912109 L657.150391,140.912109 C657.199219,142.796884 657.675288,144.227534 658.578613,145.204102 C659.481938,146.180669 660.753898,146.668945 662.394531,146.668945 C664.123056,146.668945 665.832023,146.307621 667.521484,145.584961 L667.521484,147.75293 C666.662105,148.124025 665.849125,148.390136 665.08252,148.55127 C664.315914,148.712403 663.39063,148.792969 662.306641,148.792969 Z M661.647461,134.188477 C660.358392,134.188477 659.33057,134.608394 658.563965,135.448242 C657.797359,136.28809 657.345704,137.450188 657.208984,138.93457 L665.602539,138.93457 C665.602539,137.40136 665.260746,136.227055 664.577148,135.411621 C663.893551,134.596187 662.916999,134.188477 661.647461,134.188477 Z M679.679688,132.152344 C680.392582,132.152344 681.032224,132.210937 681.598633,132.328125 L681.261719,134.583984 C680.597653,134.437499 680.011721,134.364258 679.503906,134.364258 C678.205072,134.364258 677.094243,134.891596 676.171387,135.946289 C675.248531,137.000982 674.787109,138.314445 674.787109,139.886719 L674.787109,148.5 L672.355469,148.5 L672.355469,132.445312 L674.362305,132.445312 L674.640625,135.418945 L674.757812,135.418945 C675.353519,134.374018 676.071285,133.568362 676.911133,133.001953 C677.750981,132.435544 678.673823,132.152344 679.679688,132.152344 Z" id="now-web-developer" fill="#2E2E2E" transform="translate(546.576660, 140.707031) rotate(-90.000000) translate(-546.576660, -140.707031) "></path>
        </g>
    </g>
</svg>