<?xml version="1.0" encoding="UTF-8"?>
<svg width="1494px" height="482px" viewBox="0 0 1494 482" version="1.1" xmlns="http://www.w3.org/2000/svg" xmlns:xlink="http://www.w3.org/1999/xlink">
    <!-- Generator: Sketch 46.2 (44496) - http://www.bohemiancoding.com/sketch -->
    <title>Artboard</title>
    <desc>Created with Sketch.</desc>
    <defs></defs>
    <g id="Page-3" stroke="none" stroke-width="1" fill="none" fill-rule="evenodd">
        <g id="Artboard">
            <path d="M30.0976562,324.107422 L55.2539062,384.864258 L79.8486328,324.107422 L109.272461,324.107422 L61.8798828,431.021484 L48.515625,431.021484 L0.44921875,324.107422 L30.0976562,324.107422 Z M161.269531,322.085938 C174.746161,322.085938 185.040655,324.949678 192.15332,330.677246 C199.265986,336.404814 202.822266,344.397084 202.822266,354.654297 L202.822266,405.977539 C202.822266,409.945658 204.43195,411.929688 207.651367,411.929688 C208.99903,411.929688 210.889474,411.349452 213.322754,410.188965 C215.756034,409.028477 217.796216,407.699552 219.443359,406.202148 L219.443359,422.149414 C209.785108,428.064157 200.950561,431.021484 192.939453,431.021484 C187.998022,431.021484 184.198418,430.197925 181.540527,428.550781 C178.882636,426.903638 177.029628,423.983745 175.981445,419.791016 C165.424752,427.278032 154.830782,431.021484 144.199219,431.021484 C136.637332,431.021484 130.142443,428.475937 124.714355,423.384766 C119.286268,418.293594 116.572266,412.191767 116.572266,405.079102 C116.572266,396.019811 119.267551,388.869818 124.658203,383.628906 C130.048855,378.387995 139.482354,373.820983 152.958984,369.927734 L175.307617,363.414062 L175.307617,358.584961 C175.307617,348.327748 169.093487,343.199219 156.665039,343.199219 C150.301075,343.199219 143.974641,344.659165 137.685547,347.579102 C131.396453,350.499038 125.668971,354.804008 120.50293,360.494141 L120.50293,335.674805 C131.958065,326.615515 145.546796,322.085938 161.269531,322.085938 Z M144.423828,400.923828 C144.423828,404.742207 145.64045,407.811837 148.07373,410.132812 C150.507011,412.453788 153.52049,413.614258 157.114258,413.614258 C163.178741,413.614258 169.243134,410.844103 175.307617,405.303711 L175.307617,377.676758 C167.59599,380.297214 161.550315,382.767892 157.17041,385.088867 C152.790505,387.409842 149.571137,389.768217 147.512207,392.164062 C145.453277,394.559908 144.423828,397.4798 144.423828,400.923828 Z M268.632812,322.085938 C274.397815,322.085938 279.825821,322.741042 284.916992,324.05127 C290.008163,325.361497 295.398735,327.439113 301.088867,330.28418 L301.088867,352.408203 C295.847956,349.039046 290.232777,346.325043 284.243164,344.266113 C278.253551,342.207184 272.900414,341.177734 268.183594,341.177734 C264.215475,341.177734 261.10841,341.926425 258.862305,343.423828 C256.6162,344.921231 255.493164,347.054999 255.493164,349.825195 C255.493164,351.397469 256.429027,352.969719 258.300781,354.541992 C260.172535,356.114266 265.301065,358.996724 273.686523,363.189453 C285.66575,369.253937 294.0698,374.850398 298.898926,379.979004 C303.728051,385.10761 306.142578,391.265589 306.142578,398.453125 C306.142578,408.560597 302.623733,416.515433 295.585938,422.317871 C288.548142,428.120309 279.039773,431.021484 267.060547,431.021484 C259.57353,431.021484 252.591992,430.197925 246.115723,428.550781 C239.639453,426.903638 234.267599,424.919608 230,422.598633 L230,399.576172 C243.47663,407.063188 254.81929,410.806641 264.02832,410.806641 C268.745141,410.806641 272.563462,409.964364 275.483398,408.279785 C278.403335,406.595206 279.863281,404.367852 279.863281,401.597656 C279.863281,399.950513 279.339198,398.453132 278.291016,397.105469 C277.242833,395.757806 275.670583,394.372728 273.574219,392.950195 C271.477854,391.527662 264.926813,388.121121 253.920898,382.730469 C245.46057,378.68748 239.209005,374.288924 235.166016,369.534668 C231.123027,364.780412 229.101562,359.146517 229.101562,352.632812 C229.101562,343.348912 232.732711,335.936877 239.995117,330.396484 C247.257523,324.856092 256.803326,322.085938 268.632812,322.085938 Z M342.192383,275.591797 C346.459982,275.591797 350.128565,277.126612 353.198242,280.196289 C356.267919,283.265966 357.802734,286.934549 357.802734,291.202148 C357.802734,295.320008 356.286636,298.969873 353.254395,302.151855 C350.222153,305.333838 346.534852,306.924805 342.192383,306.924805 C337.999654,306.924805 334.349788,305.333838 331.242676,302.151855 C328.135564,298.969873 326.582031,295.320008 326.582031,291.202148 C326.582031,286.859679 328.154281,283.172378 331.298828,280.140137 C334.443375,277.107895 338.074524,275.591797 342.192383,275.591797 Z M356.005859,324.107422 L356.005859,429 L328.378906,429 L328.378906,324.107422 L356.005859,324.107422 Z M413.056641,272.110352 L413.056641,429 L385.429688,429 L385.429688,272.110352 L413.056641,272.110352 Z M456.293945,275.591797 C460.561545,275.591797 464.230128,277.126612 467.299805,280.196289 C470.369481,283.265966 471.904297,286.934549 471.904297,291.202148 C471.904297,295.320008 470.388199,298.969873 467.355957,302.151855 C464.323715,305.333838 460.636415,306.924805 456.293945,306.924805 C452.101216,306.924805 448.45135,305.333838 445.344238,302.151855 C442.237126,298.969873 440.683594,295.320008 440.683594,291.202148 C440.683594,286.859679 442.255844,283.172378 445.400391,280.140137 C448.544938,277.107895 452.176086,275.591797 456.293945,275.591797 Z M470.107422,324.107422 L470.107422,429 L442.480469,429 L442.480469,324.107422 L470.107422,324.107422 Z M513.344727,275.591797 C517.612326,275.591797 521.280909,277.126612 524.350586,280.196289 C527.420263,283.265966 528.955078,286.934549 528.955078,291.202148 C528.955078,295.320008 527.43898,298.969873 524.406738,302.151855 C521.374497,305.333838 517.687196,306.924805 513.344727,306.924805 C509.151997,306.924805 505.502131,305.333838 502.39502,302.151855 C499.287908,298.969873 497.734375,295.320008 497.734375,291.202148 C497.734375,286.859679 499.306625,283.172378 502.451172,280.140137 C505.595719,277.107895 509.226867,275.591797 513.344727,275.591797 Z M527.158203,324.107422 L527.158203,429 L499.53125,429 L499.53125,324.107422 L527.158203,324.107422 Z M716.391602,324.107422 L716.391602,343.648438 L698.422852,343.648438 C701.342788,347.242205 703.382969,350.555161 704.543457,353.587402 C705.703945,356.619644 706.28418,359.895165 706.28418,363.414062 C706.28418,371.799521 703.13968,379.473598 696.850586,386.436523 C691.310194,392.501007 681.801825,396.431632 668.325195,398.228516 C661.062789,399.126958 656.252453,400.156407 653.894043,401.316895 C651.535633,402.477382 650.356445,404.255522 650.356445,406.651367 C650.356445,408.822602 651.797674,410.488438 654.680176,411.648926 C657.562677,412.809413 662.185841,413.913732 668.549805,414.961914 C684.34741,417.5075 695.970829,421.40069 703.42041,426.641602 C710.869992,431.882513 714.594727,438.8079 714.594727,447.417969 C714.594727,458.498753 710.065149,467.015107 701.005859,472.967285 C691.946569,478.919463 678.919356,481.895508 661.923828,481.895508 C645.826742,481.895508 633.024136,479.087919 623.515625,473.472656 C614.007114,467.857394 609.25293,460.333055 609.25293,450.899414 C609.25293,437.572525 618.424387,428.363632 636.767578,423.272461 C628.831341,419.828433 624.863281,415.298856 624.863281,409.683594 C624.863281,402.346317 630.852805,397.292657 642.832031,394.522461 L642.832031,394.073242 C634.671183,391.827137 628.176294,387.821643 623.347168,382.056641 C618.518042,376.291638 616.103516,369.553424 616.103516,361.841797 C616.103516,350.536402 620.371051,341.421096 628.90625,334.495605 C637.441449,327.570115 648.596936,324.107422 662.373047,324.107422 L716.391602,324.107422 Z M641.59668,362.066406 C641.59668,367.531928 643.524558,372.080223 647.380371,375.711426 C651.236185,379.342629 655.934217,381.158203 661.474609,381.158203 C667.164742,381.158203 671.844057,379.26776 675.512695,375.486816 C679.181333,371.705873 681.015625,366.932972 681.015625,361.167969 C681.015625,356.001927 679.106464,351.67824 675.288086,348.196777 C671.469707,344.715315 666.865261,342.974609 661.474609,342.974609 C655.934217,342.974609 651.236185,344.865053 647.380371,348.645996 C643.524558,352.426939 641.59668,356.900365 641.59668,362.066406 Z M634.970703,449.664062 C634.970703,459.022833 644.329333,463.702148 663.046875,463.702148 C671.132853,463.702148 677.478004,462.410657 682.08252,459.827637 C686.687035,457.244616 688.989258,453.856792 688.989258,449.664062 C688.989258,445.022112 686.387559,441.521984 681.184082,439.163574 C675.980605,436.805164 668.624722,435.625977 659.116211,435.625977 C652.003545,435.625977 646.201194,436.954902 641.708984,439.612793 C637.216774,442.270684 634.970703,445.621074 634.970703,449.664062 Z M784.335938,322.085938 C795.266982,322.085938 805.18713,324.369443 814.09668,328.936523 C823.006229,333.503604 829.894181,339.904907 834.760742,348.140625 C839.627303,356.376343 842.060547,365.697539 842.060547,376.104492 C842.060547,386.960666 839.720889,396.469035 835.041504,404.629883 C830.362119,412.790731 823.474167,419.229469 814.377441,423.946289 C805.280716,428.66311 795.266982,431.021484 784.335938,431.021484 C773.330023,431.021484 763.335006,428.66311 754.350586,423.946289 C745.366166,419.229469 738.534366,412.790731 733.85498,404.629883 C729.175595,396.469035 726.835938,386.960666 726.835938,376.104492 C726.835938,365.547799 729.306616,356.170451 734.248047,347.972168 C739.189478,339.773885 746.07743,333.410016 754.912109,328.880371 C763.746789,324.350726 773.554634,322.085938 784.335938,322.085938 Z M755.810547,376.104492 C755.810547,386.586315 758.374812,394.952931 763.503418,401.20459 C768.632024,407.456249 775.501259,410.582031 784.111328,410.582031 C793.095748,410.582031 800.170873,407.58727 805.336914,401.597656 C810.502956,395.608043 813.085938,387.035538 813.085938,375.879883 C813.085938,365.248319 810.484238,357.031442 805.280762,351.229004 C800.077285,345.426566 793.020878,342.525391 784.111328,342.525391 C775.72587,342.525391 768.912787,345.595021 763.671875,351.734375 C758.430963,357.873729 755.810547,365.99702 755.810547,376.104492 Z M924.155273,322.085938 C927.823912,322.085938 931.436343,322.909497 934.992676,324.556641 C938.549009,326.203784 942.685523,328.973939 947.402344,332.867188 L937.519531,357.012695 C929.508423,351.023082 923.069686,348.02832 918.203125,348.02832 C913.935526,348.02832 909.724142,349.619287 905.568848,352.80127 C901.413553,355.983252 898.081881,360.194635 895.57373,365.435547 C893.06558,370.676458 891.811523,375.917292 891.811523,381.158203 L891.811523,429 L864.18457,429 L864.18457,324.107422 L891.811523,324.107422 L891.811523,350.835938 L892.260742,350.835938 C897.277043,340.728465 902.330704,333.410016 907.421875,328.880371 C912.513046,324.350726 918.09079,322.085938 924.155273,322.085938 Z M975.029297,275.591797 C979.296896,275.591797 982.965479,277.126612 986.035156,280.196289 C989.104833,283.265966 990.639648,286.934549 990.639648,291.202148 C990.639648,295.320008 989.12355,298.969873 986.091309,302.151855 C983.059067,305.333838 979.371767,306.924805 975.029297,306.924805 C970.836568,306.924805 967.186702,305.333838 964.07959,302.151855 C960.972478,298.969873 959.418945,295.320008 959.418945,291.202148 C959.418945,286.859679 960.991195,283.172378 964.135742,280.140137 C967.280289,277.107895 970.911438,275.591797 975.029297,275.591797 Z M988.842773,324.107422 L988.842773,429 L961.21582,429 L961.21582,324.107422 L988.842773,324.107422 Z M1043.98438,324.107422 L1043.98438,389.019531 C1043.98438,395.832716 1045.68765,401.017398 1049.09424,404.57373 C1052.50083,408.130063 1057.01169,409.908203 1062.62695,409.908203 C1067.2689,409.908203 1071.72361,408.485691 1075.99121,405.640625 C1080.25881,402.795559 1083.70279,398.790065 1086.32324,393.624023 L1086.32324,324.107422 L1113.9502,324.107422 L1113.9502,429 L1086.32324,429 L1086.32324,414.737305 C1076.36551,425.593479 1065.58437,431.021484 1053.97949,431.021484 C1042.74897,431.021484 1033.68981,427.352901 1026.80176,420.015625 C1019.9137,412.678349 1016.46973,403.095111 1016.46973,391.265625 L1016.46973,324.107422 L1043.98438,324.107422 Z M1202.33398,322.085938 C1213.56451,322.085938 1222.53008,325.773238 1229.23096,333.147949 C1235.93184,340.522661 1239.28223,350.236919 1239.28223,362.291016 L1239.28223,429 L1211.76758,429 L1211.76758,365.098633 C1211.76758,358.285448 1210.13918,352.894877 1206.88232,348.926758 C1203.62547,344.958639 1199.18948,342.974609 1193.57422,342.974609 C1189.30662,342.974609 1185.30113,344.228666 1181.55762,346.736816 C1177.81411,349.244967 1173.69631,353.418916 1169.2041,359.258789 L1169.2041,429 L1141.57715,429 L1141.57715,324.107422 L1169.2041,324.107422 L1169.2041,338.819336 C1174.29527,332.829723 1179.51739,328.54347 1184.87061,325.960449 C1190.22382,323.377428 1196.04489,322.085938 1202.33398,322.085938 Z M1318.00781,322.085938 C1328.93886,322.085938 1338.859,324.369443 1347.76855,328.936523 C1356.6781,333.503604 1363.56606,339.904907 1368.43262,348.140625 C1373.29918,356.376343 1375.73242,365.697539 1375.73242,376.104492 C1375.73242,386.960666 1373.39276,396.469035 1368.71338,404.629883 C1364.03399,412.790731 1357.14604,419.229469 1348.04932,423.946289 C1338.95259,428.66311 1328.93886,431.021484 1318.00781,431.021484 C1307.0019,431.021484 1297.00688,428.66311 1288.02246,423.946289 C1279.03804,419.229469 1272.20624,412.790731 1267.52686,404.629883 C1262.84747,396.469035 1260.50781,386.960666 1260.50781,376.104492 C1260.50781,365.547799 1262.97849,356.170451 1267.91992,347.972168 C1272.86135,339.773885 1279.7493,333.410016 1288.58398,328.880371 C1297.41866,324.350726 1307.22651,322.085938 1318.00781,322.085938 Z M1289.48242,376.104492 C1289.48242,386.586315 1292.04669,394.952931 1297.17529,401.20459 C1302.3039,407.456249 1309.17313,410.582031 1317.7832,410.582031 C1326.76762,410.582031 1333.84275,407.58727 1339.00879,401.597656 C1344.17483,395.608043 1346.75781,387.035538 1346.75781,375.879883 C1346.75781,365.248319 1344.15611,357.031442 1338.95264,351.229004 C1333.74916,345.426566 1326.69275,342.525391 1317.7832,342.525391 C1309.39774,342.525391 1302.58466,345.595021 1297.34375,351.734375 C1292.10284,357.873729 1289.48242,365.99702 1289.48242,376.104492 Z M1414.14062,324.107422 L1439.29688,384.864258 L1463.8916,324.107422 L1493.31543,324.107422 L1445.92285,431.021484 L1432.55859,431.021484 L1384.49219,324.107422 L1414.14062,324.107422 Z" id="vasilii-goriunov" fill="#EBEBEB"></path>
            <path d="M318.551758,206.685547 L318.844727,206.685547 L318.844727,210.318359 L323.532227,210.318359 L323.532227,213.042969 L318.844727,213.042969 L318.844727,219.356445 C318.844727,219.971683 319.030272,220.469725 319.401367,220.850586 C319.772463,221.231447 320.28027,221.421875 320.924805,221.421875 C321.764653,221.421875 322.73144,221.119144 323.825195,220.513672 L323.825195,223.399414 C322.526361,223.975589 321.30567,224.263672 320.163086,224.263672 C318.620109,224.263672 317.416508,223.843754 316.552246,223.003906 C315.687984,222.164058 315.255859,221.026374 315.255859,219.59082 L315.255859,213.042969 L313.117188,213.042969 L313.117188,212.457031 L318.551758,206.685547 Z M332.658203,210.054688 C334.083992,210.054688 335.377924,210.352536 336.540039,210.948242 C337.702154,211.543948 338.600583,212.378901 339.235352,213.453125 C339.87012,214.527349 340.1875,215.743157 340.1875,217.100586 C340.1875,218.516609 339.882327,219.756831 339.271973,220.821289 C338.661618,221.885748 337.76319,222.725583 336.57666,223.34082 C335.390131,223.956058 334.083992,224.263672 332.658203,224.263672 C331.222649,224.263672 329.918951,223.956058 328.74707,223.34082 C327.575189,222.725583 326.684085,221.885748 326.07373,220.821289 C325.463376,219.756831 325.158203,218.516609 325.158203,217.100586 C325.158203,215.723626 325.480466,214.500494 326.125,213.431152 C326.769534,212.361811 327.667963,211.531741 328.820312,210.940918 C329.972662,210.350095 331.251946,210.054688 332.658203,210.054688 Z M328.9375,217.100586 C328.9375,218.46778 329.271969,219.559078 329.940918,220.374512 C330.609867,221.189945 331.505854,221.597656 332.628906,221.597656 C333.800787,221.597656 334.723629,221.207035 335.397461,220.425781 C336.071292,219.644527 336.408203,218.526374 336.408203,217.071289 C336.408203,215.684563 336.068851,214.612797 335.390137,213.855957 C334.711422,213.099117 333.791021,212.720703 332.628906,212.720703 C331.535151,212.720703 330.646488,213.12109 329.962891,213.921875 C329.279293,214.72266 328.9375,215.78222 328.9375,217.100586 Z M350.998047,210.054688 C352.05274,210.054688 352.943844,210.301267 353.671387,210.794434 C354.398929,211.2876 354.943358,211.949215 355.304688,212.779297 C356.076176,211.832027 356.845211,211.141115 357.611816,210.706543 C358.378422,210.27197 359.220699,210.054688 360.138672,210.054688 C361.583992,210.054688 362.750972,210.525874 363.639648,211.468262 C364.528325,212.410649 364.972656,213.667961 364.972656,215.240234 L364.972656,224 L361.369141,224 L361.369141,215.84082 C361.369141,214.89355 361.166506,214.146487 360.76123,213.599609 C360.355955,213.052732 359.767582,212.779297 358.996094,212.779297 C357.892573,212.779297 356.833013,213.487298 355.817383,214.90332 L355.817383,224 L352.228516,224 L352.228516,215.782227 C352.228516,214.844722 352.013674,214.109866 351.583984,213.577637 C351.154295,213.045407 350.578129,212.779297 349.855469,212.779297 C349.269528,212.779297 348.732424,212.947752 348.244141,213.284668 C347.755857,213.621584 347.233401,214.161129 346.676758,214.90332 L346.676758,224 L343.073242,224 L343.073242,210.318359 L346.676758,210.318359 L346.676758,212.237305 C347.331058,211.495113 347.995114,210.945803 348.668945,210.589355 C349.342777,210.232908 350.119136,210.054688 350.998047,210.054688 Z" id="tom" fill="#FF0073" transform="translate(339.044922, 215.474609) rotate(-90.000000) translate(-339.044922, -215.474609) "></path>
            <path d="M362.363281,137.763672 L351.743164,137.763672 C351.713867,137.998048 351.699219,138.232421 351.699219,138.466797 C351.699219,139.970711 352.236323,141.245112 353.310547,142.290039 C354.384771,143.334966 355.65429,143.857422 357.119141,143.857422 C358.828134,143.857422 360.498039,143.188483 362.128906,141.850586 L362.128906,143.476562 C360.58593,144.667975 358.857431,145.263672 356.943359,145.263672 C354.99999,145.263672 353.393561,144.58985 352.124023,143.242188 C350.854486,141.894525 350.219727,140.180674 350.219727,138.100586 C350.219727,136.12792 350.805658,134.494635 351.977539,133.200684 C353.14942,131.906732 354.624015,131.259766 356.401367,131.259766 C358.071297,131.259766 359.482416,131.843256 360.634766,133.010254 C361.787115,134.177252 362.363281,135.761709 362.363281,137.763672 Z M351.933594,136.606445 L360.664062,136.606445 C360.156247,133.979479 358.735363,132.666016 356.401367,132.666016 C355.297846,132.666016 354.343266,133.01025 353.537598,133.69873 C352.73193,134.38721 352.197267,135.356439 351.933594,136.606445 Z M370.712891,139.09668 L365.424805,145 L363.564453,145 L369.716797,138.100586 L363.564453,131.523438 L365.424805,131.523438 L370.712891,137.104492 L375.986328,131.523438 L377.84668,131.523438 L371.665039,138.100586 L377.84668,145 L375.986328,145 L370.712891,139.09668 Z M395.366211,132.402344 L395.366211,133.955078 C393.999017,133.037105 392.76856,132.578125 391.674805,132.578125 C390.864254,132.578125 390.180667,132.797849 389.624023,133.237305 C389.06738,133.67676 388.789062,134.218747 388.789062,134.863281 C388.789062,135.322268 388.957518,135.744627 389.294434,136.130371 C389.631349,136.516115 390.563957,137.00195 392.092285,137.587891 C393.620613,138.173831 394.619138,138.784177 395.087891,139.418945 C395.556643,140.053714 395.791016,140.761715 395.791016,141.542969 C395.791016,142.587896 395.366215,143.469235 394.516602,144.187012 C393.666988,144.904789 392.617194,145.263672 391.367188,145.263672 C390.009759,145.263672 388.662116,144.85352 387.324219,144.033203 L387.324219,142.626953 C388.916024,143.44727 390.327142,143.857422 391.557617,143.857422 C392.387699,143.857422 393.068845,143.637698 393.601074,143.198242 C394.133303,142.758787 394.399414,142.197269 394.399414,141.513672 C394.399414,141.04492 394.226076,140.612795 393.879395,140.217285 C393.532713,139.821775 392.595222,139.321292 391.066895,138.71582 C389.538567,138.110349 388.547366,137.51221 388.093262,136.921387 C387.639158,136.330563 387.412109,135.673832 387.412109,134.951172 C387.412109,133.925776 387.834468,133.054203 388.679199,132.336426 C389.52393,131.618649 390.551752,131.259766 391.762695,131.259766 C392.866216,131.259766 394.067376,131.640621 395.366211,132.402344 Z M400.039062,131.523438 L400.039062,132.285156 C401.396491,131.601559 402.749017,131.259766 404.09668,131.259766 C406.010752,131.259766 407.59765,131.918939 408.857422,133.237305 C410.117194,134.555671 410.74707,136.21581 410.74707,138.217773 C410.74707,140.19044 410.097663,141.857903 408.798828,143.220215 C407.499994,144.582526 405.913095,145.263672 404.038086,145.263672 C402.739251,145.263672 401.406257,144.926761 400.039062,144.25293 L400.039062,151.899414 L398.603516,151.899414 L398.603516,131.523438 L400.039062,131.523438 Z M400.039062,133.662109 L400.039062,142.84668 C401.259772,143.520511 402.499994,143.857422 403.759766,143.857422 C405.371102,143.857422 406.6748,143.349614 407.670898,142.333984 C408.666997,141.318354 409.165039,139.98536 409.165039,138.334961 C409.165039,136.694328 408.637701,135.339361 407.583008,134.27002 C406.528315,133.200678 405.195321,132.666016 403.583984,132.666016 C402.431635,132.666016 401.250006,132.998044 400.039062,133.662109 Z M424.633789,142.65625 L424.633789,143.857422 C423.393548,144.794927 422.485354,145.263672 421.90918,145.263672 C421.577147,145.263672 421.347657,145.15381 421.220703,144.934082 C421.093749,144.714354 421.000977,144.267581 420.942383,143.59375 C419.52636,144.707037 418.120124,145.263672 416.723633,145.263672 C415.708003,145.263672 414.848636,144.931644 414.145508,144.267578 C413.442379,143.603512 413.09082,142.797856 413.09082,141.850586 C413.09082,140.385735 413.769524,139.230961 415.126953,138.38623 C416.484382,137.5415 418.422839,137.055665 420.942383,136.928711 L420.942383,135.214844 C420.942383,133.378897 419.946299,132.460938 417.954102,132.460938 C416.684564,132.460938 415.312507,133.032221 413.837891,134.174805 L413.837891,132.695312 C415.361336,131.738276 416.811517,131.259766 418.188477,131.259766 C419.409186,131.259766 420.415035,131.560056 421.206055,132.160645 C421.997074,132.761233 422.392578,133.632807 422.392578,134.775391 L422.392578,143.168945 C422.392578,143.627932 422.499999,143.857422 422.714844,143.857422 C422.988283,143.857422 423.627925,143.457035 424.633789,142.65625 Z M420.942383,142.333984 L420.942383,138.129883 C419.09667,138.061523 417.565924,138.386227 416.350098,139.104004 C415.134271,139.821781 414.526367,140.737299 414.526367,141.850586 C414.526367,142.475589 414.780271,143.002928 415.288086,143.432617 C415.795901,143.862307 416.43066,144.077148 417.192383,144.077148 C418.422858,144.077148 419.672845,143.4961 420.942383,142.333984 Z M436.176758,131.918945 L436.176758,133.515625 C434.887689,132.949216 433.720708,132.666016 432.675781,132.666016 C431.171867,132.666016 429.948735,133.188471 429.006348,134.233398 C428.06396,135.278326 427.592773,136.635734 427.592773,138.305664 C427.592773,140.004891 428.06396,141.354975 429.006348,142.355957 C429.948735,143.356939 431.21093,143.857422 432.792969,143.857422 C433.945318,143.857422 435.156244,143.598635 436.425781,143.081055 L436.425781,144.575195 C435.078118,145.034182 433.828131,145.263672 432.675781,145.263672 C430.703115,145.263672 429.108893,144.638678 427.893066,143.388672 C426.67724,142.138666 426.069336,140.498057 426.069336,138.466797 C426.069336,136.347646 426.682123,134.616706 427.907715,133.273926 C429.133307,131.931146 430.698233,131.259766 432.602539,131.259766 C433.647466,131.259766 434.83886,131.47949 436.176758,131.918945 Z M450.664062,137.763672 L440.043945,137.763672 C440.014648,137.998048 440,138.232421 440,138.466797 C440,139.970711 440.537104,141.245112 441.611328,142.290039 C442.685552,143.334966 443.955071,143.857422 445.419922,143.857422 C447.128915,143.857422 448.79882,143.188483 450.429688,141.850586 L450.429688,143.476562 C448.886711,144.667975 447.158213,145.263672 445.244141,145.263672 C443.300772,145.263672 441.694342,144.58985 440.424805,143.242188 C439.155267,141.894525 438.520508,140.180674 438.520508,138.100586 C438.520508,136.12792 439.106439,134.494635 440.27832,133.200684 C441.450201,131.906732 442.924796,131.259766 444.702148,131.259766 C446.372079,131.259766 447.783197,131.843256 448.935547,133.010254 C450.087896,134.177252 450.664062,135.761709 450.664062,137.763672 Z M440.234375,136.606445 L448.964844,136.606445 C448.457029,133.979479 447.036144,132.666016 444.702148,132.666016 C443.598627,132.666016 442.644047,133.01025 441.838379,133.69873 C441.032711,134.38721 440.498048,135.356439 440.234375,136.606445 Z M473.369141,137.763672 L462.749023,137.763672 C462.719726,137.998048 462.705078,138.232421 462.705078,138.466797 C462.705078,139.970711 463.242182,141.245112 464.316406,142.290039 C465.39063,143.334966 466.660149,143.857422 468.125,143.857422 C469.833993,143.857422 471.503898,143.188483 473.134766,141.850586 L473.134766,143.476562 C471.591789,144.667975 469.863291,145.263672 467.949219,145.263672 C466.00585,145.263672 464.39942,144.58985 463.129883,143.242188 C461.860345,141.894525 461.225586,140.180674 461.225586,138.100586 C461.225586,136.12792 461.811518,134.494635 462.983398,133.200684 C464.155279,131.906732 465.629874,131.259766 467.407227,131.259766 C469.077157,131.259766 470.488275,131.843256 471.640625,133.010254 C472.792975,134.177252 473.369141,135.761709 473.369141,137.763672 Z M462.939453,136.606445 L471.669922,136.606445 C471.162107,133.979479 469.741223,132.666016 467.407227,132.666016 C466.303705,132.666016 465.349125,133.01025 464.543457,133.69873 C463.737789,134.38721 463.203126,135.356439 462.939453,136.606445 Z M477.69043,131.523438 L477.69043,133.867188 L477.749023,133.867188 C478.872076,132.128898 480.351553,131.259766 482.1875,131.259766 C483.710945,131.259766 484.926753,131.748042 485.834961,132.724609 C486.743169,133.701177 487.197266,135.053702 487.197266,136.782227 L487.197266,145 L485.761719,145 L485.761719,137.324219 C485.761719,134.218734 484.541028,132.666016 482.099609,132.666016 C480.312491,132.666016 478.842779,133.62792 477.69043,135.551758 L477.69043,145 L476.254883,145 L476.254883,131.523438 L477.69043,131.523438 Z M501.611328,131.523438 L501.611328,132.695312 L498.549805,132.695312 C499.790045,133.828131 500.410156,135.019525 500.410156,136.269531 C500.410156,137.392584 500.168459,138.281247 499.685059,138.935547 C499.201658,139.589847 498.625492,140.065916 497.956543,140.36377 C497.287594,140.661623 496.39649,140.954588 495.283203,141.242676 C494.169916,141.530763 493.471681,141.801757 493.188477,142.055664 C492.905272,142.309572 492.763672,142.602537 492.763672,142.93457 C492.763672,143.325197 492.946776,143.637694 493.312988,143.87207 C493.679201,144.106446 494.816885,144.277343 496.726074,144.384766 C498.635263,144.492188 499.921872,144.858395 500.585938,145.483398 C501.250003,146.108402 501.582031,146.938471 501.582031,147.973633 C501.582031,149.194342 501.04981,150.153805 499.985352,150.852051 C498.920893,151.550296 497.441416,151.899414 495.546875,151.899414 C493.6621,151.899414 492.207036,151.569828 491.181641,150.910645 C490.156245,150.251462 489.643555,149.379888 489.643555,148.295898 C489.643555,146.538077 490.952135,145.449221 493.569336,145.029297 L493.569336,144.970703 C492.114251,144.628905 491.386719,143.989262 491.386719,143.051758 C491.386719,142.104487 492.285147,141.372073 494.082031,140.854492 L494.082031,140.795898 C492.900385,140.444334 492.004398,139.860844 491.394043,139.04541 C490.783688,138.229976 490.478516,137.324224 490.478516,136.328125 C490.478516,134.912102 490.971675,133.757329 491.958008,132.86377 C492.944341,131.97021 494.360342,131.523438 496.206055,131.523438 L501.611328,131.523438 Z M495.429688,139.902344 C496.416021,139.902344 497.26318,139.548343 497.971191,138.840332 C498.679203,138.132321 499.033203,137.285161 499.033203,136.298828 C499.033203,135.312495 498.679203,134.470218 497.971191,133.771973 C497.26318,133.073727 496.406255,132.724609 495.400391,132.724609 C494.404292,132.724609 493.564457,133.066403 492.880859,133.75 C492.197262,134.433597 491.855469,135.263667 491.855469,136.240234 C491.855469,137.255864 492.202145,138.120114 492.895508,138.833008 C493.588871,139.545902 494.433589,139.902344 495.429688,139.902344 Z M495.634766,150.698242 C497.031257,150.698242 498.142086,150.458987 498.967285,149.980469 C499.792485,149.501951 500.205078,148.872074 500.205078,148.09082 C500.205078,146.508781 498.774428,145.717773 495.913086,145.717773 C492.651351,145.717773 491.020508,146.547843 491.020508,148.208008 C491.020508,149.868172 492.558578,150.698242 495.634766,150.698242 Z M505.449219,124.536133 L505.449219,126.99707 L503.999023,126.99707 L503.999023,124.536133 L505.449219,124.536133 Z M505.449219,131.523438 L505.449219,145 L503.999023,145 L503.999023,131.523438 L505.449219,131.523438 Z M510.839844,131.523438 L510.839844,133.867188 L510.898438,133.867188 C512.02149,132.128898 513.500967,131.259766 515.336914,131.259766 C516.860359,131.259766 518.076167,131.748042 518.984375,132.724609 C519.892583,133.701177 520.34668,135.053702 520.34668,136.782227 L520.34668,145 L518.911133,145 L518.911133,137.324219 C518.911133,134.218734 517.690442,132.666016 515.249023,132.666016 C513.461905,132.666016 511.992193,133.62792 510.839844,135.551758 L510.839844,145 L509.404297,145 L509.404297,131.523438 L510.839844,131.523438 Z M535.595703,137.763672 L524.975586,137.763672 C524.946289,137.998048 524.931641,138.232421 524.931641,138.466797 C524.931641,139.970711 525.468745,141.245112 526.542969,142.290039 C527.617193,143.334966 528.886711,143.857422 530.351562,143.857422 C532.060555,143.857422 533.730461,143.188483 535.361328,141.850586 L535.361328,143.476562 C533.818352,144.667975 532.089853,145.263672 530.175781,145.263672 C528.232412,145.263672 526.625983,144.58985 525.356445,143.242188 C524.086908,141.894525 523.452148,140.180674 523.452148,138.100586 C523.452148,136.12792 524.03808,134.494635 525.209961,133.200684 C526.381842,131.906732 527.856436,131.259766 529.633789,131.259766 C531.303719,131.259766 532.714838,131.843256 533.867188,133.010254 C535.019537,134.177252 535.595703,135.761709 535.595703,137.763672 Z M525.166016,136.606445 L533.896484,136.606445 C533.388669,133.979479 531.967785,132.666016 529.633789,132.666016 C528.530268,132.666016 527.575688,133.01025 526.77002,133.69873 C525.964351,134.38721 525.429689,135.356439 525.166016,136.606445 Z M549.96582,137.763672 L539.345703,137.763672 C539.316406,137.998048 539.301758,138.232421 539.301758,138.466797 C539.301758,139.970711 539.838862,141.245112 540.913086,142.290039 C541.98731,143.334966 543.256829,143.857422 544.72168,143.857422 C546.430673,143.857422 548.100578,143.188483 549.731445,141.850586 L549.731445,143.476562 C548.188469,144.667975 546.459971,145.263672 544.545898,145.263672 C542.602529,145.263672 540.9961,144.58985 539.726562,143.242188 C538.457025,141.894525 537.822266,140.180674 537.822266,138.100586 C537.822266,136.12792 538.408197,134.494635 539.580078,133.200684 C540.751959,131.906732 542.226554,131.259766 544.003906,131.259766 C545.673836,131.259766 547.084955,131.843256 548.237305,133.010254 C549.389654,134.177252 549.96582,135.761709 549.96582,137.763672 Z M539.536133,136.606445 L548.266602,136.606445 C547.758787,133.979479 546.337902,132.666016 544.003906,132.666016 C542.900385,132.666016 541.945805,133.01025 541.140137,133.69873 C540.334469,134.38721 539.799806,135.356439 539.536133,136.606445 Z M562.182617,132.856445 L561.347656,134.204102 C560.224604,133.178706 559.321292,132.666016 558.637695,132.666016 C557.290032,132.666016 555.849617,133.955065 554.316406,136.533203 L554.316406,145 L552.880859,145 L552.880859,131.523438 L554.316406,131.523438 L554.316406,135.068359 L554.375,135.068359 C555.986336,132.529284 557.558586,131.259766 559.091797,131.259766 C559.970708,131.259766 561.000971,131.791987 562.182617,132.856445 Z" id="ex-space-engineer" fill="#ACACAC" transform="translate(456.201172, 138.217773) rotate(-90.000000) translate(-456.201172, -138.217773) "></path>
            <path d="M395.879883,117.523438 L395.879883,119.237305 C397.071295,117.918939 398.423821,117.259766 399.9375,117.259766 C400.777348,117.259766 401.55859,117.477049 402.28125,117.911621 C403.00391,118.346194 403.553221,118.941891 403.929199,119.69873 C404.305178,120.45557 404.493164,121.654289 404.493164,123.294922 L404.493164,131 L401.827148,131 L401.827148,123.324219 C401.827148,121.947259 401.61719,120.963382 401.197266,120.372559 C400.777342,119.781735 400.074224,119.486328 399.087891,119.486328 C397.828119,119.486328 396.758793,120.116205 395.879883,121.375977 L395.879883,131 L393.155273,131 L393.155273,117.523438 L395.879883,117.523438 Z M414.65918,117.494141 C416.709971,117.494141 418.414056,118.155755 419.771484,119.479004 C421.128913,120.802253 421.807617,122.464834 421.807617,124.466797 C421.807617,126.410166 421.119148,128.023919 419.742188,129.308105 C418.365227,130.592292 416.631846,131.234375 414.541992,131.234375 C412.520498,131.234375 410.831061,130.582526 409.473633,129.278809 C408.116204,127.975091 407.4375,126.346689 407.4375,124.393555 C407.4375,122.420889 408.123528,120.777839 409.495605,119.464355 C410.867683,118.150872 412.588857,117.494141 414.65918,117.494141 Z M414.512695,119.896484 C413.233392,119.896484 412.183598,120.316402 411.363281,121.15625 C410.542965,121.996098 410.132812,123.065423 410.132812,124.364258 C410.132812,125.653327 410.55273,126.705562 411.392578,127.520996 C412.232426,128.33643 413.311517,128.744141 414.629883,128.744141 C415.938483,128.744141 417.01025,128.331547 417.845215,127.506348 C418.68018,126.681148 419.097656,125.62403 419.097656,124.334961 C419.097656,123.055658 418.66309,121.996098 417.793945,121.15625 C416.9248,120.316402 415.831061,119.896484 414.512695,119.896484 Z M441.304688,117.523438 L444.161133,117.523438 L438.213867,131.234375 L437.378906,131.234375 L433.379883,121.844727 L429.454102,131.234375 L428.589844,131.234375 L422.583984,117.523438 L425.44043,117.523438 L428.970703,125.697266 L432.398438,117.523438 L434.375977,117.523438 L437.789062,125.697266 L441.304688,117.523438 Z M471.216797,117.523438 L474.073242,117.523438 L468.125977,131.234375 L467.291016,131.234375 L463.291992,121.844727 L459.366211,131.234375 L458.501953,131.234375 L452.496094,117.523438 L455.352539,117.523438 L458.882812,125.697266 L462.310547,117.523438 L464.288086,117.523438 L467.701172,125.697266 L471.216797,117.523438 Z M486.84668,124.496094 L477.369141,124.496094 C477.4375,125.785163 477.869625,126.810543 478.665527,127.572266 C479.46143,128.333988 480.489252,128.714844 481.749023,128.714844 C483.506845,128.714844 485.127922,128.167974 486.612305,127.074219 L486.612305,129.681641 C485.791988,130.228518 484.979008,130.619139 484.17334,130.853516 C483.367672,131.087892 482.422857,131.205078 481.338867,131.205078 C479.854485,131.205078 478.653325,130.897464 477.735352,130.282227 C476.817378,129.666989 476.082522,128.839361 475.530762,127.799316 C474.979001,126.759272 474.703125,125.555671 474.703125,124.188477 C474.703125,122.137685 475.284174,120.470221 476.446289,119.186035 C477.608404,117.901849 479.117178,117.259766 480.972656,117.259766 C482.759775,117.259766 484.185542,117.884759 485.25,119.134766 C486.314458,120.384772 486.84668,122.05956 486.84668,124.15918 L486.84668,124.496094 Z M477.427734,122.899414 L484.209961,122.899414 C484.141601,121.834956 483.824222,121.014651 483.257812,120.438477 C482.691403,119.862302 481.929692,119.574219 480.972656,119.574219 C480.01562,119.574219 479.231937,119.862302 478.621582,120.438477 C478.011227,121.014651 477.613282,121.834956 477.427734,122.899414 Z M489.615234,110.536133 L492.28125,110.536133 L492.28125,118.490234 C493.4336,117.650386 494.664056,117.230469 495.972656,117.230469 C497.681649,117.230469 499.07812,117.874994 500.162109,119.164062 C501.246099,120.453131 501.788086,122.108388 501.788086,124.129883 C501.788086,126.297862 501.14112,128.023919 499.847168,129.308105 C498.553216,130.592292 496.822276,131.234375 494.654297,131.234375 C493.785152,131.234375 492.869634,131.141602 491.907715,130.956055 C490.945796,130.770507 490.181643,130.536134 489.615234,130.25293 L489.615234,110.536133 Z M492.28125,121.039062 L492.28125,128.333984 C493.189458,128.607423 494.122066,128.744141 495.079102,128.744141 C496.260748,128.744141 497.225094,128.324223 497.972168,127.484375 C498.719242,126.644527 499.092773,125.565436 499.092773,124.24707 C499.092773,122.909173 498.743656,121.820317 498.04541,120.980469 C497.347164,120.140621 496.436529,119.720703 495.313477,119.720703 C494.317378,119.720703 493.306646,120.160152 492.28125,121.039062 Z M522.061523,110.536133 L524.742188,110.536133 L524.742188,131 L519.043945,131 C517.051748,131 515.462408,130.370123 514.275879,129.110352 C513.08935,127.85058 512.496094,126.161143 512.496094,124.041992 C512.496094,122.05956 513.118646,120.428717 514.36377,119.149414 C515.608893,117.870111 517.198233,117.230469 519.131836,117.230469 C520.030278,117.230469 521.006831,117.420897 522.061523,117.801758 L522.061523,110.536133 Z M522.061523,128.714844 L522.061523,120.174805 C521.231441,119.754881 520.391606,119.544922 519.541992,119.544922 C518.213861,119.544922 517.156742,119.979488 516.370605,120.848633 C515.584469,121.717778 515.191406,122.889641 515.191406,124.364258 C515.191406,125.750983 515.5332,126.820309 516.216797,127.572266 C516.626955,128.021487 517.061521,128.324218 517.520508,128.480469 C517.979494,128.63672 518.804682,128.714844 519.996094,128.714844 L522.061523,128.714844 Z M539.844727,124.496094 L530.367188,124.496094 C530.435547,125.785163 530.867672,126.810543 531.663574,127.572266 C532.459477,128.333988 533.487298,128.714844 534.74707,128.714844 C536.504892,128.714844 538.125969,128.167974 539.610352,127.074219 L539.610352,129.681641 C538.790035,130.228518 537.977055,130.619139 537.171387,130.853516 C536.365719,131.087892 535.420904,131.205078 534.336914,131.205078 C532.852532,131.205078 531.651372,130.897464 530.733398,130.282227 C529.815425,129.666989 529.080569,128.839361 528.528809,127.799316 C527.977048,126.759272 527.701172,125.555671 527.701172,124.188477 C527.701172,122.137685 528.282221,120.470221 529.444336,119.186035 C530.606451,117.901849 532.115225,117.259766 533.970703,117.259766 C535.757821,117.259766 537.183588,117.884759 538.248047,119.134766 C539.312505,120.384772 539.844727,122.05956 539.844727,124.15918 L539.844727,124.496094 Z M530.425781,122.899414 L537.208008,122.899414 C537.139648,121.834956 536.822268,121.014651 536.255859,120.438477 C535.68945,119.862302 534.927739,119.574219 533.970703,119.574219 C533.013667,119.574219 532.229984,119.862302 531.619629,120.438477 C531.009274,121.014651 530.611329,121.834956 530.425781,122.899414 Z M550.523438,117.523438 L553.40918,117.523438 L547.461914,131.234375 L546.568359,131.234375 L540.474609,117.523438 L543.389648,117.523438 L547.022461,125.814453 L550.523438,117.523438 Z M566.299805,124.496094 L556.822266,124.496094 C556.890625,125.785163 557.32275,126.810543 558.118652,127.572266 C558.914555,128.333988 559.942377,128.714844 561.202148,128.714844 C562.95997,128.714844 564.581047,128.167974 566.06543,127.074219 L566.06543,129.681641 C565.245113,130.228518 564.432133,130.619139 563.626465,130.853516 C562.820797,131.087892 561.875982,131.205078 560.791992,131.205078 C559.30761,131.205078 558.10645,130.897464 557.188477,130.282227 C556.270503,129.666989 555.535647,128.839361 554.983887,127.799316 C554.432126,126.759272 554.15625,125.555671 554.15625,124.188477 C554.15625,122.137685 554.737299,120.470221 555.899414,119.186035 C557.061529,117.901849 558.570303,117.259766 560.425781,117.259766 C562.2129,117.259766 563.638667,117.884759 564.703125,119.134766 C565.767583,120.384772 566.299805,122.05956 566.299805,124.15918 L566.299805,124.496094 Z M556.880859,122.899414 L563.663086,122.899414 C563.594726,121.834956 563.277347,121.014651 562.710938,120.438477 C562.144528,119.862302 561.382817,119.574219 560.425781,119.574219 C559.468745,119.574219 558.685062,119.862302 558.074707,120.438477 C557.464352,121.014651 557.066407,121.834956 556.880859,122.899414 Z M569.244141,110.536133 L571.910156,110.536133 L571.910156,131 L569.244141,131 L569.244141,110.536133 Z M582.208008,117.494141 C584.258799,117.494141 585.962884,118.155755 587.320312,119.479004 C588.677741,120.802253 589.356445,122.464834 589.356445,124.466797 C589.356445,126.410166 588.667976,128.023919 587.291016,129.308105 C585.914056,130.592292 584.180675,131.234375 582.09082,131.234375 C580.069326,131.234375 578.37989,130.582526 577.022461,129.278809 C575.665032,127.975091 574.986328,126.346689 574.986328,124.393555 C574.986328,122.420889 575.672356,120.777839 577.044434,119.464355 C578.416511,118.150872 580.137685,117.494141 582.208008,117.494141 Z M582.061523,119.896484 C580.78222,119.896484 579.732426,120.316402 578.912109,121.15625 C578.091793,121.996098 577.681641,123.065423 577.681641,124.364258 C577.681641,125.653327 578.101558,126.705562 578.941406,127.520996 C579.781254,128.33643 580.860345,128.744141 582.178711,128.744141 C583.487311,128.744141 584.559078,128.331547 585.394043,127.506348 C586.229008,126.681148 586.646484,125.62403 586.646484,124.334961 C586.646484,123.055658 586.211918,121.996098 585.342773,121.15625 C584.473628,120.316402 583.379889,119.896484 582.061523,119.896484 Z M592.139648,137.870117 L592.139648,117.523438 L596.8125,117.523438 C599.20509,117.523438 601.067864,118.119135 602.400879,119.310547 C603.733893,120.501959 604.400391,122.166981 604.400391,124.305664 C604.400391,126.327159 603.772955,127.987298 602.518066,129.286133 C601.263177,130.584967 599.664072,131.234375 597.720703,131.234375 C596.861324,131.234375 595.909185,131.043947 594.864258,130.663086 L594.864258,137.870117 L592.139648,137.870117 Z M596.753906,120.013672 L594.864258,120.013672 L594.864258,128.304688 C595.684574,128.724611 596.543941,128.93457 597.442383,128.93457 C598.692389,128.93457 599.715328,128.500004 600.51123,127.630859 C601.307133,126.761714 601.705078,125.643562 601.705078,124.276367 C601.705078,123.397457 601.517092,122.621097 601.141113,121.947266 C600.765135,121.273434 600.252445,120.782716 599.603027,120.475098 C598.95361,120.167479 598.003913,120.013672 596.753906,120.013672 Z M618.799805,124.496094 L609.322266,124.496094 C609.390625,125.785163 609.82275,126.810543 610.618652,127.572266 C611.414555,128.333988 612.442377,128.714844 613.702148,128.714844 C615.45997,128.714844 617.081047,128.167974 618.56543,127.074219 L618.56543,129.681641 C617.745113,130.228518 616.932133,130.619139 616.126465,130.853516 C615.320797,131.087892 614.375982,131.205078 613.291992,131.205078 C611.80761,131.205078 610.60645,130.897464 609.688477,130.282227 C608.770503,129.666989 608.035647,128.839361 607.483887,127.799316 C606.932126,126.759272 606.65625,125.555671 606.65625,124.188477 C606.65625,122.137685 607.237299,120.470221 608.399414,119.186035 C609.561529,117.901849 611.070303,117.259766 612.925781,117.259766 C614.7129,117.259766 616.138667,117.884759 617.203125,119.134766 C618.267583,120.384772 618.799805,122.05956 618.799805,124.15918 L618.799805,124.496094 Z M609.380859,122.899414 L616.163086,122.899414 C616.094726,121.834956 615.777347,121.014651 615.210938,120.438477 C614.644528,119.862302 613.882817,119.574219 612.925781,119.574219 C611.968745,119.574219 611.185062,119.862302 610.574707,120.438477 C609.964352,121.014651 609.566407,121.834956 609.380859,122.899414 Z M624.541992,117.523438 L624.541992,120.614258 L624.688477,120.379883 C625.977546,118.299794 627.266595,117.259766 628.555664,117.259766 C629.561528,117.259766 630.611323,117.767573 631.705078,118.783203 L630.298828,121.126953 C629.371089,120.248042 628.511723,119.808594 627.720703,119.808594 C626.861324,119.808594 626.116702,120.218746 625.486816,121.039062 C624.85693,121.859379 624.541992,122.831049 624.541992,123.954102 L624.541992,131 L621.861328,131 L621.861328,117.523438 L624.541992,117.523438 Z" id="now-web-developer" fill="#2E2E2E" transform="translate(512.430176, 124.203125) rotate(-90.000000) translate(-512.430176, -124.203125) "></path>
        </g>
    </g>
</svg>