<?xml version="1.0" encoding="UTF-8"?>
<svg width="1494px" height="293px" viewBox="0 0 1494 293" version="1.1" xmlns="http://www.w3.org/2000/svg" xmlns:xlink="http://www.w3.org/1999/xlink">
    <!-- Generator: Sketch 46.2 (44496) - http://www.bohemiancoding.com/sketch -->
    <title>Artboard</title>
    <desc>Created with Sketch.</desc>
    <defs></defs>
    <g id="Page-3" stroke="none" stroke-width="1" fill="none" fill-rule="evenodd">
        <g id="Artboard">
            <path d="M30.0976562,135.107422 L55.2539062,195.864258 L79.8486328,135.107422 L109.272461,135.107422 L61.8798828,242.021484 L48.515625,242.021484 L0.44921875,135.107422 L30.0976562,135.107422 Z M161.269531,133.085938 C174.746161,133.085938 185.040655,135.949678 192.15332,141.677246 C199.265986,147.404814 202.822266,155.397084 202.822266,165.654297 L202.822266,216.977539 C202.822266,220.945658 204.43195,222.929687 207.651367,222.929687 C208.99903,222.929687 210.889474,222.349452 213.322754,221.188965 C215.756034,220.028477 217.796216,218.699552 219.443359,217.202148 L219.443359,233.149414 C209.785108,239.064157 200.950561,242.021484 192.939453,242.021484 C187.998022,242.021484 184.198418,241.197925 181.540527,239.550781 C178.882636,237.903638 177.029628,234.983745 175.981445,230.791016 C165.424752,238.278032 154.830782,242.021484 144.199219,242.021484 C136.637332,242.021484 130.142443,239.475937 124.714355,234.384766 C119.286268,229.293594 116.572266,223.191767 116.572266,216.079102 C116.572266,207.019811 119.267551,199.869818 124.658203,194.628906 C130.048855,189.387995 139.482354,184.820983 152.958984,180.927734 L175.307617,174.414062 L175.307617,169.584961 C175.307617,159.327748 169.093487,154.199219 156.665039,154.199219 C150.301075,154.199219 143.974641,155.659165 137.685547,158.579102 C131.396453,161.499038 125.668971,165.804008 120.50293,171.494141 L120.50293,146.674805 C131.958065,137.615515 145.546796,133.085938 161.269531,133.085938 Z M144.423828,211.923828 C144.423828,215.742207 145.64045,218.811837 148.07373,221.132812 C150.507011,223.453788 153.52049,224.614258 157.114258,224.614258 C163.178741,224.614258 169.243134,221.844103 175.307617,216.303711 L175.307617,188.676758 C167.59599,191.297214 161.550315,193.767892 157.17041,196.088867 C152.790505,198.409842 149.571137,200.768217 147.512207,203.164062 C145.453277,205.559908 144.423828,208.4798 144.423828,211.923828 Z M268.632812,133.085938 C274.397815,133.085938 279.825821,133.741042 284.916992,135.05127 C290.008163,136.361497 295.398735,138.439113 301.088867,141.28418 L301.088867,163.408203 C295.847956,160.039046 290.232777,157.325043 284.243164,155.266113 C278.253551,153.207184 272.900414,152.177734 268.183594,152.177734 C264.215475,152.177734 261.10841,152.926425 258.862305,154.423828 C256.6162,155.921231 255.493164,158.054999 255.493164,160.825195 C255.493164,162.397469 256.429027,163.969719 258.300781,165.541992 C260.172535,167.114266 265.301065,169.996724 273.686523,174.189453 C285.66575,180.253937 294.0698,185.850398 298.898926,190.979004 C303.728051,196.10761 306.142578,202.265589 306.142578,209.453125 C306.142578,219.560597 302.623733,227.515433 295.585938,233.317871 C288.548142,239.120309 279.039773,242.021484 267.060547,242.021484 C259.57353,242.021484 252.591992,241.197925 246.115723,239.550781 C239.639453,237.903638 234.267599,235.919608 230,233.598633 L230,210.576172 C243.47663,218.063188 254.81929,221.806641 264.02832,221.806641 C268.745141,221.806641 272.563462,220.964364 275.483398,219.279785 C278.403335,217.595206 279.863281,215.367852 279.863281,212.597656 C279.863281,210.950513 279.339198,209.453132 278.291016,208.105469 C277.242833,206.757806 275.670583,205.372728 273.574219,203.950195 C271.477854,202.527662 264.926813,199.121121 253.920898,193.730469 C245.46057,189.68748 239.209005,185.288924 235.166016,180.534668 C231.123027,175.780412 229.101562,170.146517 229.101562,163.632812 C229.101562,154.348912 232.732711,146.936877 239.995117,141.396484 C247.257523,135.856092 256.803326,133.085938 268.632812,133.085938 Z M342.192383,86.5917969 C346.459982,86.5917969 350.128565,88.1266123 353.198242,91.1962891 C356.267919,94.2659659 357.802734,97.934549 357.802734,102.202148 C357.802734,106.320008 356.286636,109.969873 353.254395,113.151855 C350.222153,116.333838 346.534852,117.924805 342.192383,117.924805 C337.999654,117.924805 334.349788,116.333838 331.242676,113.151855 C328.135564,109.969873 326.582031,106.320008 326.582031,102.202148 C326.582031,97.8596788 328.154281,94.1723784 331.298828,91.1401367 C334.443375,88.107895 338.074524,86.5917969 342.192383,86.5917969 Z M356.005859,135.107422 L356.005859,240 L328.378906,240 L328.378906,135.107422 L356.005859,135.107422 Z M413.056641,83.1103516 L413.056641,240 L385.429688,240 L385.429688,83.1103516 L413.056641,83.1103516 Z M456.293945,86.5917969 C460.561545,86.5917969 464.230128,88.1266123 467.299805,91.1962891 C470.369481,94.2659659 471.904297,97.934549 471.904297,102.202148 C471.904297,106.320008 470.388199,109.969873 467.355957,113.151855 C464.323715,116.333838 460.636415,117.924805 456.293945,117.924805 C452.101216,117.924805 448.45135,116.333838 445.344238,113.151855 C442.237126,109.969873 440.683594,106.320008 440.683594,102.202148 C440.683594,97.8596788 442.255844,94.1723784 445.400391,91.1401367 C448.544938,88.107895 452.176086,86.5917969 456.293945,86.5917969 Z M470.107422,135.107422 L470.107422,240 L442.480469,240 L442.480469,135.107422 L470.107422,135.107422 Z M513.344727,86.5917969 C517.612326,86.5917969 521.280909,88.1266123 524.350586,91.1962891 C527.420263,94.2659659 528.955078,97.934549 528.955078,102.202148 C528.955078,106.320008 527.43898,109.969873 524.406738,113.151855 C521.374497,116.333838 517.687196,117.924805 513.344727,117.924805 C509.151997,117.924805 505.502131,116.333838 502.39502,113.151855 C499.287908,109.969873 497.734375,106.320008 497.734375,102.202148 C497.734375,97.8596788 499.306625,94.1723784 502.451172,91.1401367 C505.595719,88.107895 509.226867,86.5917969 513.344727,86.5917969 Z M527.158203,135.107422 L527.158203,240 L499.53125,240 L499.53125,135.107422 L527.158203,135.107422 Z M716.391602,135.107422 L716.391602,154.648438 L698.422852,154.648438 C701.342788,158.242205 703.382969,161.555161 704.543457,164.587402 C705.703945,167.619644 706.28418,170.895165 706.28418,174.414062 C706.28418,182.799521 703.13968,190.473598 696.850586,197.436523 C691.310194,203.501007 681.801825,207.431632 668.325195,209.228516 C661.062789,210.126958 656.252453,211.156407 653.894043,212.316895 C651.535633,213.477382 650.356445,215.255522 650.356445,217.651367 C650.356445,219.822602 651.797674,221.488438 654.680176,222.648926 C657.562677,223.809413 662.185841,224.913732 668.549805,225.961914 C684.34741,228.5075 695.970829,232.40069 703.42041,237.641602 C710.869992,242.882513 714.594727,249.8079 714.594727,258.417969 C714.594727,269.498753 710.065149,278.015107 701.005859,283.967285 C691.946569,289.919463 678.919356,292.895508 661.923828,292.895508 C645.826742,292.895508 633.024136,290.087919 623.515625,284.472656 C614.007114,278.857394 609.25293,271.333055 609.25293,261.899414 C609.25293,248.572525 618.424387,239.363632 636.767578,234.272461 C628.831341,230.828433 624.863281,226.298856 624.863281,220.683594 C624.863281,213.346317 630.852805,208.292657 642.832031,205.522461 L642.832031,205.073242 C634.671183,202.827137 628.176294,198.821643 623.347168,193.056641 C618.518042,187.291638 616.103516,180.553424 616.103516,172.841797 C616.103516,161.536402 620.371051,152.421096 628.90625,145.495605 C637.441449,138.570115 648.596936,135.107422 662.373047,135.107422 L716.391602,135.107422 Z M641.59668,173.066406 C641.59668,178.531928 643.524558,183.080223 647.380371,186.711426 C651.236185,190.342629 655.934217,192.158203 661.474609,192.158203 C667.164742,192.158203 671.844057,190.26776 675.512695,186.486816 C679.181333,182.705873 681.015625,177.932972 681.015625,172.167969 C681.015625,167.001927 679.106464,162.67824 675.288086,159.196777 C671.469707,155.715315 666.865261,153.974609 661.474609,153.974609 C655.934217,153.974609 651.236185,155.865053 647.380371,159.645996 C643.524558,163.426939 641.59668,167.900365 641.59668,173.066406 Z M634.970703,260.664062 C634.970703,270.022833 644.329333,274.702148 663.046875,274.702148 C671.132853,274.702148 677.478004,273.410657 682.08252,270.827637 C686.687035,268.244616 688.989258,264.856792 688.989258,260.664062 C688.989258,256.022112 686.387559,252.521984 681.184082,250.163574 C675.980605,247.805164 668.624722,246.625977 659.116211,246.625977 C652.003545,246.625977 646.201194,247.954902 641.708984,250.612793 C637.216774,253.270684 634.970703,256.621074 634.970703,260.664062 Z M784.335938,133.085938 C795.266982,133.085938 805.18713,135.369443 814.09668,139.936523 C823.006229,144.503604 829.894181,150.904907 834.760742,159.140625 C839.627303,167.376343 842.060547,176.697539 842.060547,187.104492 C842.060547,197.960666 839.720889,207.469035 835.041504,215.629883 C830.362119,223.790731 823.474167,230.229469 814.377441,234.946289 C805.280716,239.66311 795.266982,242.021484 784.335938,242.021484 C773.330023,242.021484 763.335006,239.66311 754.350586,234.946289 C745.366166,230.229469 738.534366,223.790731 733.85498,215.629883 C729.175595,207.469035 726.835938,197.960666 726.835938,187.104492 C726.835938,176.547799 729.306616,167.170451 734.248047,158.972168 C739.189478,150.773885 746.07743,144.410016 754.912109,139.880371 C763.746789,135.350726 773.554634,133.085938 784.335938,133.085938 Z M755.810547,187.104492 C755.810547,197.586315 758.374812,205.952931 763.503418,212.20459 C768.632024,218.456249 775.501259,221.582031 784.111328,221.582031 C793.095748,221.582031 800.170873,218.58727 805.336914,212.597656 C810.502956,206.608043 813.085938,198.035538 813.085938,186.879883 C813.085938,176.248319 810.484238,168.031442 805.280762,162.229004 C800.077285,156.426566 793.020878,153.525391 784.111328,153.525391 C775.72587,153.525391 768.912787,156.595021 763.671875,162.734375 C758.430963,168.873729 755.810547,176.99702 755.810547,187.104492 Z M924.155273,133.085938 C927.823912,133.085938 931.436343,133.909497 934.992676,135.556641 C938.549009,137.203784 942.685523,139.973939 947.402344,143.867188 L937.519531,168.012695 C929.508423,162.023082 923.069686,159.02832 918.203125,159.02832 C913.935526,159.02832 909.724142,160.619287 905.568848,163.80127 C901.413553,166.983252 898.081881,171.194635 895.57373,176.435547 C893.06558,181.676458 891.811523,186.917292 891.811523,192.158203 L891.811523,240 L864.18457,240 L864.18457,135.107422 L891.811523,135.107422 L891.811523,161.835938 L892.260742,161.835938 C897.277043,151.728465 902.330704,144.410016 907.421875,139.880371 C912.513046,135.350726 918.09079,133.085938 924.155273,133.085938 Z M975.029297,86.5917969 C979.296896,86.5917969 982.965479,88.1266123 986.035156,91.1962891 C989.104833,94.2659659 990.639648,97.934549 990.639648,102.202148 C990.639648,106.320008 989.12355,109.969873 986.091309,113.151855 C983.059067,116.333838 979.371767,117.924805 975.029297,117.924805 C970.836568,117.924805 967.186702,116.333838 964.07959,113.151855 C960.972478,109.969873 959.418945,106.320008 959.418945,102.202148 C959.418945,97.8596788 960.991195,94.1723784 964.135742,91.1401367 C967.280289,88.107895 970.911438,86.5917969 975.029297,86.5917969 Z M988.842773,135.107422 L988.842773,240 L961.21582,240 L961.21582,135.107422 L988.842773,135.107422 Z M1043.98438,135.107422 L1043.98438,200.019531 C1043.98438,206.832716 1045.68765,212.017398 1049.09424,215.57373 C1052.50083,219.130063 1057.01169,220.908203 1062.62695,220.908203 C1067.2689,220.908203 1071.72361,219.485691 1075.99121,216.640625 C1080.25881,213.795559 1083.70279,209.790065 1086.32324,204.624023 L1086.32324,135.107422 L1113.9502,135.107422 L1113.9502,240 L1086.32324,240 L1086.32324,225.737305 C1076.36551,236.593479 1065.58437,242.021484 1053.97949,242.021484 C1042.74897,242.021484 1033.68981,238.352901 1026.80176,231.015625 C1019.9137,223.678349 1016.46973,214.095111 1016.46973,202.265625 L1016.46973,135.107422 L1043.98438,135.107422 Z M1202.33398,133.085938 C1213.56451,133.085938 1222.53008,136.773238 1229.23096,144.147949 C1235.93184,151.522661 1239.28223,161.236919 1239.28223,173.291016 L1239.28223,240 L1211.76758,240 L1211.76758,176.098633 C1211.76758,169.285448 1210.13918,163.894877 1206.88232,159.926758 C1203.62547,155.958639 1199.18948,153.974609 1193.57422,153.974609 C1189.30662,153.974609 1185.30113,155.228666 1181.55762,157.736816 C1177.81411,160.244967 1173.69631,164.418916 1169.2041,170.258789 L1169.2041,240 L1141.57715,240 L1141.57715,135.107422 L1169.2041,135.107422 L1169.2041,149.819336 C1174.29527,143.829723 1179.51739,139.54347 1184.87061,136.960449 C1190.22382,134.377428 1196.04489,133.085938 1202.33398,133.085938 Z M1318.00781,133.085938 C1328.93886,133.085938 1338.859,135.369443 1347.76855,139.936523 C1356.6781,144.503604 1363.56606,150.904907 1368.43262,159.140625 C1373.29918,167.376343 1375.73242,176.697539 1375.73242,187.104492 C1375.73242,197.960666 1373.39276,207.469035 1368.71338,215.629883 C1364.03399,223.790731 1357.14604,230.229469 1348.04932,234.946289 C1338.95259,239.66311 1328.93886,242.021484 1318.00781,242.021484 C1307.0019,242.021484 1297.00688,239.66311 1288.02246,234.946289 C1279.03804,230.229469 1272.20624,223.790731 1267.52686,215.629883 C1262.84747,207.469035 1260.50781,197.960666 1260.50781,187.104492 C1260.50781,176.547799 1262.97849,167.170451 1267.91992,158.972168 C1272.86135,150.773885 1279.7493,144.410016 1288.58398,139.880371 C1297.41866,135.350726 1307.22651,133.085938 1318.00781,133.085938 Z M1289.48242,187.104492 C1289.48242,197.586315 1292.04669,205.952931 1297.17529,212.20459 C1302.3039,218.456249 1309.17313,221.582031 1317.7832,221.582031 C1326.76762,221.582031 1333.84275,218.58727 1339.00879,212.597656 C1344.17483,206.608043 1346.75781,198.035538 1346.75781,186.879883 C1346.75781,176.248319 1344.15611,168.031442 1338.95264,162.229004 C1333.74916,156.426566 1326.69275,153.525391 1317.7832,153.525391 C1309.39774,153.525391 1302.58466,156.595021 1297.34375,162.734375 C1292.10284,168.873729 1289.48242,176.99702 1289.48242,187.104492 Z M1414.14062,135.107422 L1439.29688,195.864258 L1463.8916,135.107422 L1493.31543,135.107422 L1445.92285,242.021484 L1432.55859,242.021484 L1384.49219,135.107422 L1414.14062,135.107422 Z" id="vasilii-goriunov" fill="#242424"></path>
            <path d="M318.551758,17.6855469 L318.844727,17.6855469 L318.844727,21.3183594 L323.532227,21.3183594 L323.532227,24.0429688 L318.844727,24.0429688 L318.844727,30.3564453 C318.844727,30.9716828 319.030272,31.4697247 319.401367,31.8505859 C319.772463,32.2314472 320.28027,32.421875 320.924805,32.421875 C321.764653,32.421875 322.73144,32.1191437 323.825195,31.5136719 L323.825195,34.3994141 C322.526361,34.9755888 321.30567,35.2636719 320.163086,35.2636719 C318.620109,35.2636719 317.416508,34.8437542 316.552246,34.0039062 C315.687984,33.1640583 315.255859,32.0263744 315.255859,30.5908203 L315.255859,24.0429688 L313.117188,24.0429688 L313.117188,23.4570312 L318.551758,17.6855469 Z M332.658203,21.0546875 C334.083992,21.0546875 335.377924,21.3525361 336.540039,21.9482422 C337.702154,22.5439483 338.600583,23.3789009 339.235352,24.453125 C339.87012,25.5273491 340.1875,26.7431573 340.1875,28.1005859 C340.1875,29.5166086 339.882327,30.7568306 339.271973,31.8212891 C338.661618,32.8857475 337.76319,33.7255829 336.57666,34.3408203 C335.390131,34.9560578 334.083992,35.2636719 332.658203,35.2636719 C331.222649,35.2636719 329.918951,34.9560578 328.74707,34.3408203 C327.575189,33.7255829 326.684085,32.8857475 326.07373,31.8212891 C325.463376,30.7568306 325.158203,29.5166086 325.158203,28.1005859 C325.158203,26.7236259 325.480466,25.5004936 326.125,24.4311523 C326.769534,23.3618111 327.667963,22.5317412 328.820312,21.940918 C329.972662,21.3500947 331.251946,21.0546875 332.658203,21.0546875 Z M328.9375,28.1005859 C328.9375,29.4677803 329.271969,30.559078 329.940918,31.3745117 C330.609867,32.1899455 331.505854,32.5976562 332.628906,32.5976562 C333.800787,32.5976562 334.723629,32.2070352 335.397461,31.4257812 C336.071292,30.6445273 336.408203,29.5263745 336.408203,28.0712891 C336.408203,26.6845634 336.068851,25.6127968 335.390137,24.855957 C334.711422,24.0991173 333.791021,23.7207031 332.628906,23.7207031 C331.535151,23.7207031 330.646488,24.1210897 329.962891,24.921875 C329.279293,25.7226603 328.9375,26.78222 328.9375,28.1005859 Z M350.998047,21.0546875 C352.05274,21.0546875 352.943844,21.3012671 353.671387,21.7944336 C354.398929,22.2876001 354.943358,22.9492146 355.304688,23.7792969 C356.076176,22.8320265 356.845211,22.1411155 357.611816,21.706543 C358.378422,21.2719705 359.220699,21.0546875 360.138672,21.0546875 C361.583992,21.0546875 362.750972,21.5258742 363.639648,22.4682617 C364.528325,23.4106492 364.972656,24.6679609 364.972656,26.2402344 L364.972656,35 L361.369141,35 L361.369141,26.8408203 C361.369141,25.89355 361.166506,25.1464871 360.76123,24.5996094 C360.355955,24.0527316 359.767582,23.7792969 358.996094,23.7792969 C357.892573,23.7792969 356.833013,24.4872976 355.817383,25.9033203 L355.817383,35 L352.228516,35 L352.228516,26.7822266 C352.228516,25.8447219 352.013674,25.1098659 351.583984,24.5776367 C351.154295,24.0454075 350.578129,23.7792969 349.855469,23.7792969 C349.269528,23.7792969 348.732424,23.9477522 348.244141,24.284668 C347.755857,24.6215837 347.233401,25.1611291 346.676758,25.9033203 L346.676758,35 L343.073242,35 L343.073242,21.3183594 L346.676758,21.3183594 L346.676758,23.2373047 C347.331058,22.4951135 347.995114,21.9458026 348.668945,21.5893555 C349.342777,21.2329084 350.119136,21.0546875 350.998047,21.0546875 Z" id="tom" fill="#FF0073" transform="translate(339.044922, 26.474609) rotate(-90.000000) translate(-339.044922, -26.474609) "></path>
        </g>
    </g>
</svg>