<?xml version="1.0" encoding="UTF-8"?>
<svg width="1515px" height="284px" viewBox="0 0 1515 284" version="1.1" xmlns="http://www.w3.org/2000/svg" xmlns:xlink="http://www.w3.org/1999/xlink">
    <!-- Generator: Sketch 46.2 (44496) - http://www.bohemiancoding.com/sketch -->
    <title>Artboard</title>
    <desc>Created with Sketch.</desc>
    <defs></defs>
    <g id="Page-3" stroke="none" stroke-width="1" fill="none" fill-rule="evenodd">
        <g id="Artboard">
            <path d="M41.6015625,235 L0,125.820312 L31.1523438,125.820312 L52.2460938,188.027344 C54.5898555,195.904987 56.0546846,203.35934 56.640625,210.390625 L57.2265625,210.390625 C57.552085,204.140594 59.0169141,196.686241 61.6210938,188.027344 L82.6171875,125.820312 L113.769531,125.820312 L72.1679688,235 L41.6015625,235 Z M198.730469,235 L192.96875,220.15625 L192.1875,220.15625 C187.174454,226.471386 182.015,230.849597 176.708984,233.291016 C171.402968,235.732434 164.48572,236.953125 155.957031,236.953125 C145.475208,236.953125 137.223337,233.958363 131.201172,227.96875 C125.179006,221.979137 122.167969,213.450576 122.167969,202.382812 C122.167969,190.794213 126.220663,182.249376 134.326172,176.748047 C142.431681,171.246717 154.654866,168.203128 170.996094,167.617188 L189.941406,167.03125 L189.941406,162.246094 C189.941406,151.17833 184.2774,145.644531 172.949219,145.644531 C164.225217,145.644531 153.971413,148.281224 142.1875,153.554688 L132.324219,133.4375 C144.889386,126.861946 158.821538,123.574219 174.121094,123.574219 C188.769604,123.574219 199.999961,126.764291 207.8125,133.144531 C215.625039,139.524771 219.53125,149.225195 219.53125,162.246094 L219.53125,235 L198.730469,235 Z M189.941406,184.414062 L178.417969,184.804688 C169.759071,185.065105 163.313823,186.62759 159.082031,189.492188 C154.850239,192.356785 152.734375,196.718721 152.734375,202.578125 C152.734375,210.976604 157.552035,215.175781 167.1875,215.175781 C174.088576,215.175781 179.606099,213.190124 183.740234,209.21875 C187.87437,205.247376 189.941406,199.973991 189.941406,193.398438 L189.941406,184.414062 Z M326.367188,202.578125 C326.367188,213.776098 322.477252,222.304658 314.697266,228.164062 C306.917279,234.023467 295.280025,236.953125 279.785156,236.953125 C271.842408,236.953125 265.071643,236.416021 259.472656,235.341797 C253.87367,234.267573 248.632837,232.688812 243.75,230.605469 L243.75,205.996094 C249.283882,208.600273 255.517543,210.781241 262.451172,212.539062 C269.3848,214.296884 275.488255,215.175781 280.761719,215.175781 C291.569064,215.175781 296.972656,212.050813 296.972656,205.800781 C296.972656,203.45702 296.256518,201.552742 294.824219,200.087891 C293.39192,198.62304 290.917986,196.9629 287.402344,195.107422 C283.886701,193.251944 279.199248,191.087252 273.339844,188.613281 C264.941364,185.097639 258.772806,181.842463 254.833984,178.847656 C250.895163,175.85285 248.030608,172.418639 246.240234,168.544922 C244.449861,164.671205 243.554688,159.902372 243.554688,154.238281 C243.554688,144.537712 247.314416,137.034532 254.833984,131.728516 C262.353553,126.4225 273.014254,123.769531 286.816406,123.769531 C299.967514,123.769531 312.760354,126.634086 325.195312,132.363281 L316.210938,153.847656 C310.74216,151.503895 305.631534,149.583341 300.878906,148.085938 C296.126278,146.588534 291.276066,145.839844 286.328125,145.839844 C277.539019,145.839844 273.144531,148.216122 273.144531,152.96875 C273.144531,155.638034 274.560533,157.949209 277.392578,159.902344 C280.224624,161.855479 286.425733,164.752585 295.996094,168.59375 C304.524782,172.044288 310.77472,175.266912 314.746094,178.261719 C318.717468,181.256525 321.647126,184.707012 323.535156,188.613281 C325.423187,192.519551 326.367188,197.174452 326.367188,202.578125 Z M348.339844,97.5976562 C348.339844,87.8970869 353.743436,83.046875 364.550781,83.046875 C375.358127,83.046875 380.761719,87.8970869 380.761719,97.5976562 C380.761719,102.220075 379.410821,105.817044 376.708984,108.388672 C374.007148,110.960299 369.954454,112.246094 364.550781,112.246094 C353.743436,112.246094 348.339844,107.36333 348.339844,97.5976562 Z M379.394531,235 L349.609375,235 L349.609375,125.820312 L379.394531,125.820312 L379.394531,235 Z M440.429688,235 L410.644531,235 L410.644531,83.046875 L440.429688,83.046875 L440.429688,235 Z M470.410156,97.5976562 C470.410156,87.8970869 475.813748,83.046875 486.621094,83.046875 C497.428439,83.046875 502.832031,87.8970869 502.832031,97.5976562 C502.832031,102.220075 501.481133,105.817044 498.779297,108.388672 C496.07746,110.960299 492.024767,112.246094 486.621094,112.246094 C475.813748,112.246094 470.410156,107.36333 470.410156,97.5976562 Z M501.464844,235 L471.679688,235 L471.679688,125.820312 L501.464844,125.820312 L501.464844,235 Z M531.445312,97.5976562 C531.445312,87.8970869 536.848904,83.046875 547.65625,83.046875 C558.463596,83.046875 563.867188,87.8970869 563.867188,97.5976562 C563.867188,102.220075 562.51629,105.817044 559.814453,108.388672 C557.112617,110.960299 553.059923,112.246094 547.65625,112.246094 C536.848904,112.246094 531.445312,107.36333 531.445312,97.5976562 Z M562.5,235 L532.714844,235 L532.714844,125.820312 L562.5,125.820312 L562.5,235 Z M740.722656,125.820312 L740.722656,140.957031 L723.632812,145.351562 C726.757828,150.234399 728.320312,155.703095 728.320312,161.757812 C728.320312,173.476621 724.235067,182.607389 716.064453,189.150391 C707.893839,195.693392 696.549552,198.964844 682.03125,198.964844 L676.660156,198.671875 L672.265625,198.183594 C669.205714,200.527355 667.675781,203.131496 667.675781,205.996094 C667.675781,210.29299 673.144477,212.441406 684.082031,212.441406 L702.636719,212.441406 C714.615945,212.441406 723.746713,215.012995 730.029297,220.15625 C736.31188,225.299505 739.453125,232.851513 739.453125,242.8125 C739.453125,255.57298 734.130913,265.468715 723.486328,272.5 C712.841744,279.531285 697.558693,283.046875 677.636719,283.046875 C662.402268,283.046875 650.765014,280.393907 642.724609,275.087891 C634.684205,269.781875 630.664062,262.343798 630.664062,252.773438 C630.664062,246.197884 632.714823,240.696637 636.816406,236.269531 C640.917989,231.842426 646.940064,228.684905 654.882812,226.796875 C651.822901,225.494785 649.153657,223.362645 646.875,220.400391 C644.596343,217.438136 643.457031,214.296892 643.457031,210.976562 C643.457031,206.809875 644.661446,203.343113 647.070312,200.576172 C649.479179,197.809231 652.962217,195.091159 657.519531,192.421875 C651.790336,189.947904 647.249366,185.97659 643.896484,180.507812 C640.543603,175.039035 638.867188,168.593787 638.867188,161.171875 C638.867188,149.257753 642.740847,140.045605 650.488281,133.535156 C658.235716,127.024707 669.303313,123.769531 683.691406,123.769531 C686.751317,123.769531 690.380838,124.046221 694.580078,124.599609 C698.779318,125.152998 701.464838,125.559895 702.636719,125.820312 L740.722656,125.820312 Z M656.445312,250.429688 C656.445312,254.531271 658.414694,257.753895 662.353516,260.097656 C666.292337,262.441418 671.80986,263.613281 678.90625,263.613281 C689.583387,263.613281 697.949188,262.148452 704.003906,259.21875 C710.058624,256.289048 713.085938,252.285182 713.085938,247.207031 C713.085938,243.105448 711.295591,240.273445 707.714844,238.710938 C704.134097,237.14843 698.600298,236.367188 691.113281,236.367188 L675.683594,236.367188 C670.214816,236.367188 665.641294,237.652982 661.962891,240.224609 C658.284487,242.796237 656.445312,246.197896 656.445312,250.429688 Z M667.285156,161.5625 C667.285156,167.487009 668.636054,172.174462 671.337891,175.625 C674.039727,179.075538 678.157524,180.800781 683.691406,180.800781 C689.290393,180.800781 693.391914,179.075538 695.996094,175.625 C698.600273,172.174462 699.902344,167.487009 699.902344,161.5625 C699.902344,148.411393 694.498752,141.835938 683.691406,141.835938 C672.753852,141.835938 667.285156,148.411393 667.285156,161.5625 Z M782.421875,180.214844 C782.421875,191.022189 784.195946,199.192681 787.744141,204.726562 C791.292335,210.260444 797.070272,213.027344 805.078125,213.027344 C813.020873,213.027344 818.733707,210.27672 822.216797,204.775391 C825.699887,199.274061 827.441406,191.087294 827.441406,180.214844 C827.441406,169.407498 825.683611,161.30211 822.167969,155.898438 C818.652326,150.494765 812.890665,147.792969 804.882812,147.792969 C796.940064,147.792969 791.210955,150.478489 787.695312,155.849609 C784.17967,161.22073 782.421875,169.342394 782.421875,180.214844 Z M857.910156,180.214844 C857.910156,197.98837 853.222703,211.887971 843.847656,221.914062 C834.472609,231.940154 821.419354,236.953125 804.6875,236.953125 C794.205677,236.953125 784.960978,234.658226 776.953125,230.068359 C768.945272,225.478493 762.79299,218.886762 758.496094,210.292969 C754.199197,201.699176 752.050781,191.673234 752.050781,180.214844 C752.050781,162.376213 756.705683,148.509164 766.015625,138.613281 C775.325567,128.717398 788.411374,123.769531 805.273438,123.769531 C815.755261,123.769531 824.99996,126.048154 833.007812,130.605469 C841.015665,135.162783 847.167947,141.705687 851.464844,150.234375 C855.76174,158.763063 857.910156,168.756453 857.910156,180.214844 Z M943.457031,123.769531 C947.49351,123.769531 950.846341,124.062497 953.515625,124.648438 L951.269531,152.578125 C948.860665,151.92708 945.931007,151.601562 942.480469,151.601562 C932.975213,151.601562 925.569688,154.042944 920.263672,158.925781 C914.957656,163.808618 912.304688,170.644487 912.304688,179.433594 L912.304688,235 L882.519531,235 L882.519531,125.820312 L905.078125,125.820312 L909.472656,144.179688 L910.9375,144.179688 C914.322934,138.059865 918.896456,133.128274 924.658203,129.384766 C930.419951,125.641257 936.686164,123.769531 943.457031,123.769531 Z M972.070312,97.5976562 C972.070312,87.8970869 977.473904,83.046875 988.28125,83.046875 C999.088596,83.046875 1004.49219,87.8970869 1004.49219,97.5976562 C1004.49219,102.220075 1003.14129,105.817044 1000.43945,108.388672 C997.737617,110.960299 993.684923,112.246094 988.28125,112.246094 C977.473904,112.246094 972.070312,107.36333 972.070312,97.5976562 Z M1003.125,235 L973.339844,235 L973.339844,125.820312 L1003.125,125.820312 L1003.125,235 Z M1111.71875,235 L1107.71484,221.035156 L1106.15234,221.035156 C1102.96222,226.113307 1098.43753,230.035793 1092.57812,232.802734 C1086.71872,235.569675 1080.04561,236.953125 1072.55859,236.953125 C1059.73301,236.953125 1050.06514,233.518915 1043.55469,226.650391 C1037.04424,219.781867 1033.78906,209.902408 1033.78906,197.011719 L1033.78906,125.820312 L1063.57422,125.820312 L1063.57422,189.589844 C1063.57422,197.467487 1064.97394,203.375631 1067.77344,207.314453 C1070.57293,211.253275 1075.03252,213.222656 1081.15234,213.222656 C1089.48572,213.222656 1095.50779,210.439481 1099.21875,204.873047 C1102.92971,199.306613 1104.78516,190.078189 1104.78516,177.1875 L1104.78516,125.820312 L1134.57031,125.820312 L1134.57031,235 L1111.71875,235 Z M1266.60156,235 L1236.81641,235 L1236.81641,171.230469 C1236.81641,163.352825 1235.41668,157.444681 1232.61719,153.505859 C1229.81769,149.567038 1225.3581,147.597656 1219.23828,147.597656 C1210.90491,147.597656 1204.88283,150.380832 1201.17188,155.947266 C1197.46092,161.5137 1195.60547,170.742123 1195.60547,183.632812 L1195.60547,235 L1165.82031,235 L1165.82031,125.820312 L1188.57422,125.820312 L1192.57812,139.785156 L1194.23828,139.785156 C1197.55861,134.511692 1202.13213,130.524102 1207.95898,127.822266 C1213.78584,125.120429 1220.41012,123.769531 1227.83203,123.769531 C1240.52741,123.769531 1250.16273,127.203742 1256.73828,134.072266 C1263.31383,140.94079 1266.60156,150.8528 1266.60156,163.808594 L1266.60156,235 Z M1320.99609,180.214844 C1320.99609,191.022189 1322.77016,199.192681 1326.31836,204.726562 C1329.86655,210.260444 1335.64449,213.027344 1343.65234,213.027344 C1351.59509,213.027344 1357.30793,210.27672 1360.79102,204.775391 C1364.27411,199.274061 1366.01562,191.087294 1366.01562,180.214844 C1366.01562,169.407498 1364.25783,161.30211 1360.74219,155.898438 C1357.22654,150.494765 1351.46488,147.792969 1343.45703,147.792969 C1335.51428,147.792969 1329.78517,150.478489 1326.26953,155.849609 C1322.75389,161.22073 1320.99609,169.342394 1320.99609,180.214844 Z M1396.48438,180.214844 C1396.48438,197.98837 1391.79692,211.887971 1382.42188,221.914062 C1373.04683,231.940154 1359.99357,236.953125 1343.26172,236.953125 C1332.7799,236.953125 1323.5352,234.658226 1315.52734,230.068359 C1307.51949,225.478493 1301.36721,218.886762 1297.07031,210.292969 C1292.77342,201.699176 1290.625,191.673234 1290.625,180.214844 C1290.625,162.376213 1295.2799,148.509164 1304.58984,138.613281 C1313.89979,128.717398 1326.98559,123.769531 1343.84766,123.769531 C1354.32948,123.769531 1363.57418,126.048154 1371.58203,130.605469 C1379.58988,135.162783 1385.74217,141.705687 1390.03906,150.234375 C1394.33596,158.763063 1396.48438,168.756453 1396.48438,180.214844 Z M1443.06641,235 L1401.46484,125.820312 L1432.61719,125.820312 L1453.71094,188.027344 C1456.0547,195.904987 1457.51953,203.35934 1458.10547,210.390625 L1458.69141,210.390625 C1459.01693,204.140594 1460.48176,196.686241 1463.08594,188.027344 L1484.08203,125.820312 L1515.23438,125.820312 L1473.63281,235 L1443.06641,235 Z" id="vasilii-goriunov" fill="#282828"></path>
            <path d="M338.496094,35.5097656 C339.335942,35.5097656 340.175777,35.377931 341.015625,35.1142578 L341.015625,37.7070312 C340.634764,37.8730477 340.144046,38.0122065 339.543457,38.1245117 C338.942868,38.236817 338.320316,38.2929688 337.675781,38.2929688 C334.414046,38.2929688 332.783203,36.5742359 332.783203,33.1367188 L332.783203,24.40625 L330.571289,24.40625 L330.571289,22.8828125 L332.944336,21.6230469 L334.116211,18.1953125 L336.240234,18.1953125 L336.240234,21.7988281 L340.854492,21.7988281 L340.854492,24.40625 L336.240234,24.40625 L336.240234,33.078125 C336.240234,33.9082073 336.447752,34.5209941 336.862793,34.9165039 C337.277834,35.3120137 337.822262,35.5097656 338.496094,35.5097656 Z M358.623047,29.8701172 C358.623047,32.5166148 357.944343,34.5820238 356.586914,36.0664062 C355.229485,37.5507887 353.339856,38.2929688 350.917969,38.2929688 C349.404289,38.2929688 348.066412,37.9511753 346.904297,37.2675781 C345.742182,36.583981 344.848636,35.6025455 344.223633,34.3232422 C343.59863,33.0439389 343.286133,31.5595788 343.286133,29.8701172 C343.286133,27.2431509 343.959954,25.1923902 345.307617,23.7177734 C346.65528,22.2431567 348.554675,21.5058594 351.005859,21.5058594 C353.349621,21.5058594 355.205071,22.2602464 356.572266,23.769043 C357.93946,25.2778396 358.623047,27.3115106 358.623047,29.8701172 Z M346.831055,29.8701172 C346.831055,33.6103703 348.212877,35.4804688 350.976562,35.4804688 C353.710951,35.4804688 355.078125,33.6103703 355.078125,29.8701172 C355.078125,26.1689268 353.701186,24.3183594 350.947266,24.3183594 C349.501946,24.3183594 348.454593,24.7968702 347.805176,25.7539062 C347.155758,26.7109423 346.831055,28.0829989 346.831055,29.8701172 Z M376.230469,38 L372.773438,38 L372.773438,28.0097656 C372.773438,26.769525 372.539065,25.8442413 372.070312,25.2338867 C371.60156,24.6235321 370.869146,24.3183594 369.873047,24.3183594 C368.544915,24.3183594 367.570804,24.750484 366.950684,25.6147461 C366.330563,26.4790082 366.020508,27.9169821 366.020508,29.9287109 L366.020508,38 L362.578125,38 L362.578125,21.7988281 L365.273438,21.7988281 L365.756836,23.9228516 L365.932617,23.9228516 C366.381838,23.1513633 367.033687,22.5556662 367.888184,22.1357422 C368.74268,21.7158182 369.682612,21.5058594 370.708008,21.5058594 C373.198255,21.5058594 374.848629,22.3554603 375.65918,24.0546875 L375.893555,24.0546875 C376.372073,23.2539022 377.045894,22.6289085 377.915039,22.1796875 C378.784184,21.7304665 379.780268,21.5058594 380.90332,21.5058594 C382.836924,21.5058594 384.245601,21.9941357 385.129395,22.9707031 C386.013188,23.9472705 386.455078,25.4365134 386.455078,27.4384766 L386.455078,38 L383.012695,38 L383.012695,28.0097656 C383.012695,26.769525 382.775881,25.8442413 382.302246,25.2338867 C381.828611,24.6235321 381.093755,24.3183594 380.097656,24.3183594 C378.759759,24.3183594 377.780765,24.7358357 377.160645,25.5708008 C376.540524,26.4057659 376.230469,27.6874914 376.230469,29.4160156 L376.230469,38 Z" id="tom" fill="#FF0073" transform="translate(358.513184, 28.244141) rotate(-90.000000) translate(-358.513184, -28.244141) "></path>
        </g>
    </g>
</svg>