<?xml version="1.0" encoding="UTF-8"?>
<svg width="343px" height="1062px" viewBox="0 0 343 1062" version="1.1" xmlns="http://www.w3.org/2000/svg" xmlns:xlink="http://www.w3.org/1999/xlink">
    <!-- Generator: Sketch 46.2 (44496) - http://www.bohemiancoding.com/sketch -->
    <title>Artboard 2</title>
    <desc>Created with Sketch.</desc>
    <defs></defs>
    <g id="Page-3" stroke="none" stroke-width="1" fill="none" fill-rule="evenodd">
        <g id="Artboard-2">
            <path d="M-430.878906,567 L-460,490.574219 L-438.193359,490.574219 L-423.427734,534.119141 C-421.787101,539.633491 -420.761721,544.851538 -420.351562,549.773438 L-419.941406,549.773438 C-419.713541,545.398416 -418.68816,540.180369 -416.865234,534.119141 L-402.167969,490.574219 L-380.361328,490.574219 L-409.482422,567 L-430.878906,567 Z M-320.888672,567 L-324.921875,556.609375 L-325.46875,556.609375 C-328.977882,561.02997 -332.5895,564.094718 -336.303711,565.803711 C-340.017922,567.512704 -344.859996,568.367188 -350.830078,568.367188 C-358.167354,568.367188 -363.943664,566.270854 -368.15918,562.078125 C-372.374696,557.885396 -374.482422,551.915403 -374.482422,544.167969 C-374.482422,536.055949 -371.645536,530.074564 -365.97168,526.223633 C-360.297823,522.372702 -351.741594,520.24219 -340.302734,519.832031 L-327.041016,519.421875 L-327.041016,516.072266 C-327.041016,508.324831 -331.00582,504.451172 -338.935547,504.451172 C-345.042348,504.451172 -352.220011,506.296857 -360.46875,509.988281 L-367.373047,495.90625 C-358.57743,491.303362 -348.824923,489.001953 -338.115234,489.001953 C-327.861277,489.001953 -320.000027,491.235004 -314.53125,495.701172 C-309.062473,500.16734 -306.328125,506.957637 -306.328125,516.072266 L-306.328125,567 L-320.888672,567 Z M-327.041016,531.589844 L-335.107422,531.863281 C-341.16865,532.045574 -345.680324,533.139313 -348.642578,535.144531 C-351.604833,537.14975 -353.085938,540.203104 -353.085938,544.304688 C-353.085938,550.183623 -349.713575,553.123047 -342.96875,553.123047 C-338.137997,553.123047 -334.275731,551.733087 -331.381836,548.953125 C-328.487941,546.173163 -327.041016,542.481794 -327.041016,537.878906 L-327.041016,531.589844 Z M-231.542969,544.304688 C-231.542969,552.143268 -234.265923,558.113261 -239.711914,562.214844 C-245.157905,566.316427 -253.303982,568.367188 -264.150391,568.367188 C-269.710314,568.367188 -274.44985,567.991215 -278.369141,567.239258 C-282.288431,566.487301 -285.957014,565.382169 -289.375,563.923828 L-289.375,546.697266 C-285.501283,548.520191 -281.13772,550.046869 -276.28418,551.277344 C-271.43064,552.507819 -267.158222,553.123047 -263.466797,553.123047 C-255.901655,553.123047 -252.119141,550.935569 -252.119141,546.560547 C-252.119141,544.919914 -252.620438,543.586919 -253.623047,542.561523 C-254.625656,541.536128 -256.35741,540.37403 -258.818359,539.075195 C-261.279309,537.776361 -264.560526,536.261076 -268.662109,534.529297 C-274.541045,532.068347 -278.859036,529.789724 -281.616211,527.693359 C-284.373386,525.596995 -286.378574,523.193047 -287.631836,520.481445 C-288.885097,517.769843 -289.511719,514.43166 -289.511719,510.466797 C-289.511719,503.676398 -286.879909,498.424172 -281.616211,494.709961 C-276.352513,490.99575 -268.890022,489.138672 -259.228516,489.138672 C-250.02274,489.138672 -241.067752,491.14386 -232.363281,495.154297 L-238.652344,510.193359 C-242.480488,508.552726 -246.057926,507.208339 -249.384766,506.160156 C-252.711605,505.111974 -256.106754,504.587891 -259.570312,504.587891 C-265.722687,504.587891 -268.798828,506.251285 -268.798828,509.578125 C-268.798828,511.446624 -267.807627,513.064446 -265.825195,514.431641 C-263.842764,515.798835 -259.501987,517.826809 -252.802734,520.515625 C-246.832652,522.931002 -242.457696,525.186838 -239.677734,527.283203 C-236.897773,529.379568 -234.847012,531.794908 -233.525391,534.529297 C-232.203769,537.263686 -231.542969,540.522117 -231.542969,544.304688 Z M-216.162109,470.818359 C-216.162109,464.027961 -212.379595,460.632812 -204.814453,460.632812 C-197.249311,460.632812 -193.466797,464.027961 -193.466797,470.818359 C-193.466797,474.054053 -194.412425,476.571931 -196.303711,478.37207 C-198.194996,480.17221 -201.031882,481.072266 -204.814453,481.072266 C-212.379595,481.072266 -216.162109,477.654331 -216.162109,470.818359 Z M-194.423828,567 L-215.273438,567 L-215.273438,490.574219 L-194.423828,490.574219 L-194.423828,567 Z M-151.699219,567 L-172.548828,567 L-172.548828,460.632812 L-151.699219,460.632812 L-151.699219,567 Z M-130.712891,470.818359 C-130.712891,464.027961 -126.930376,460.632812 -119.365234,460.632812 C-111.800092,460.632812 -108.017578,464.027961 -108.017578,470.818359 C-108.017578,474.054053 -108.963207,476.571931 -110.854492,478.37207 C-112.745778,480.17221 -115.582663,481.072266 -119.365234,481.072266 C-126.930376,481.072266 -130.712891,477.654331 -130.712891,470.818359 Z M-108.974609,567 L-129.824219,567 L-129.824219,490.574219 L-108.974609,490.574219 L-108.974609,567 Z M-87.9882812,470.818359 C-87.9882812,464.027961 -84.205767,460.632812 -76.640625,460.632812 C-69.075483,460.632812 -65.2929688,464.027961 -65.2929688,470.818359 C-65.2929688,474.054053 -66.2385973,476.571931 -68.1298828,478.37207 C-70.0211683,480.17221 -72.858054,481.072266 -76.640625,481.072266 C-84.205767,481.072266 -87.9882812,477.654331 -87.9882812,470.818359 Z M-66.25,567 L-87.0996094,567 L-87.0996094,490.574219 L-66.25,490.574219 L-66.25,567 Z M58.5058594,490.574219 L58.5058594,501.169922 L46.5429688,504.246094 C48.7304797,507.66408 49.8242188,511.492166 49.8242188,515.730469 C49.8242188,523.933635 46.9645468,530.325172 41.2451172,534.905273 C35.5256875,539.485374 27.5846862,541.775391 17.421875,541.775391 L13.6621094,541.570312 L10.5859375,541.228516 C8.44399971,542.869149 7.37304688,544.692047 7.37304688,546.697266 C7.37304688,549.705093 11.2011336,551.208984 18.8574219,551.208984 L31.8457031,551.208984 C40.2311617,551.208984 46.6226994,553.009097 51.0205078,556.609375 C55.4183163,560.209653 57.6171875,565.496059 57.6171875,572.46875 C57.6171875,581.401086 53.8916388,588.3281 46.4404297,593.25 C38.9892206,598.1719 28.2910854,600.632812 14.3457031,600.632812 C3.6815873,600.632812 -4.46449009,598.775735 -10.0927734,595.061523 C-15.7210568,591.347312 -18.5351562,586.140658 -18.5351562,579.441406 C-18.5351562,574.838519 -17.0996237,570.987646 -14.2285156,567.888672 C-11.3574075,564.789698 -7.14195488,562.579434 -1.58203125,561.257812 C-3.72396904,560.34635 -5.59243994,558.853852 -7.1875,556.780273 C-8.78256006,554.706695 -9.58007812,552.507824 -9.58007812,550.183594 C-9.58007812,547.266912 -8.7369876,544.840179 -7.05078125,542.90332 C-5.3645749,540.966462 -2.92644824,539.063811 0.263671875,537.195312 C-3.74676484,535.463533 -6.92544399,532.683613 -9.27246094,528.855469 C-11.6194779,525.027325 -12.7929688,520.515651 -12.7929688,515.320312 C-12.7929688,506.980427 -10.0814073,500.531924 -4.65820312,495.974609 C0.765001074,491.417295 8.51231943,489.138672 18.5839844,489.138672 C20.7259222,489.138672 23.2665869,489.332355 26.2060547,489.719727 C29.1455225,490.107098 31.0253865,490.391926 31.8457031,490.574219 L58.5058594,490.574219 Z M-0.48828125,577.800781 C-0.48828125,580.671889 0.890285693,582.927726 3.64746094,584.568359 C6.40463618,586.208993 10.2669022,587.029297 15.234375,587.029297 C22.7083707,587.029297 28.5644319,586.003917 32.8027344,583.953125 C37.0410368,581.902333 39.1601562,579.099627 39.1601562,575.544922 C39.1601562,572.673814 37.9069136,570.691412 35.4003906,569.597656 C32.8938677,568.503901 29.0202085,567.957031 23.7792969,567.957031 L12.9785156,567.957031 C9.15037148,567.957031 5.9489061,568.857087 3.37402344,570.657227 C0.799140771,572.457366 -0.48828125,574.838527 -0.48828125,577.800781 Z M7.09960938,515.59375 C7.09960938,519.740906 8.04523794,523.022123 9.93652344,525.4375 C11.8278089,527.852877 14.7102671,529.060547 18.5839844,529.060547 C22.5032748,529.060547 25.3743398,527.852877 27.1972656,525.4375 C29.0201914,523.022123 29.9316406,519.740906 29.9316406,515.59375 C29.9316406,506.387975 26.1491264,501.785156 18.5839844,501.785156 C10.9276961,501.785156 7.09960938,506.387975 7.09960938,515.59375 Z M87.6953125,528.650391 C87.6953125,536.215533 88.9371621,541.934876 91.4208984,545.808594 C93.9046348,549.682311 97.9491907,551.619141 103.554688,551.619141 C109.114611,551.619141 113.113595,549.693704 115.551758,545.842773 C117.989921,541.991843 119.208984,536.261106 119.208984,528.650391 C119.208984,521.085249 117.978528,515.411477 115.517578,511.628906 C113.056628,507.846335 109.023466,505.955078 103.417969,505.955078 C97.8580451,505.955078 93.8476686,507.834942 91.3867188,511.594727 C88.9257689,515.354511 87.6953125,521.039675 87.6953125,528.650391 Z M140.537109,528.650391 C140.537109,541.091859 137.255892,550.821579 130.693359,557.839844 C124.130827,564.858108 114.993548,568.367188 103.28125,568.367188 C95.9439737,568.367188 89.4726843,566.760758 83.8671875,563.547852 C78.2616907,560.334945 73.9550932,555.720733 70.9472656,549.705078 C67.9394381,543.689423 66.4355469,536.671264 66.4355469,528.650391 C66.4355469,516.163349 69.6939778,506.456415 76.2109375,499.529297 C82.7278972,492.602179 91.8879618,489.138672 103.691406,489.138672 C111.028683,489.138672 117.499972,490.733708 123.105469,493.923828 C128.710966,497.113948 133.017563,501.693981 136.025391,507.664062 C139.033218,513.634144 140.537109,520.629517 140.537109,528.650391 Z M200.419922,489.138672 C203.245457,489.138672 205.592439,489.343748 207.460938,489.753906 L205.888672,509.304688 C204.202466,508.848956 202.151705,508.621094 199.736328,508.621094 C193.082649,508.621094 187.898782,510.330061 184.18457,513.748047 C180.470359,517.166033 178.613281,521.951141 178.613281,528.103516 L178.613281,567 L157.763672,567 L157.763672,490.574219 L173.554688,490.574219 L176.630859,503.425781 L177.65625,503.425781 C180.026054,499.141906 183.227519,495.689792 187.260742,493.069336 C191.293965,490.44888 195.680315,489.138672 200.419922,489.138672 Z M220.449219,470.818359 C220.449219,464.027961 224.231733,460.632812 231.796875,460.632812 C239.362017,460.632812 243.144531,464.027961 243.144531,470.818359 C243.144531,474.054053 242.198903,476.571931 240.307617,478.37207 C238.416332,480.17221 235.579446,481.072266 231.796875,481.072266 C224.231733,481.072266 220.449219,477.654331 220.449219,470.818359 Z M242.1875,567 L221.337891,567 L221.337891,490.574219 L242.1875,490.574219 L242.1875,567 Z M318.203125,567 L315.400391,557.224609 L314.306641,557.224609 C312.073557,560.779315 308.906271,563.525055 304.804688,565.461914 C300.703104,567.398773 296.031927,568.367188 290.791016,568.367188 C281.813106,568.367188 275.045596,565.96324 270.488281,561.155273 C265.930967,556.347307 263.652344,549.431686 263.652344,540.408203 L263.652344,490.574219 L284.501953,490.574219 L284.501953,535.212891 C284.501953,540.727241 285.481761,544.862942 287.441406,547.620117 C289.401051,550.377292 292.522765,551.755859 296.806641,551.755859 C302.640003,551.755859 306.855456,549.807637 309.453125,545.911133 C312.050794,542.014629 313.349609,535.554733 313.349609,526.53125 L313.349609,490.574219 L334.199219,490.574219 L334.199219,567 L318.203125,567 Z M426.621094,567 L405.771484,567 L405.771484,522.361328 C405.771484,516.846978 404.791676,512.711277 402.832031,509.954102 C400.872386,507.196926 397.750672,505.818359 393.466797,505.818359 C387.633434,505.818359 383.417982,507.766582 380.820312,511.663086 C378.222643,515.55959 376.923828,522.019486 376.923828,531.042969 L376.923828,567 L356.074219,567 L356.074219,490.574219 L372.001953,490.574219 L374.804688,500.349609 L375.966797,500.349609 C378.291027,496.658185 381.492493,493.866871 385.571289,491.975586 C389.650085,490.0843 394.287083,489.138672 399.482422,489.138672 C408.369185,489.138672 415.113909,491.542619 419.716797,496.350586 C424.319684,501.158553 426.621094,508.09696 426.621094,517.166016 L426.621094,567 Z M464.697266,528.650391 C464.697266,536.215533 465.939115,541.934876 468.422852,545.808594 C470.906588,549.682311 474.951144,551.619141 480.556641,551.619141 C486.116564,551.619141 490.115548,549.693704 492.553711,545.842773 C494.991874,541.991843 496.210938,536.261106 496.210938,528.650391 C496.210938,521.085249 494.980481,515.411477 492.519531,511.628906 C490.058581,507.846335 486.025419,505.955078 480.419922,505.955078 C474.859998,505.955078 470.849622,507.834942 468.388672,511.594727 C465.927722,515.354511 464.697266,521.039675 464.697266,528.650391 Z M517.539062,528.650391 C517.539062,541.091859 514.257845,550.821579 507.695312,557.839844 C501.13278,564.858108 491.995501,568.367188 480.283203,568.367188 C472.945927,568.367188 466.474637,566.760758 460.869141,563.547852 C455.263644,560.334945 450.957046,555.720733 447.949219,549.705078 C444.941391,543.689423 443.4375,536.671264 443.4375,528.650391 C443.4375,516.163349 446.695931,506.456415 453.212891,499.529297 C459.72985,492.602179 468.889915,489.138672 480.693359,489.138672 C488.030636,489.138672 494.501925,490.733708 500.107422,493.923828 C505.712919,497.113948 510.019516,501.693981 513.027344,507.664062 C516.035171,513.634144 517.539062,520.629517 517.539062,528.650391 Z M550.146484,567 L521.025391,490.574219 L542.832031,490.574219 L557.597656,534.119141 C559.238289,539.633491 560.26367,544.851538 560.673828,549.773438 L561.083984,549.773438 C561.31185,545.398416 562.33723,540.180369 564.160156,534.119141 L578.857422,490.574219 L600.664062,490.574219 L571.542969,567 L550.146484,567 Z" id="vasilii-goriunov-copy" fill="#EBEBEB" transform="translate(70.332031, 530.632812) rotate(90.000000) translate(-70.332031, -530.632812) "></path>
            <path d="M165.664062,260.339844 C166.223961,260.339844 166.783851,260.251954 167.34375,260.076172 L167.34375,261.804688 C167.089842,261.915365 166.762697,262.008138 166.362305,262.083008 C165.961912,262.157878 165.546877,262.195312 165.117188,262.195312 C162.942697,262.195312 161.855469,261.049491 161.855469,258.757812 L161.855469,252.9375 L160.380859,252.9375 L160.380859,251.921875 L161.962891,251.082031 L162.744141,248.796875 L164.160156,248.796875 L164.160156,251.199219 L167.236328,251.199219 L167.236328,252.9375 L164.160156,252.9375 L164.160156,258.71875 C164.160156,259.272138 164.298501,259.680663 164.575195,259.944336 C164.851889,260.208009 165.214842,260.339844 165.664062,260.339844 Z M179.082031,256.580078 C179.082031,258.34441 178.629562,259.721349 177.724609,260.710938 C176.819657,261.700526 175.559904,262.195312 173.945312,262.195312 C172.936193,262.195312 172.044275,261.96745 171.269531,261.511719 C170.494788,261.055987 169.899091,260.401697 169.482422,259.548828 C169.065753,258.695959 168.857422,257.706386 168.857422,256.580078 C168.857422,254.828767 169.306636,253.461593 170.205078,252.478516 C171.10352,251.495438 172.369783,251.003906 174.003906,251.003906 C175.566414,251.003906 176.803381,251.506831 177.714844,252.512695 C178.626307,253.51856 179.082031,254.87434 179.082031,256.580078 Z M171.220703,256.580078 C171.220703,259.07358 172.141918,260.320312 173.984375,260.320312 C175.807301,260.320312 176.71875,259.07358 176.71875,256.580078 C176.71875,254.112618 175.80079,252.878906 173.964844,252.878906 C173.001297,252.878906 172.303062,253.197913 171.870117,253.835938 C171.437172,254.473962 171.220703,255.388666 171.220703,256.580078 Z M190.820312,262 L188.515625,262 L188.515625,255.339844 C188.515625,254.513017 188.359377,253.896161 188.046875,253.489258 C187.734373,253.082355 187.246097,252.878906 186.582031,252.878906 C185.69661,252.878906 185.047203,253.166989 184.633789,253.743164 C184.220376,254.319339 184.013672,255.277988 184.013672,256.619141 L184.013672,262 L181.71875,262 L181.71875,251.199219 L183.515625,251.199219 L183.837891,252.615234 L183.955078,252.615234 C184.254559,252.100909 184.689125,251.703777 185.258789,251.423828 C185.828453,251.143879 186.455075,251.003906 187.138672,251.003906 C188.798836,251.003906 189.899086,251.570307 190.439453,252.703125 L190.595703,252.703125 C190.914715,252.169268 191.363929,251.752606 191.943359,251.453125 C192.522789,251.153644 193.186845,251.003906 193.935547,251.003906 C195.224616,251.003906 196.163734,251.329424 196.75293,251.980469 C197.342125,252.631514 197.636719,253.624342 197.636719,254.958984 L197.636719,262 L195.341797,262 L195.341797,255.339844 C195.341797,254.513017 195.183921,253.896161 194.868164,253.489258 C194.552407,253.082355 194.062503,252.878906 193.398438,252.878906 C192.506506,252.878906 191.853843,253.157224 191.44043,253.713867 C191.027016,254.270511 190.820312,255.124994 190.820312,256.277344 L190.820312,262 Z" id="tom-copy" fill="#FF0073"></path>
            <path d="M166.30957,347.195312 C164.766594,347.195312 163.563806,346.720057 162.701172,345.769531 C161.838537,344.819006 161.407227,343.487639 161.407227,341.775391 C161.407227,340.082674 161.823889,338.726893 162.657227,337.708008 C163.490564,336.689123 164.6136,336.179688 166.026367,336.179688 C167.276373,336.179688 168.262692,336.615881 168.985352,337.488281 C169.708011,338.360681 170.069336,339.545565 170.069336,341.042969 L170.069336,341.824219 L162.422852,341.824219 C162.435872,343.282559 162.776038,344.395829 163.443359,345.164062 C164.11068,345.932296 165.066075,346.316406 166.30957,346.316406 C166.915042,346.316406 167.447263,346.274089 167.90625,346.189453 C168.365237,346.104817 168.946286,345.922527 169.649414,345.642578 L169.649414,346.521484 C169.050453,346.781902 168.497073,346.959309 167.989258,347.053711 C167.481443,347.148112 166.921553,347.195312 166.30957,347.195312 Z M166.026367,337.039062 C165.004227,337.039062 164.183922,337.375973 163.56543,338.049805 C162.946937,338.723636 162.585612,339.695306 162.481445,340.964844 L169.043945,340.964844 C169.043945,339.734369 168.777021,338.772464 168.243164,338.079102 C167.709307,337.385739 166.970382,337.039062 166.026367,337.039062 Z M175.206055,341.541016 L171.504883,336.384766 L172.618164,336.384766 L175.782227,340.857422 L178.916992,336.384766 L179.981445,336.384766 L176.338867,341.541016 L180.245117,347 L179.12207,347 L175.782227,342.263672 L172.422852,347 L171.358398,347 L175.206055,341.541016 Z M194.336914,344.236328 C194.336914,345.186854 193.97559,345.917641 193.25293,346.428711 C192.53027,346.939781 191.504889,347.195312 190.176758,347.195312 C188.75748,347.195312 187.631189,346.977216 186.797852,346.541016 L186.797852,345.496094 C187.865565,346.029951 188.991856,346.296875 190.176758,346.296875 C191.22494,346.296875 192.020831,346.122723 192.564453,345.774414 C193.108076,345.426105 193.379883,344.962242 193.379883,344.382812 C193.379883,343.848956 193.163414,343.399741 192.730469,343.035156 C192.297524,342.670571 191.586268,342.312502 190.59668,341.960938 C189.535476,341.576821 188.790041,341.246421 188.360352,340.969727 C187.930662,340.693032 187.606772,340.380536 187.388672,340.032227 C187.170572,339.683918 187.061523,339.259117 187.061523,338.757812 C187.061523,337.963538 187.395179,337.335289 188.0625,336.873047 C188.729821,336.410805 189.662429,336.179688 190.860352,336.179688 C192.006191,336.179688 193.093419,336.394529 194.12207,336.824219 L193.760742,337.703125 C192.71907,337.273435 191.752283,337.058594 190.860352,337.058594 C189.994462,337.058594 189.30762,337.201821 188.799805,337.488281 C188.29199,337.774741 188.038086,338.171872 188.038086,338.679688 C188.038086,339.233076 188.235024,339.67578 188.628906,340.007812 C189.022788,340.339845 189.792638,340.710935 190.938477,341.121094 C191.895513,341.466148 192.59212,341.777017 193.02832,342.053711 C193.46452,342.330405 193.791666,342.644529 194.009766,342.996094 C194.227866,343.347658 194.336914,343.761065 194.336914,344.236328 Z M201.612305,347.195312 C199.978182,347.195312 198.786788,346.583339 198.038086,345.359375 L197.969727,345.359375 L197.999023,346.179688 C198.025065,346.661461 198.038086,347.188799 198.038086,347.761719 L198.038086,351.804688 L197.071289,351.804688 L197.071289,336.384766 L197.891602,336.384766 L198.077148,337.898438 L198.135742,337.898438 C198.864913,336.752598 200.030265,336.179688 201.631836,336.179688 C203.064135,336.179688 204.156246,336.65006 204.908203,337.59082 C205.66016,338.53158 206.036133,339.900382 206.036133,341.697266 C206.036133,343.442066 205.640629,344.794592 204.849609,345.754883 C204.05859,346.715174 202.979499,347.195312 201.612305,347.195312 Z M201.592773,346.335938 C202.680018,346.335938 203.521481,345.932296 204.117188,345.125 C204.712894,344.317704 205.010742,343.188158 205.010742,341.736328 C205.010742,338.617823 203.884451,337.058594 201.631836,337.058594 C200.394851,337.058594 199.486657,337.39876 198.907227,338.079102 C198.327797,338.759444 198.038086,339.867831 198.038086,341.404297 L198.038086,341.716797 C198.038086,343.376961 198.316403,344.561845 198.873047,345.271484 C199.42969,345.981123 200.336257,346.335938 201.592773,346.335938 Z M215.420898,347 L215.176758,345.320312 L215.098633,345.320312 C214.564776,346.00391 214.016279,346.487303 213.453125,346.770508 C212.889971,347.053712 212.224288,347.195312 211.456055,347.195312 C210.414383,347.195312 209.603844,346.928388 209.024414,346.394531 C208.444984,345.860674 208.155273,345.12175 208.155273,344.177734 C208.155273,343.142573 208.586584,342.338545 209.449219,341.765625 C210.311853,341.192705 211.560213,340.889974 213.194336,340.857422 L215.21582,340.798828 L215.21582,340.095703 C215.21582,339.086583 215.010744,338.324872 214.600586,337.810547 C214.190428,337.296221 213.529627,337.039062 212.618164,337.039062 C211.635086,337.039062 210.616216,337.312497 209.561523,337.859375 L209.200195,337.019531 C210.365566,336.472654 211.517898,336.199219 212.657227,336.199219 C213.822597,336.199219 214.693356,336.50195 215.269531,337.107422 C215.845706,337.712894 216.133789,338.656895 216.133789,339.939453 L216.133789,347 L215.420898,347 Z M211.514648,346.316406 C212.647467,346.316406 213.541012,345.992516 214.195312,345.344727 C214.849613,344.696937 215.176758,343.796881 215.176758,342.644531 L215.176758,341.599609 L213.321289,341.677734 C211.830396,341.749349 210.767581,341.982094 210.132812,342.375977 C209.498044,342.769859 209.180664,343.383459 209.180664,344.216797 C209.180664,344.880863 209.384113,345.396808 209.791016,345.764648 C210.197919,346.132489 210.772457,346.316406 211.514648,346.316406 Z M223.80957,347.195312 C222.292636,347.195312 221.104496,346.716802 220.245117,345.759766 C219.385738,344.80273 218.956055,343.468108 218.956055,341.755859 C218.956055,339.998038 219.402014,338.629237 220.293945,337.649414 C221.185877,336.669591 222.406568,336.179688 223.956055,336.179688 C224.874028,336.179688 225.752925,336.339191 226.592773,336.658203 L226.329102,337.517578 C225.411128,337.211587 224.61361,337.058594 223.936523,337.058594 C222.634434,337.058594 221.648115,337.460608 220.977539,338.264648 C220.306963,339.068689 219.97168,340.225904 219.97168,341.736328 C219.97168,343.168627 220.306963,344.290035 220.977539,345.100586 C221.648115,345.911137 222.585606,346.316406 223.790039,346.316406 C224.753586,346.316406 225.648759,346.143882 226.475586,345.798828 L226.475586,346.697266 C225.798499,347.029299 224.909836,347.195312 223.80957,347.195312 Z M233.360352,347.195312 C231.817375,347.195312 230.614588,346.720057 229.751953,345.769531 C228.889319,344.819006 228.458008,343.487639 228.458008,341.775391 C228.458008,340.082674 228.87467,338.726893 229.708008,337.708008 C230.541345,336.689123 231.664381,336.179688 233.077148,336.179688 C234.327155,336.179688 235.313473,336.615881 236.036133,337.488281 C236.758793,338.360681 237.120117,339.545565 237.120117,341.042969 L237.120117,341.824219 L229.473633,341.824219 C229.486654,343.282559 229.82682,344.395829 230.494141,345.164062 C231.161462,345.932296 232.116856,346.316406 233.360352,346.316406 C233.965823,346.316406 234.498045,346.274089 234.957031,346.189453 C235.416018,346.104817 235.997067,345.922527 236.700195,345.642578 L236.700195,346.521484 C236.101234,346.781902 235.547854,346.959309 235.040039,347.053711 C234.532224,347.148112 233.972334,347.195312 233.360352,347.195312 Z M233.077148,337.039062 C232.055008,337.039062 231.234704,337.375973 230.616211,338.049805 C229.997718,338.723636 229.636394,339.695306 229.532227,340.964844 L236.094727,340.964844 C236.094727,339.734369 235.827802,338.772464 235.293945,338.079102 C234.760088,337.385739 234.021164,337.039062 233.077148,337.039062 Z M249.532227,347.195312 C247.98925,347.195312 246.786463,346.720057 245.923828,345.769531 C245.061194,344.819006 244.629883,343.487639 244.629883,341.775391 C244.629883,340.082674 245.046545,338.726893 245.879883,337.708008 C246.71322,336.689123 247.836256,336.179688 249.249023,336.179688 C250.49903,336.179688 251.485348,336.615881 252.208008,337.488281 C252.930668,338.360681 253.291992,339.545565 253.291992,341.042969 L253.291992,341.824219 L245.645508,341.824219 C245.658529,343.282559 245.998695,344.395829 246.666016,345.164062 C247.333337,345.932296 248.288731,346.316406 249.532227,346.316406 C250.137698,346.316406 250.66992,346.274089 251.128906,346.189453 C251.587893,346.104817 252.168942,345.922527 252.87207,345.642578 L252.87207,346.521484 C252.273109,346.781902 251.719729,346.959309 251.211914,347.053711 C250.704099,347.148112 250.144209,347.195312 249.532227,347.195312 Z M249.249023,337.039062 C248.226883,337.039062 247.406579,337.375973 246.788086,338.049805 C246.169593,338.723636 245.808269,339.695306 245.704102,340.964844 L252.266602,340.964844 C252.266602,339.734369 251.999677,338.772464 251.46582,338.079102 C250.931963,337.385739 250.193039,337.039062 249.249023,337.039062 Z M263.624023,347 L263.624023,340.115234 C263.624023,339.047521 263.399416,338.271161 262.950195,337.786133 C262.500974,337.301104 261.804367,337.058594 260.860352,337.058594 C259.590814,337.058594 258.661461,337.379229 258.072266,338.020508 C257.48307,338.661787 257.188477,339.701816 257.188477,341.140625 L257.188477,347 L256.22168,347 L256.22168,336.384766 L257.041992,336.384766 L257.227539,337.839844 L257.286133,337.839844 C257.97624,336.733067 259.203442,336.179688 260.967773,336.179688 C263.37664,336.179688 264.581055,337.471992 264.581055,340.056641 L264.581055,347 L263.624023,347 Z M276.299805,336.384766 L276.299805,337.058594 L274.102539,337.195312 C274.688479,337.924483 274.981445,338.725256 274.981445,339.597656 C274.981445,340.619797 274.641279,341.448239 273.960938,342.083008 C273.280596,342.717777 272.367519,343.035156 271.22168,343.035156 C270.739906,343.035156 270.401368,343.015625 270.206055,342.976562 C269.821938,343.178386 269.528972,343.416014 269.327148,343.689453 C269.125325,343.962892 269.024414,344.252603 269.024414,344.558594 C269.024414,344.897137 269.152994,345.14453 269.410156,345.300781 C269.667319,345.457032 270.09863,345.535156 270.704102,345.535156 L272.55957,345.535156 C273.71192,345.535156 274.594072,345.767901 275.206055,346.233398 C275.818037,346.698896 276.124023,347.387365 276.124023,348.298828 C276.124023,349.418625 275.669926,350.282875 274.761719,350.891602 C273.853511,351.500329 272.559579,351.804688 270.879883,351.804688 C269.545241,351.804688 268.511722,351.547529 267.779297,351.033203 C267.046871,350.518878 266.680664,349.802739 266.680664,348.884766 C266.680664,348.155595 266.906899,347.550133 267.359375,347.068359 C267.811851,346.586586 268.425452,346.257813 269.200195,346.082031 C268.881183,345.945312 268.625652,345.751629 268.433594,345.500977 C268.241535,345.250324 268.145508,344.962241 268.145508,344.636719 C268.145508,343.92708 268.597977,343.302086 269.50293,342.761719 C268.884437,342.507811 268.402671,342.109052 268.057617,341.56543 C267.712563,341.021807 267.540039,340.398441 267.540039,339.695312 C267.540039,338.634109 267.87695,337.782881 268.550781,337.141602 C269.224613,336.500322 270.134434,336.179688 271.280273,336.179688 C271.976892,336.179688 272.517251,336.248046 272.901367,336.384766 L276.299805,336.384766 Z M267.706055,348.796875 C267.706055,350.255216 268.790028,350.984375 270.958008,350.984375 C273.74448,350.984375 275.137695,350.095712 275.137695,348.318359 C275.137695,347.680335 274.919599,347.2181 274.483398,346.931641 C274.047198,346.645181 273.340825,346.501953 272.364258,346.501953 L270.625977,346.501953 C268.679352,346.501953 267.706055,347.266919 267.706055,348.796875 Z M268.516602,339.695312 C268.516602,340.515629 268.765623,341.152016 269.263672,341.604492 C269.761721,342.056968 270.427405,342.283203 271.260742,342.283203 C272.146163,342.283203 272.824867,342.058596 273.296875,341.609375 C273.768883,341.160154 274.004883,340.509119 274.004883,339.65625 C274.004883,338.751298 273.762372,338.072593 273.277344,337.620117 C272.792315,337.167641 272.113611,336.941406 271.241211,336.941406 C270.394853,336.941406 269.729169,337.183917 269.244141,337.668945 C268.759112,338.153974 268.516602,338.829423 268.516602,339.695312 Z M279.444336,347 L278.477539,347 L278.477539,336.384766 L279.444336,336.384766 L279.444336,347 Z M278.34082,333.435547 C278.34082,332.810544 278.545896,332.498047 278.956055,332.498047 C279.157879,332.498047 279.315755,332.579426 279.429688,332.742188 C279.54362,332.904949 279.600586,333.136066 279.600586,333.435547 C279.600586,333.728517 279.54362,333.959635 279.429688,334.128906 C279.315755,334.298178 279.157879,334.382812 278.956055,334.382812 C278.545896,334.382812 278.34082,334.06706 278.34082,333.435547 Z M290.401367,347 L290.401367,340.115234 C290.401367,339.047521 290.17676,338.271161 289.727539,337.786133 C289.278318,337.301104 288.58171,337.058594 287.637695,337.058594 C286.368158,337.058594 285.438805,337.379229 284.849609,338.020508 C284.260414,338.661787 283.96582,339.701816 283.96582,341.140625 L283.96582,347 L282.999023,347 L282.999023,336.384766 L283.819336,336.384766 L284.004883,337.839844 L284.063477,337.839844 C284.753584,336.733067 285.980785,336.179688 287.745117,336.179688 C290.153983,336.179688 291.358398,337.471992 291.358398,340.056641 L291.358398,347 L290.401367,347 Z M299.083008,347.195312 C297.540031,347.195312 296.337244,346.720057 295.474609,345.769531 C294.611975,344.819006 294.180664,343.487639 294.180664,341.775391 C294.180664,340.082674 294.597327,338.726893 295.430664,337.708008 C296.264002,336.689123 297.387037,336.179688 298.799805,336.179688 C300.049811,336.179688 301.036129,336.615881 301.758789,337.488281 C302.481449,338.360681 302.842773,339.545565 302.842773,341.042969 L302.842773,341.824219 L295.196289,341.824219 C295.20931,343.282559 295.549476,344.395829 296.216797,345.164062 C296.884118,345.932296 297.839512,346.316406 299.083008,346.316406 C299.68848,346.316406 300.220701,346.274089 300.679688,346.189453 C301.138674,346.104817 301.719723,345.922527 302.422852,345.642578 L302.422852,346.521484 C301.82389,346.781902 301.27051,346.959309 300.762695,347.053711 C300.25488,347.148112 299.69499,347.195312 299.083008,347.195312 Z M298.799805,337.039062 C297.777664,337.039062 296.95736,337.375973 296.338867,338.049805 C295.720375,338.723636 295.35905,339.695306 295.254883,340.964844 L301.817383,340.964844 C301.817383,339.734369 301.550458,338.772464 301.016602,338.079102 C300.482745,337.385739 299.74382,337.039062 298.799805,337.039062 Z M310.05957,347.195312 C308.516594,347.195312 307.313806,346.720057 306.451172,345.769531 C305.588537,344.819006 305.157227,343.487639 305.157227,341.775391 C305.157227,340.082674 305.573889,338.726893 306.407227,337.708008 C307.240564,336.689123 308.3636,336.179688 309.776367,336.179688 C311.026373,336.179688 312.012692,336.615881 312.735352,337.488281 C313.458011,338.360681 313.819336,339.545565 313.819336,341.042969 L313.819336,341.824219 L306.172852,341.824219 C306.185872,343.282559 306.526038,344.395829 307.193359,345.164062 C307.86068,345.932296 308.816075,346.316406 310.05957,346.316406 C310.665042,346.316406 311.197263,346.274089 311.65625,346.189453 C312.115237,346.104817 312.696286,345.922527 313.399414,345.642578 L313.399414,346.521484 C312.800453,346.781902 312.247073,346.959309 311.739258,347.053711 C311.231443,347.148112 310.671553,347.195312 310.05957,347.195312 Z M309.776367,337.039062 C308.754227,337.039062 307.933922,337.375973 307.31543,338.049805 C306.696937,338.723636 306.335613,339.695306 306.231445,340.964844 L312.793945,340.964844 C312.793945,339.734369 312.527021,338.772464 311.993164,338.079102 C311.459307,337.385739 310.720382,337.039062 309.776367,337.039062 Z M320.928711,336.179688 C321.377932,336.179688 321.859698,336.22526 322.374023,336.316406 L322.188477,337.244141 C321.745766,337.133463 321.286786,337.078125 320.811523,337.078125 C319.906571,337.078125 319.164391,337.462236 318.584961,338.230469 C318.005531,338.998702 317.71582,339.968744 317.71582,341.140625 L317.71582,347 L316.749023,347 L316.749023,336.384766 L317.569336,336.384766 L317.666992,338.298828 L317.735352,338.298828 C318.171552,337.517574 318.637042,336.969077 319.131836,336.65332 C319.62663,336.337564 320.225582,336.179688 320.928711,336.179688 Z" id="ex-space-engineer-copy" fill="#ACACAC"></path>
            <path d="M169.527344,391 L169.527344,384.076172 C169.527344,383.203772 169.328778,382.552737 168.931641,382.123047 C168.534503,381.693357 167.912765,381.478516 167.066406,381.478516 C165.946609,381.478516 165.126305,381.781247 164.605469,382.386719 C164.084633,382.992191 163.824219,383.991529 163.824219,385.384766 L163.824219,391 L162.203125,391 L162.203125,380.296875 L163.521484,380.296875 L163.785156,381.761719 L163.863281,381.761719 C164.195314,381.234372 164.660804,380.825848 165.259766,380.536133 C165.858727,380.246418 166.526038,380.101562 167.261719,380.101562 C168.550788,380.101562 169.52083,380.412432 170.171875,381.03418 C170.82292,381.655928 171.148438,382.650384 171.148438,384.017578 L171.148438,391 L169.527344,391 Z M183.716797,385.638672 C183.716797,387.383472 183.277348,388.745763 182.398438,389.725586 C181.519527,390.705409 180.305346,391.195312 178.755859,391.195312 C177.798823,391.195312 176.949222,390.970705 176.207031,390.521484 C175.46484,390.072263 174.891929,389.427739 174.488281,388.587891 C174.084633,387.748043 173.882812,386.76498 173.882812,385.638672 C173.882812,383.893871 174.319006,382.534836 175.191406,381.561523 C176.063806,380.588211 177.274732,380.101562 178.824219,380.101562 C180.321622,380.101562 181.511389,380.599604 182.393555,381.595703 C183.275721,382.591802 183.716797,383.939445 183.716797,385.638672 Z M175.5625,385.638672 C175.5625,387.005866 175.835935,388.047522 176.382812,388.763672 C176.92969,389.479821 177.733719,389.837891 178.794922,389.837891 C179.856125,389.837891 180.661781,389.481449 181.211914,388.768555 C181.762047,388.05566 182.037109,387.012377 182.037109,385.638672 C182.037109,384.277988 181.762047,383.24447 181.211914,382.538086 C180.661781,381.831702 179.849615,381.478516 178.775391,381.478516 C177.714187,381.478516 176.913414,381.826819 176.373047,382.523438 C175.83268,383.220056 175.5625,384.258457 175.5625,385.638672 Z M194.898438,391 L192.935547,384.720703 C192.811848,384.336587 192.580731,383.4642 192.242188,382.103516 L192.164062,382.103516 C191.903645,383.242844 191.675782,384.121742 191.480469,384.740234 L189.458984,391 L187.583984,391 L184.664062,380.296875 L186.363281,380.296875 C187.053389,382.985691 187.5791,385.033196 187.94043,386.439453 C188.30176,387.84571 188.508463,388.792966 188.560547,389.28125 L188.638672,389.28125 C188.710287,388.910154 188.825846,388.430016 188.985352,387.84082 C189.144858,387.251625 189.283203,386.784507 189.400391,386.439453 L191.363281,380.296875 L193.121094,380.296875 L195.035156,386.439453 C195.399741,387.55925 195.647135,388.499996 195.777344,389.261719 L195.855469,389.261719 C195.881511,389.027343 195.951497,388.666018 196.06543,388.177734 C196.179363,387.689451 196.858067,385.062524 198.101562,380.296875 L199.78125,380.296875 L196.822266,391 L194.898438,391 Z M215.650391,391 L213.6875,384.720703 C213.563801,384.336587 213.332684,383.4642 212.994141,382.103516 L212.916016,382.103516 C212.655598,383.242844 212.427735,384.121742 212.232422,384.740234 L210.210938,391 L208.335938,391 L205.416016,380.296875 L207.115234,380.296875 C207.805342,382.985691 208.331053,385.033196 208.692383,386.439453 C209.053713,387.84571 209.260416,388.792966 209.3125,389.28125 L209.390625,389.28125 C209.46224,388.910154 209.577799,388.430016 209.737305,387.84082 C209.896811,387.251625 210.035156,386.784507 210.152344,386.439453 L212.115234,380.296875 L213.873047,380.296875 L215.787109,386.439453 C216.151695,387.55925 216.399088,388.499996 216.529297,389.261719 L216.607422,389.261719 C216.633464,389.027343 216.70345,388.666018 216.817383,388.177734 C216.931316,387.689451 217.61002,385.062524 218.853516,380.296875 L220.533203,380.296875 L217.574219,391 L215.650391,391 Z M226.988281,391.195312 C225.406242,391.195312 224.157882,390.713546 223.243164,389.75 C222.328446,388.786454 221.871094,387.448576 221.871094,385.736328 C221.871094,384.011059 222.295894,382.64063 223.145508,381.625 C223.995121,380.60937 225.136061,380.101562 226.568359,380.101562 C227.909512,380.101562 228.970699,380.542639 229.751953,381.424805 C230.533207,382.306971 230.923828,383.470696 230.923828,384.916016 L230.923828,385.941406 L223.550781,385.941406 C223.583333,387.197923 223.900713,388.151689 224.50293,388.802734 C225.105146,389.453779 225.95312,389.779297 227.046875,389.779297 C228.199225,389.779297 229.338536,389.538414 230.464844,389.056641 L230.464844,390.501953 C229.891924,390.74935 229.349937,390.926757 228.838867,391.03418 C228.327797,391.141602 227.710941,391.195312 226.988281,391.195312 Z M226.548828,381.458984 C225.689449,381.458984 225.004234,381.738929 224.493164,382.298828 C223.982094,382.858727 223.68099,383.633459 223.589844,384.623047 L229.185547,384.623047 C229.185547,383.600906 228.957685,382.818037 228.501953,382.274414 C228.046222,381.730792 227.395187,381.458984 226.548828,381.458984 Z M238.667969,380.121094 C240.074226,380.121094 241.166337,380.601232 241.944336,381.561523 C242.722335,382.521815 243.111328,383.880851 243.111328,385.638672 C243.111328,387.396493 242.719079,388.762039 241.93457,389.735352 C241.150061,390.708664 240.061205,391.195312 238.667969,391.195312 C237.971351,391.195312 237.334964,391.066733 236.758789,390.80957 C236.182614,390.552408 235.699221,390.156904 235.308594,389.623047 L235.191406,389.623047 L234.849609,391 L233.6875,391 L233.6875,375.804688 L235.308594,375.804688 L235.308594,379.496094 C235.308594,380.322921 235.282552,381.065101 235.230469,381.722656 L235.308594,381.722656 C236.063806,380.654943 237.183586,380.121094 238.667969,380.121094 Z M238.433594,381.478516 C237.326817,381.478516 236.529299,381.795895 236.041016,382.430664 C235.552732,383.065433 235.308594,384.134758 235.308594,385.638672 C235.308594,387.142586 235.559242,388.218421 236.060547,388.866211 C236.561851,389.514001 237.36588,389.837891 238.472656,389.837891 C239.468755,389.837891 240.210935,389.474939 240.699219,388.749023 C241.187502,388.023108 241.431641,386.979825 241.431641,385.619141 C241.431641,384.225904 241.187502,383.187503 240.699219,382.503906 C240.210935,381.820309 239.455734,381.478516 238.433594,381.478516 Z M258.423828,389.564453 L258.335938,389.564453 C257.587236,390.651698 256.467455,391.195312 254.976562,391.195312 C253.576816,391.195312 252.48796,390.716802 251.709961,389.759766 C250.931962,388.80273 250.542969,387.442066 250.542969,385.677734 C250.542969,383.913403 250.93359,382.542974 251.714844,381.566406 C252.496098,380.589839 253.583326,380.101562 254.976562,380.101562 C256.428393,380.101562 257.541663,380.628901 258.316406,381.683594 L258.443359,381.683594 L258.375,380.912109 L258.335938,380.160156 L258.335938,375.804688 L259.957031,375.804688 L259.957031,391 L258.638672,391 L258.423828,389.564453 Z M255.181641,389.837891 C256.288417,389.837891 257.090818,389.536787 257.588867,388.93457 C258.086917,388.332354 258.335938,387.360684 258.335938,386.019531 L258.335938,385.677734 C258.335938,384.1608 258.083661,383.078454 257.579102,382.430664 C257.074542,381.782874 256.268886,381.458984 255.162109,381.458984 C254.211584,381.458984 253.484052,381.828447 252.979492,382.567383 C252.474932,383.306319 252.222656,384.349603 252.222656,385.697266 C252.222656,387.06446 252.473305,388.096351 252.974609,388.792969 C253.475914,389.489587 254.211584,389.837891 255.181641,389.837891 Z M267.916016,391.195312 C266.333976,391.195312 265.085617,390.713546 264.170898,389.75 C263.25618,388.786454 262.798828,387.448576 262.798828,385.736328 C262.798828,384.011059 263.223629,382.64063 264.073242,381.625 C264.922856,380.60937 266.063795,380.101562 267.496094,380.101562 C268.837246,380.101562 269.898434,380.542639 270.679688,381.424805 C271.460941,382.306971 271.851562,383.470696 271.851562,384.916016 L271.851562,385.941406 L264.478516,385.941406 C264.511068,387.197923 264.828448,388.151689 265.430664,388.802734 C266.032881,389.453779 266.880854,389.779297 267.974609,389.779297 C269.126959,389.779297 270.26627,389.538414 271.392578,389.056641 L271.392578,390.501953 C270.819659,390.74935 270.277672,390.926757 269.766602,391.03418 C269.255531,391.141602 268.638675,391.195312 267.916016,391.195312 Z M267.476562,381.458984 C266.617183,381.458984 265.931969,381.738929 265.420898,382.298828 C264.909828,382.858727 264.608724,383.633459 264.517578,384.623047 L270.113281,384.623047 C270.113281,383.600906 269.885419,382.818037 269.429688,382.274414 C268.973956,381.730792 268.322921,381.458984 267.476562,381.458984 Z M276.558594,391 L272.496094,380.296875 L274.234375,380.296875 L276.539062,386.644531 C277.059898,388.128914 277.365885,389.092446 277.457031,389.535156 L277.535156,389.535156 C277.606771,389.190102 277.833006,388.475591 278.213867,387.391602 C278.594728,386.307612 279.449212,383.942727 280.777344,380.296875 L282.515625,380.296875 L278.453125,391 L276.558594,391 Z M288.755859,391.195312 C287.17382,391.195312 285.92546,390.713546 285.010742,389.75 C284.096024,388.786454 283.638672,387.448576 283.638672,385.736328 C283.638672,384.011059 284.063472,382.64063 284.913086,381.625 C285.7627,380.60937 286.903639,380.101562 288.335938,380.101562 C289.67709,380.101562 290.738277,380.542639 291.519531,381.424805 C292.300785,382.306971 292.691406,383.470696 292.691406,384.916016 L292.691406,385.941406 L285.318359,385.941406 C285.350912,387.197923 285.668291,388.151689 286.270508,388.802734 C286.872724,389.453779 287.720698,389.779297 288.814453,389.779297 C289.966803,389.779297 291.106114,389.538414 292.232422,389.056641 L292.232422,390.501953 C291.659502,390.74935 291.117516,390.926757 290.606445,391.03418 C290.095375,391.141602 289.478519,391.195312 288.755859,391.195312 Z M288.316406,381.458984 C287.457027,381.458984 286.771812,381.738929 286.260742,382.298828 C285.749672,382.858727 285.448568,383.633459 285.357422,384.623047 L290.953125,384.623047 C290.953125,383.600906 290.725263,382.818037 290.269531,382.274414 C289.8138,381.730792 289.162765,381.458984 288.316406,381.458984 Z M297.076172,391 L295.455078,391 L295.455078,375.804688 L297.076172,375.804688 L297.076172,391 Z M309.751953,385.638672 C309.751953,387.383472 309.312504,388.745763 308.433594,389.725586 C307.554683,390.705409 306.340503,391.195312 304.791016,391.195312 C303.83398,391.195312 302.984379,390.970705 302.242188,390.521484 C301.499996,390.072263 300.927085,389.427739 300.523438,388.587891 C300.11979,387.748043 299.917969,386.76498 299.917969,385.638672 C299.917969,383.893871 300.354162,382.534836 301.226562,381.561523 C302.098963,380.588211 303.309888,380.101562 304.859375,380.101562 C306.356778,380.101562 307.546545,380.599604 308.428711,381.595703 C309.310877,382.591802 309.751953,383.939445 309.751953,385.638672 Z M301.597656,385.638672 C301.597656,387.005866 301.871091,388.047522 302.417969,388.763672 C302.964846,389.479821 303.768875,389.837891 304.830078,389.837891 C305.891281,389.837891 306.696937,389.481449 307.24707,388.768555 C307.797203,388.05566 308.072266,387.012377 308.072266,385.638672 C308.072266,384.277988 307.797203,383.24447 307.24707,382.538086 C306.696937,381.831702 305.884771,381.478516 304.810547,381.478516 C303.749344,381.478516 302.94857,381.826819 302.408203,382.523438 C301.867836,383.220056 301.597656,384.258457 301.597656,385.638672 Z M317.574219,391.195312 C316.877601,391.195312 316.241214,391.066733 315.665039,390.80957 C315.088864,390.552408 314.605471,390.156904 314.214844,389.623047 L314.097656,389.623047 C314.175782,390.24805 314.214844,390.840492 314.214844,391.400391 L314.214844,395.804688 L312.59375,395.804688 L312.59375,380.296875 L313.912109,380.296875 L314.136719,381.761719 L314.214844,381.761719 C314.631512,381.175778 315.116534,380.752605 315.669922,380.492188 C316.22331,380.23177 316.858069,380.101562 317.574219,380.101562 C318.993497,380.101562 320.088863,380.586584 320.860352,381.556641 C321.63184,382.526698 322.017578,383.887361 322.017578,385.638672 C322.017578,387.396493 321.625329,388.762039 320.84082,389.735352 C320.056311,390.708664 318.967455,391.195312 317.574219,391.195312 Z M317.339844,381.478516 C316.246088,381.478516 315.455081,381.781247 314.966797,382.386719 C314.478513,382.992191 314.227865,383.955723 314.214844,385.277344 L314.214844,385.638672 C314.214844,387.142586 314.465492,388.218421 314.966797,388.866211 C315.468101,389.514001 316.27213,389.837891 317.378906,389.837891 C318.30339,389.837891 319.027667,389.463545 319.551758,388.714844 C320.075849,387.966142 320.337891,386.934251 320.337891,385.619141 C320.337891,384.284499 320.075849,383.260746 319.551758,382.547852 C319.027667,381.834957 318.290369,381.478516 317.339844,381.478516 Z M329.371094,391.195312 C327.789055,391.195312 326.540695,390.713546 325.625977,389.75 C324.711258,388.786454 324.253906,387.448576 324.253906,385.736328 C324.253906,384.011059 324.678707,382.64063 325.52832,381.625 C326.377934,380.60937 327.518873,380.101562 328.951172,380.101562 C330.292324,380.101562 331.353512,380.542639 332.134766,381.424805 C332.91602,382.306971 333.306641,383.470696 333.306641,384.916016 L333.306641,385.941406 L325.933594,385.941406 C325.966146,387.197923 326.283526,388.151689 326.885742,388.802734 C327.487959,389.453779 328.335932,389.779297 329.429688,389.779297 C330.582037,389.779297 331.721349,389.538414 332.847656,389.056641 L332.847656,390.501953 C332.274737,390.74935 331.73275,390.926757 331.22168,391.03418 C330.710609,391.141602 330.093754,391.195312 329.371094,391.195312 Z M328.931641,381.458984 C328.072261,381.458984 327.387047,381.738929 326.875977,382.298828 C326.364906,382.858727 326.063803,383.633459 325.972656,384.623047 L331.568359,384.623047 C331.568359,383.600906 331.340497,382.818037 330.884766,382.274414 C330.429034,381.730792 329.777999,381.458984 328.931641,381.458984 Z M340.953125,380.101562 C341.428388,380.101562 341.854816,380.140625 342.232422,380.21875 L342.007812,381.722656 C341.565102,381.625 341.174481,381.576172 340.835938,381.576172 C339.970048,381.576172 339.229495,381.927731 338.614258,382.630859 C337.99902,383.333988 337.691406,384.20963 337.691406,385.257812 L337.691406,391 L336.070312,391 L336.070312,380.296875 L337.408203,380.296875 L337.59375,382.279297 L337.671875,382.279297 C338.069012,381.582679 338.547523,381.045575 339.107422,380.667969 C339.667321,380.290363 340.282549,380.101562 340.953125,380.101562 Z" id="now-web-developer-copy" fill="#2E2E2E"></path>
        </g>
    </g>
</svg>